<svg width="160" height="160" viewBox="0 0 160 160" fill="none" xmlns="http://www.w3.org/2000/svg">
<g clip-path="url(#clip0_8_1859)">
<path d="M145.726 55.6578C145.726 55.6578 140.001 31.4774 110.267 23.8553C80.5339 16.2332 59.1109 49.3499 43.4132 53.0294C27.7155 56.7093 7.95476 56.7093 2.78366 86.1464C-2.38744 115.584 15.8959 138.713 51.3546 133.719C86.8132 128.725 92.9075 123.994 105.096 128.725C117.285 133.456 138.154 137.399 145.91 118.212C153.667 99.0249 151.82 73.5303 145.726 55.6578Z" fill="#778FDD"/>
<path opacity="0.7" d="M145.726 55.6578C145.726 55.6578 140.001 31.4774 110.267 23.8553C80.5339 16.2332 59.1109 49.3499 43.4132 53.0294C27.7155 56.7093 7.95476 56.7093 2.78366 86.1464C-2.38744 115.584 15.8959 138.713 51.3546 133.719C86.8132 128.725 92.9075 123.994 105.096 128.725C117.285 133.456 138.154 137.399 145.91 118.212C153.667 99.0249 151.82 73.5303 145.726 55.6578Z" fill="white"/>
<path d="M136.076 56.1267L130.68 53.0211L122.468 53.0781L117.524 56.4582L117.326 57.1693L114.057 126.644L112.943 126.855L112.776 132.027L141.358 131.82L141.32 126.447C141.32 126.447 139.784 124.894 139.578 124.388C139.371 123.883 136.6 58.6576 136.597 58.1507C136.593 57.6438 136.993 56.8301 136.076 56.1267Z" fill="white" stroke="#222222" stroke-width="0.32" stroke-miterlimit="10" stroke-linecap="round" stroke-linejoin="round"/>
<path d="M121.454 52.9837L122.372 43.6496L130.24 43.5948L131.288 52.9155L121.454 52.9837Z" fill="white" stroke="#222222" stroke-width="0.32" stroke-miterlimit="10" stroke-linecap="round" stroke-linejoin="round"/>
<path d="M140.521 126.764L116.087 126.934" stroke="#222222" stroke-width="0.32" stroke-miterlimit="10" stroke-linecap="round" stroke-linejoin="round"/>
<path d="M135.314 123.558L134.876 60.0892L118.147 60.2047L118.585 123.673L135.314 123.558Z" fill="#778FDD" stroke="#222222" stroke-width="0.32" stroke-miterlimit="10" stroke-linecap="round" stroke-linejoin="round"/>
<path d="M134.558 56.5427L125.839 56.6035" stroke="#222222" stroke-width="0.32" stroke-miterlimit="10" stroke-linecap="round" stroke-linejoin="round"/>
<path d="M123.912 56.6169L122.29 56.6281" stroke="#222222" stroke-width="0.32" stroke-miterlimit="10" stroke-linecap="round" stroke-linejoin="round"/>
<path d="M128.993 43.705L129.657 51.7101" stroke="#222222" stroke-width="0.32" stroke-miterlimit="10" stroke-linecap="round" stroke-linejoin="round"/>
<path d="M127.901 46.957L128.034 51.5186" stroke="#222222" stroke-width="0.32" stroke-miterlimit="10" stroke-linecap="round" stroke-linejoin="round"/>
<path d="M126.362 44.3315L126.379 46.7648" stroke="#222222" stroke-width="0.32" stroke-miterlimit="10" stroke-linecap="round" stroke-linejoin="round"/>
<path d="M123.879 51.8518L124.049 47.1865" stroke="#222222" stroke-width="0.32" stroke-miterlimit="10" stroke-linecap="round" stroke-linejoin="round"/>
<path d="M98.932 43.2758C98.4939 43.2528 98.1153 43.5763 98.0708 44.0125C97.8843 45.8397 97.4331 50.5875 97.299 55.0185C97.1281 60.6544 98.1528 68.6809 98.7505 71.328C99.3483 73.975 101.483 78.4153 101.483 83.9657C101.483 89.5161 99.8606 98.5673 99.6897 106.594C99.5188 114.62 100.714 127.685 101.056 129.734C101.397 131.784 102.337 132.296 103.532 130.674C104.728 129.051 107.375 123.757 107.375 115.987C107.375 108.216 105.582 98.9939 105.496 94.8953C105.411 90.7968 106.436 86.6125 105.838 82.0016C105.24 77.3904 102.764 74.1459 101.227 70.7302C99.69 67.3145 99.0068 57.6656 99.0068 55.2745C99.0068 53.3161 99.5223 46.5462 99.7089 44.1603C99.7447 43.6995 99.3937 43.3001 98.932 43.2758Z" fill="white" stroke="#222222" stroke-width="0.32" stroke-miterlimit="10" stroke-linecap="round" stroke-linejoin="round"/>
<path d="M99.7086 44.1603H105.093L104.576 46.2208L105.323 47.0243L104.864 47.8854L105.036 48.8038L104.519 49.3779L104.978 50.1814L104.634 50.7555L105.036 51.4441L104.519 52.1904L105.093 52.879L104.691 53.6825L105.093 54.1417L104.003 54.7731L104.921 55.7488L104.462 56.2652L105.208 57.1264L99.0667 57.2412C99.0661 57.2412 98.4219 50.8009 99.7086 44.1603Z" fill="white" stroke="#222222" stroke-width="0.32" stroke-miterlimit="10" stroke-linecap="round" stroke-linejoin="round"/>
<path d="M99.5144 46.5939H102.446" stroke="#222222" stroke-width="0.32" stroke-miterlimit="10"/>
<path d="M101.469 47.8556H103.83" stroke="#222222" stroke-width="0.32" stroke-miterlimit="10"/>
<path d="M104.519 49.3779H101.224" stroke="#222222" stroke-width="0.32" stroke-miterlimit="10"/>
<path d="M103.382 52.1711H99.2296" stroke="#222222" stroke-width="0.32" stroke-miterlimit="10"/>
<path d="M99.3515 54.5325H101.916" stroke="#222222" stroke-width="0.32" stroke-miterlimit="10"/>
<path d="M102.934 56.1609H100.451" stroke="#222222" stroke-width="0.32" stroke-miterlimit="10"/>
<path d="M101.483 83.9658C101.483 89.5162 99.8603 98.5674 99.6894 106.594C99.5185 114.62 100.714 127.685 101.056 129.734C101.397 131.784 102.337 132.296 103.532 130.674C104.727 129.051 107.375 123.757 107.375 115.987C107.375 108.216 105.581 98.9939 105.496 94.8954C105.411 90.7965 106.435 86.6125 105.838 82.0016C105.461 79.096 104.338 76.7334 103.175 74.5283H99.7179C100.529 77.0429 101.483 80.2541 101.483 83.9658Z" fill="#778FDD" stroke="#222222" stroke-width="0.32" stroke-miterlimit="10" stroke-linecap="round" stroke-linejoin="round"/>
<path d="M100.904 70.6486H98.7166C98.357 70.6486 98.0654 70.3571 98.0654 69.9975V69.9184C98.0654 69.5587 98.357 69.2672 98.7166 69.2672H100.904C101.264 69.2672 101.556 69.5587 101.556 69.9184V69.9975C101.556 70.3571 101.264 70.6486 100.904 70.6486Z" fill="#778FDD" stroke="#222222" stroke-width="0.32" stroke-miterlimit="10" stroke-linecap="round" stroke-linejoin="round"/>
<path d="M101.873 73.3027H99.1688C98.8004 73.3027 98.5019 73.0041 98.5019 72.6358V72.5548C98.5019 72.1865 98.8004 71.8879 99.1688 71.8879H101.873C102.241 71.8879 102.54 72.1865 102.54 72.5548V72.6358C102.54 73.0041 102.241 73.3027 101.873 73.3027Z" fill="#778FDD" stroke="#222222" stroke-width="0.32" stroke-miterlimit="10" stroke-linecap="round" stroke-linejoin="round"/>
<path d="M104.926 85.8543C105.135 80.8335 101.966 77.8556 100.375 76.6841C100.791 78.1564 101.164 79.7983 101.353 81.583C101.476 81.8329 101.599 82.0943 101.722 82.3727C103.951 87.3865 100.051 98.9458 102.001 111.48C102.98 117.775 104.556 122.523 105.883 125.692C106.703 123.187 107.375 119.902 107.375 115.987C107.375 115.512 107.367 115.031 107.355 114.546C105.954 111.758 104.537 108.248 104.09 104.795C103.115 97.2745 104.647 92.5391 104.926 85.8543Z" fill="white" stroke="#222222" stroke-width="0.32" stroke-miterlimit="10" stroke-linecap="round" stroke-linejoin="round"/>
<path d="M77.1546 91.265L80.8464 103.807" stroke="#222222" stroke-width="0.64" stroke-miterlimit="10"/>
<path d="M77.8339 90.121L78.1261 91.3431C78.1923 91.6196 78.0343 91.9002 77.7639 91.9873L73.3591 93.4055C70.6592 94.2746 69.1146 97.1073 69.8464 99.8478C70.5747 102.575 73.3047 104.26 76.0688 103.689L80.5891 102.754C80.8144 102.708 81.0375 102.842 81.1015 103.063L81.4829 104.384C81.5498 104.615 81.4183 104.858 81.1875 104.927L74.2944 107.014C71.6317 107.821 69.8995 110.384 70.1443 113.155L70.7655 120.183C70.7655 120.183 70.9075 121.13 70.3395 123.307C69.7715 125.485 69.6298 127.946 70.3395 129.46C71.0496 130.975 71.712 131.779 71.5703 131.969C71.4282 132.158 70.529 131.211 69.6298 129.508C68.7306 127.804 68.6359 124.207 68.3991 122.645C68.1623 121.083 67.2157 110.434 67.4525 108.919C67.6893 107.405 69.2039 106.884 68.1152 103.807C67.0266 100.731 66.8845 97.1338 68.0205 94.7674C69.1565 92.401 71.9015 90.8865 73.7472 90.3658C75.0567 89.9966 76.5085 89.794 77.2423 89.7073C77.5159 89.675 77.7696 89.8526 77.8339 90.121Z" fill="#778FDD" stroke="#222222" stroke-width="0.32" stroke-miterlimit="10" stroke-linecap="round" stroke-linejoin="round"/>
<path d="M66.5283 42.7958C66.5283 42.7958 65.3178 42.9686 64.8419 43.2281C64.3664 43.4876 64.6691 44.5254 64.6691 44.5254C64.6691 44.5254 64.5827 46.3414 65.015 46.6009C65.4474 46.8605 67.3069 47.1632 67.3069 47.1632L69.0365 50.0169H77.2522L78.7222 47.2496C78.7222 47.2496 81.2301 46.8604 81.6192 46.3414C82.0083 45.8224 81.7056 43.1417 81.2733 43.0118C80.841 42.8825 72.8845 41.5852 66.5283 42.7958Z" fill="#B1B7C8" stroke="#222222" stroke-width="0.32" stroke-miterlimit="10"/>
<path d="M81.2733 43.0121C80.841 42.8825 72.8848 41.5852 66.5283 42.7958C66.5283 42.7958 65.3178 42.9686 64.8419 43.2281C64.3664 43.4876 64.6691 44.5254 64.6691 44.5254C64.6691 44.5254 64.8854 44.0931 65.2314 43.92C65.5773 43.7472 68.0851 43.7036 68.5178 43.7036C68.9501 43.7036 69.1664 44.4819 69.3392 44.7846C69.512 45.0873 69.9878 46.0387 73.1875 45.8656C76.3872 45.6928 77.0358 44.6982 77.2522 44.3523C77.4685 44.0064 77.2522 43.574 77.8576 43.5308C78.463 43.4876 80.8413 43.4444 81.36 43.7036C81.4874 43.7673 81.5936 43.8835 81.6819 44.022C81.5856 43.4876 81.439 43.062 81.2733 43.0121Z" fill="white" stroke="#222222" stroke-width="0.32" stroke-miterlimit="10"/>
<path d="M69.0793 47.0336H76.8627" stroke="#222222" stroke-width="0.32" stroke-miterlimit="10"/>
<path d="M66.7011 47.1631C66.7011 47.1631 67.5657 45.9523 69.5981 46.2118C71.6304 46.4713 72.4518 48.7196 74.6573 47.7254C76.8627 46.7311 78.2461 46.2121 81.6189 47.0335C83.4886 47.4889 85.3814 48.0617 87.3168 48.1347C88.2726 48.1708 89.3299 48.0774 90.1843 47.6131C90.8112 47.2723 91.3501 46.5171 91.2006 45.7567C90.6864 43.142 85.9161 43.4857 84.4726 44.958C83.336 46.1174 82.9664 47.8591 83.3917 49.4083C83.7581 50.7423 84.8393 51.6316 85.9526 52.3561C87.2931 53.2284 88.6432 54.2137 89.5635 55.5446C90.9133 57.4969 91.4675 59.9302 90.6563 62.2108" stroke="#222222" stroke-width="0.32" stroke-miterlimit="10"/>
<path d="M81.6192 47.0336H78.1168C78.1168 47.0336 77.4681 46.9904 77.2953 47.4227C77.1225 47.8551 76.6467 49.4119 76.6467 49.4119H69.5552L68.7769 47.2931C68.7769 47.2931 68.6905 46.9472 67.696 46.9904C66.7014 47.0336 64.5827 47.0336 64.5827 47.0336L65.1017 58.1463C65.1017 58.1463 65.1881 59.8327 65.7504 61.6487C66.3126 63.4647 66.5286 64.1997 67.1341 64.3728C67.7395 64.5456 67.9555 64.5891 67.9555 64.5891H79.0681C79.0681 64.5891 79.76 64.7188 80.2355 63.2919C80.711 61.865 81.3165 59.3572 81.4464 56.9354C81.576 54.5143 81.6192 47.0336 81.6192 47.0336Z" fill="white" stroke="#222222" stroke-width="0.32" stroke-miterlimit="10"/>
<path d="M61.1299 56.928H18.88V70.7552H61.1299V56.928Z" fill="#778FDD" stroke="#222222" stroke-width="0.32" stroke-miterlimit="10" stroke-linecap="round" stroke-linejoin="round"/>
<path d="M46.4899 44.5905H33.9943V53.2125H46.4899V44.5905Z" fill="white" stroke="#222222" stroke-width="0.32" stroke-miterlimit="10"/>
<path d="M47.3648 45.84H33.1197V34.5661C33.1197 33.2704 34.1703 32.2198 35.4659 32.2198H45.0186C46.3142 32.2198 47.3648 33.2704 47.3648 34.5661V45.84Z" fill="#222222" stroke="#222222" stroke-width="0.32" stroke-miterlimit="10" stroke-linecap="round" stroke-linejoin="round"/>
<path d="M18.88 56.9281L24.8726 51.713H55.9869L61.1299 56.9281H18.88Z" fill="#778FDD" stroke="#222222" stroke-width="0.32" stroke-miterlimit="10" stroke-linecap="round" stroke-linejoin="round"/>
<path d="M18.88 70.7065L24.8726 75.9213H55.9869L61.1299 70.7065H18.88Z" fill="#778FDD" stroke="#222222" stroke-width="0.32" stroke-miterlimit="10" stroke-linecap="round" stroke-linejoin="round"/>
<path d="M61.1299 113.033H18.88V126.861H61.1299V113.033Z" fill="#778FDD" stroke="#222222" stroke-width="0.32" stroke-miterlimit="10" stroke-linecap="round" stroke-linejoin="round"/>
<path d="M18.88 113.033L24.8726 107.819H55.9869L61.1299 113.033H18.88Z" fill="#778FDD" stroke="#222222" stroke-width="0.32" stroke-miterlimit="10" stroke-linecap="round" stroke-linejoin="round"/>
<path d="M18.88 126.812L24.8726 132.027H55.9869L61.1299 126.812H18.88Z" fill="#778FDD" stroke="#222222" stroke-width="0.32" stroke-miterlimit="10" stroke-linecap="round" stroke-linejoin="round"/>
<path d="M58.6106 73.0807H21.7485V110.568H58.6106V73.0807Z" fill="#778FDD" stroke="#222222" stroke-width="0.32" stroke-miterlimit="10" stroke-linecap="round" stroke-linejoin="round"/>
<path d="M52.951 75.8301H27.3232V107.387H52.951V75.8301Z" fill="#222222" stroke="#222222" stroke-width="0.32" stroke-miterlimit="10" stroke-linecap="round" stroke-linejoin="round"/>
<path d="M10.4294 136.382H178.386" stroke="#222222" stroke-width="0.32" stroke-miterlimit="10"/>
<path d="M-24.0829 136.382H7.2752" stroke="#222222" stroke-width="0.32" stroke-miterlimit="10"/>
</g>
<defs>
<clipPath id="clip0_8_1859">
<rect width="160" height="160" fill="white"/>
</clipPath>
</defs>
</svg>
