<svg width="48" height="49" viewBox="0 0 48 49" fill="none" xmlns="http://www.w3.org/2000/svg">
<g clip-path="url(#clip0_7_467)">
<path d="M44 5.29999H8C6.233 5.29999 4.8 6.73299 4.8 8.49999V39.5C4.8 41.267 6.233 42.7 8 42.7H44C45.767 42.7 47.2 41.267 47.2 39.5V8.49999C47.2 6.73299 45.767 5.29999 44 5.29999Z" fill="#CFDFF6"/>
<path d="M8.9999 42.7H8C6.2327 42.7 4.8 41.2673 4.8 39.5V14.6H9C9.4418 14.6 9.7999 14.959 9.7999 15.4008V41.8999C9.8003 42.342 9.4419 42.7 8.9999 42.7Z" fill="#F0F6FD"/>
<path d="M47.2 8.49999V14.6H4.8V8.49999C4.8 6.73299 6.233 5.29999 8 5.29999H44C45.767 5.29999 47.2 6.73299 47.2 8.49999Z" fill="#B1C9F0"/>
<path d="M44.0436 8.29999H13C11.2327 8.29999 9.8 9.73269 9.8 11.5V13.8C9.8 14.0122 9.71571 14.2156 9.56568 14.3657C9.41565 14.5157 9.21217 14.6 9 14.6H4.8V8.49999C4.8 6.73269 6.2327 5.29999 8 5.29999C8 5.29999 44.0942 5.30099 44.1409 5.30299C46.0753 5.38689 45.9798 8.29999 44.0436 8.29999Z" fill="#CFDFF6"/>
<path d="M38.4 26.8C39.9464 26.8 41.2 25.5464 41.2 24C41.2 22.4536 39.9464 21.2 38.4 21.2C36.8536 21.2 35.6 22.4536 35.6 24C35.6 25.5464 36.8536 26.8 38.4 26.8Z" fill="#F0F6FD"/>
<path d="M38.4 37.3C39.9464 37.3 41.2 36.0464 41.2 34.5C41.2 32.9536 39.9464 31.7 38.4 31.7C36.8536 31.7 35.6 32.9536 35.6 34.5C35.6 36.0464 36.8536 37.3 38.4 37.3Z" fill="#F0F6FD"/>
<path d="M27.4 37.3C28.9464 37.3 30.2 36.0464 30.2 34.5C30.2 32.9536 28.9464 31.7 27.4 31.7C25.8536 31.7 24.6 32.9536 24.6 34.5C24.6 36.0464 25.8536 37.3 27.4 37.3Z" fill="#F0F6FD"/>
<path d="M27.4 26.8C28.9464 26.8 30.2 25.5464 30.2 24C30.2 22.4536 28.9464 21.2 27.4 21.2C25.8536 21.2 24.6 22.4536 24.6 24C24.6 25.5464 25.8536 26.8 27.4 26.8Z" fill="#F0F6FD"/>
<path d="M16.512 32.653C19.292 34.835 21.112 38.054 21.524 41.61C22.0447 41.9373 21.7873 42.7 21.2117 42.7H20.004C19.8509 38.5818 17.519 34.6464 13.532 32.65C17.4684 30.6793 19.8425 26.7927 20.005 22.582C20.85 22.46 21.5 21.733 21.5 20.854V19.346C21.5 18.3817 20.7183 17.6 19.754 17.6H4.8V16.5896C4.8 16.4332 4.86211 16.2833 4.97269 16.1727C5.08326 16.0621 5.23322 16 5.3896 16H19.754C21.6019 16 23.1 17.4981 23.1 19.346V20.854C23.1 22.031 22.475 23.091 21.525 23.689C21.1296 27.1127 19.3921 30.4075 16.512 32.653ZM8.804 32.65C7.188 33.459 5.84 34.589 4.8 35.924V29.376C5.84 30.712 7.188 31.841 8.804 32.65Z" fill="#B1C9F0"/>
<path d="M20.005 22.582C20.85 22.46 21.5 21.733 21.5 20.854V19.346C21.5 18.382 20.718 17.6 19.754 17.6H2.546C1.582 17.6 0.800003 18.382 0.800003 19.346V20.854C0.800003 21.745 1.468 22.481 2.331 22.586V22.587C2.4863 26.7701 4.8563 30.6737 8.804 32.65C4.837 34.636 2.486 38.553 2.331 42.713V42.714C1.468 42.819 0.800003 43.555 0.800003 44.446V45.954C0.800003 46.918 1.582 47.7 2.546 47.7H19.754C20.718 47.7 21.5 46.918 21.5 45.954V44.446C21.5 43.567 20.85 42.84 20.005 42.718C19.852 38.556 17.5 34.637 13.532 32.65C17.493 30.667 19.8504 26.7524 20.005 22.582Z" fill="#CFDFF6"/>
<path d="M10.8719 34.4459C8.4834 36.2706 6.8686 39.0251 6.2148 42.0845C6.1385 42.4418 5.8275 42.7 5.4621 42.7C2.301 42.7 2.4708 42.694 2.3309 42.714V42.713C2.4859 38.553 4.8369 34.636 8.8039 32.65H10.2448C11.1656 32.65 11.6461 33.8544 10.8719 34.4459ZM5.9286 23.3322C6.001 24.186 6.1871 25.2935 6.4877 26.3092C6.6339 26.8033 6.2689 27.2999 5.7535 27.2999H3.507C2.79227 25.8275 2.39178 24.2225 2.331 22.5869V22.5859C2.4595 22.6043 2.2886 22.6004 5.132 22.6031C5.5462 22.6036 5.8936 22.9196 5.9286 23.3322Z" fill="#F0F6FD"/>
<path d="M3.507 27.3H18.828C17.74 29.54 15.933 31.448 13.532 32.65H8.804C6.403 31.448 4.595 29.54 3.507 27.3Z" fill="#B1C9F0"/>
<path d="M8.804 32.65C6.403 31.448 4.595 29.54 3.507 27.3H6.2993C6.5969 27.3 6.8827 27.4746 7.012 27.782C7.5832 29.1393 8.3623 30.3858 9.3298 31.4521C9.748 31.913 9.4264 32.65 8.804 32.65Z" fill="#CFDFF6"/>
<path d="M21.5 19.346V20.854C21.5 21.733 20.8499 22.4592 20.005 22.582C19.8215 22.6087 20.9755 22.6 2.546 22.6C1.6076 22.6 0.800003 21.8324 0.800003 20.854V19.346C0.800003 18.382 1.582 17.6 2.546 17.6H19.754C20.718 17.6 21.5 18.382 21.5 19.346Z" fill="#B1C9F0"/>
<path d="M19.7969 19H4.946C3.982 19 3.1967 19.782 3.2 20.746C3.2017 21.2487 3.2016 21.5899 3.2001 21.8335C3.1973 22.2936 2.7914 22.6504 2.3357 22.5866C1.3886 22.4541 0.800003 21.6833 0.800003 20.854V19.346C0.800003 18.3817 1.5817 17.6 2.546 17.6H19.754C20.7867 17.6 20.6934 19 19.7969 19Z" fill="#CFDFF6"/>
<path d="M21.5 44.446V45.954C21.5 46.918 20.718 47.7 19.754 47.7H2.546C1.582 47.7 0.800003 46.918 0.800003 45.954V44.446C0.800003 43.555 1.4691 42.828 2.331 42.714C2.4958 42.6922 1.336 42.7 19.754 42.7C20.7121 42.7 21.5 43.4776 21.5 44.446Z" fill="#B1C9F0"/>
<path d="M19.7969 44.103H4.946C3.982 44.103 3.1967 44.885 3.2 45.849C3.2017 46.3517 3.2016 46.6929 3.2001 46.9365C3.1973 47.3966 2.7914 47.7537 2.3357 47.6896C1.3878 47.5563 0.800003 46.7872 0.800003 45.957V44.449C0.800003 43.4847 1.5817 42.703 2.546 42.703H19.754C20.7867 42.703 20.6934 44.103 19.7969 44.103Z" fill="#CFDFF6"/>
<path d="M19.7542 16.8H2.5458C1.142 16.8 0 17.942 0 19.3457V20.8543C0 21.912 0.6485 22.8208 1.5686 23.2047C1.8936 27.0686 3.9827 30.5481 7.2004 32.65C3.9828 34.7519 1.8937 38.2313 1.5686 42.095C0.6405 42.4811 0 43.3971 0 44.4457V45.9543C0 47.358 1.142 48.5 2.5458 48.5H19.7543C21.158 48.5 22.3 47.358 22.3 45.9543V44.4457C22.3 43.042 21.158 41.9 19.7542 41.9H6.0484C5.83623 41.9 5.63274 41.9843 5.48272 42.1343C5.33269 42.2843 5.2484 42.4878 5.2484 42.7C5.2484 42.9122 5.33269 43.1156 5.48272 43.2657C5.63274 43.4157 5.83623 43.5 6.0484 43.5H19.7543C20.2758 43.5 20.7001 43.9242 20.7001 44.4457V45.9543C20.7001 46.4758 20.2758 46.9 19.7543 46.9H2.5458C2.0243 46.9 1.6 46.4758 1.6 45.9543V44.4457C1.6 43.9686 1.9562 43.565 2.4284 43.5071C2.82 43.4588 3.1161 43.1305 3.1305 42.7427C3.279 38.7468 5.5902 35.1536 9.1622 33.3653C9.7501 33.071 9.7505 32.2291 9.1622 31.9346C5.8434 30.273 3.6142 27.0531 3.1955 23.4H14.7968C15.009 23.4 15.2125 23.3157 15.3625 23.1657C15.5125 23.0156 15.5968 22.8122 15.5968 22.6C15.5968 22.3878 15.5125 22.1843 15.3625 22.0343C15.2125 21.8843 15.009 21.8 14.7968 21.8H2.5458C2.0243 21.8 1.6 21.3758 1.6 20.8543V19.3457C1.6 18.8242 2.0243 18.4 2.5458 18.4H19.7543C20.2758 18.4 20.7001 18.8242 20.7001 19.3457V20.8543C20.7001 21.2985 20.3825 21.715 19.8826 21.7919C19.7274 21.8159 19.5827 21.885 19.4665 21.9907C19.3504 22.0964 19.2679 22.2339 19.2293 22.3861C19.1525 22.6898 19.2528 24.3269 18.3122 26.5H8.5645C8.35233 26.5 8.14884 26.5843 7.99882 26.7343C7.84879 26.8843 7.7645 27.0878 7.7645 27.3C7.7645 27.5122 7.84879 27.7156 7.99882 27.8657C8.14884 28.0157 8.35233 28.1 8.5645 28.1H17.4557C16.3963 29.7377 14.9177 31.0618 13.1735 31.9347C12.5856 32.229 12.5852 33.0709 13.1735 33.3654C15.6127 34.5867 17.4952 36.655 18.4743 39.1893C18.5508 39.3872 18.7027 39.5466 18.8967 39.6325C19.0907 39.7184 19.3109 39.7237 19.5089 39.6472C19.7068 39.5708 19.8662 39.4188 19.9521 39.2248C20.038 39.0308 20.0433 38.8106 19.9668 38.6127C19.017 36.1541 17.3267 34.0783 15.1358 32.6496C17.0116 31.4236 18.5242 29.717 19.516 27.7075C19.5398 27.6674 19.5601 27.6252 19.5767 27.5809C20.2387 26.2016 20.6426 24.7128 20.7684 23.1881C21.6747 22.7911 22.3001 21.8812 22.3001 20.8543V19.3457C22.3 17.942 21.158 16.8 19.7542 16.8ZM27.4 26C26.2972 26 25.4 25.1028 25.4 24C25.4 23.7878 25.3157 23.5843 25.1657 23.4343C25.0157 23.2843 24.8122 23.2 24.6 23.2C24.3878 23.2 24.1843 23.2843 24.0343 23.4343C23.8843 23.5843 23.8 23.7878 23.8 24C23.8 25.9851 25.4149 27.6 27.4 27.6C29.3851 27.6 31 25.9851 31 24C31 22.0149 29.3851 20.4 27.4 20.4C27.1878 20.4 26.9843 20.4843 26.8343 20.6343C26.6843 20.7843 26.6 20.9878 26.6 21.2C26.6 21.4122 26.6843 21.6156 26.8343 21.7657C26.9843 21.9157 27.1878 22 27.4 22C28.5028 22 29.4 22.8972 29.4 24C29.4 25.1028 28.5028 26 27.4 26ZM38.4 22C38.6122 22 38.8157 21.9157 38.9657 21.7657C39.1157 21.6156 39.2 21.4122 39.2 21.2C39.2 20.9878 39.1157 20.7843 38.9657 20.6343C38.8157 20.4843 38.6122 20.4 38.4 20.4C36.4149 20.4 34.8 22.0149 34.8 24C34.8 25.9851 36.4149 27.6 38.4 27.6C40.3851 27.6 42 25.9851 42 24C42 23.7878 41.9157 23.5843 41.7657 23.4343C41.6157 23.2843 41.4122 23.2 41.2 23.2C40.9878 23.2 40.7843 23.2843 40.6343 23.4343C40.4843 23.5843 40.4 23.7878 40.4 24C40.4 25.1028 39.5028 26 38.4 26C37.2972 26 36.4 25.1028 36.4 24C36.4 22.8972 37.2972 22 38.4 22ZM27.4 32.5C28.5028 32.5 29.4 33.3972 29.4 34.5C29.4 35.6028 28.5028 36.5 27.4 36.5C27.1878 36.5 26.9843 36.5843 26.8343 36.7343C26.6843 36.8843 26.6 37.0878 26.6 37.3C26.6 37.5122 26.6843 37.7156 26.8343 37.8657C26.9843 38.0157 27.1878 38.1 27.4 38.1C29.3851 38.1 31 36.4851 31 34.5C31 32.5149 29.3851 30.9 27.4 30.9C25.4149 30.9 23.8 32.5149 23.8 34.5C23.8 34.7122 23.8843 34.9156 24.0343 35.0657C24.1843 35.2157 24.3878 35.3 24.6 35.3C24.8122 35.3 25.0157 35.2157 25.1657 35.0657C25.3157 34.9156 25.4 34.7122 25.4 34.5C25.4 33.3972 26.2972 32.5 27.4 32.5ZM38.4 38.1C38.6122 38.1 38.8157 38.0157 38.9657 37.8657C39.1157 37.7156 39.2 37.5122 39.2 37.3C39.2 37.0878 39.1157 36.8843 38.9657 36.7343C38.8157 36.5843 38.6122 36.5 38.4 36.5C37.2972 36.5 36.4 35.6028 36.4 34.5C36.4 33.3972 37.2972 32.5 38.4 32.5C39.5028 32.5 40.4 33.3972 40.4 34.5C40.4 34.7122 40.4843 34.9156 40.6343 35.0657C40.7843 35.2157 40.9878 35.3 41.2 35.3C41.4122 35.3 41.6157 35.2157 41.7657 35.0657C41.9157 34.9156 42 34.7122 42 34.5C42 32.5149 40.3851 30.9 38.4 30.9C36.4149 30.9 34.8 32.5149 34.8 34.5C34.8 36.4851 36.4149 38.1 38.4 38.1Z" fill="#778FDD"/>
<path d="M11.95 33.6646C11.95 33.4524 11.8657 33.2489 11.7157 33.0989C11.5657 32.9489 11.3622 32.8646 11.15 32.8646C10.9378 32.8646 10.7343 32.9489 10.5843 33.0989C10.4343 33.2489 10.35 33.4524 10.35 33.6646V35.8904C10.35 36.1026 10.4343 36.3061 10.5843 36.4561C10.7343 36.6061 10.9378 36.6904 11.15 36.6904C11.3622 36.6904 11.5657 36.6061 11.7157 36.4561C11.8657 36.3061 11.95 36.1026 11.95 35.8904V33.6646ZM11.15 37.9549C10.9378 37.9549 10.7343 38.0392 10.5843 38.1892C10.4343 38.3392 10.35 38.5427 10.35 38.7549V39.6C10.35 39.8122 10.4343 40.0157 10.5843 40.1657C10.7343 40.3157 10.9378 40.4 11.15 40.4C11.3622 40.4 11.5657 40.3157 11.7157 40.1657C11.8657 40.0157 11.95 39.8122 11.95 39.6V38.7549C11.95 38.5427 11.8657 38.3392 11.7157 38.1892C11.5657 38.0392 11.3622 37.9549 11.15 37.9549ZM44 4.5H39.7V4.2C39.7 2.1598 38.0402 0.5 36 0.5C33.9598 0.5 32.3 2.1598 32.3 4.2V4.5H19.7V4.2C19.7 2.1598 18.0402 0.5 16 0.5C13.9598 0.5 12.3 2.1598 12.3 4.2V4.5H8C5.7944 4.5 4 6.2944 4 8.5V12.6903C4 12.9025 4.08429 13.106 4.23431 13.256C4.38434 13.406 4.58783 13.4903 4.8 13.4903C5.01217 13.4903 5.21566 13.406 5.36569 13.256C5.51571 13.106 5.6 12.9025 5.6 12.6903V8.5C5.6 7.1767 6.6766 6.1 8 6.1H12.3V7.9C12.3 9.3883 13.3214 10.6426 14.7 10.9987V11.1C14.7 11.3122 14.7843 11.5157 14.9343 11.6657C15.0843 11.8157 15.2878 11.9 15.5 11.9C15.7122 11.9 15.9157 11.8157 16.0657 11.6657C16.2157 11.5157 16.3 11.3122 16.3 11.1V9.5C16.3 9.28783 16.2157 9.08434 16.0657 8.93431C15.9157 8.78429 15.7122 8.7 15.5 8.7C15.1275 8.7 14.8154 8.9549 14.7263 9.2995C14.2342 9.0264 13.9 8.5017 13.9 7.9V4.2C13.9 3.0421 14.842 2.1 16 2.1C17.158 2.1 18.1 3.0421 18.1 4.2V4.5H17.4677C17.2555 4.5 17.052 4.58429 16.902 4.73431C16.752 4.88434 16.6677 5.08783 16.6677 5.3C16.6677 5.51217 16.752 5.71566 16.902 5.86569C17.052 6.01571 17.2555 6.1 17.4677 6.1H32.3V7.9C32.3 9.3883 33.3214 10.6426 34.7 10.9987V11.1C34.7 11.3122 34.7843 11.5157 34.9343 11.6657C35.0843 11.8157 35.2878 11.9 35.5 11.9C35.7122 11.9 35.9157 11.8157 36.0657 11.6657C36.2157 11.5157 36.3 11.3122 36.3 11.1V9.5C36.3 9.28783 36.2157 9.08434 36.0657 8.93431C35.9157 8.78429 35.7122 8.7 35.5 8.7C35.1275 8.7 34.8154 8.9549 34.7263 9.2995C34.2342 9.0264 33.9 8.5017 33.9 7.9V4.2C33.9 3.0421 34.842 2.1 36 2.1C37.158 2.1 38.1 3.0421 38.1 4.2V4.5H37.5193C37.3071 4.5 37.1036 4.58429 36.9536 4.73431C36.8036 4.88434 36.7193 5.08783 36.7193 5.3C36.7193 5.51217 36.8036 5.71566 36.9536 5.86569C37.1036 6.01571 37.3071 6.1 37.5193 6.1H44C45.3233 6.1 46.4 7.1767 46.4 8.5V13.8H10.2677C10.0555 13.8 9.85204 13.8843 9.70201 14.0343C9.55199 14.1843 9.4677 14.3878 9.4677 14.6C9.4677 14.8122 9.55199 15.0157 9.70201 15.1657C9.85204 15.3157 10.0555 15.4 10.2677 15.4H46.4V39.5C46.4 40.8233 45.3233 41.9 44 41.9H26.2161C26.0039 41.9 25.8004 41.9843 25.6504 42.1343C25.5004 42.2843 25.4161 42.4878 25.4161 42.7C25.4161 42.9122 25.5004 43.1157 25.6504 43.2657C25.8004 43.4157 26.0039 43.5 26.2161 43.5H44C46.2056 43.5 48 41.7056 48 39.5V8.5C48 6.2944 46.2056 4.5 44 4.5Z" fill="#778FDD"/>
</g>
<defs>
<clipPath id="clip0_7_467">
<rect width="48" height="48" fill="white" transform="translate(0 0.5)"/>
</clipPath>
</defs>
</svg>
