<svg width="160" height="160" viewBox="0 0 160 160" fill="none" xmlns="http://www.w3.org/2000/svg">
<path d="M104.203 14.5007C104.203 14.5007 79.6963 5.78675 55.6403 19.66C31.5846 33.5336 19.4464 61.0738 9.02305 83.1346C-1.40032 105.195 4.59937 127.635 22.9629 137.867C41.3264 148.099 53.8131 133.016 79.5741 132.281C105.335 131.547 112.264 135.23 133.64 120.677C155.017 106.125 158.881 71.7557 142.018 46.3253C125.156 20.8946 104.203 14.5007 104.203 14.5007Z" fill="#778FDD"/>
<path opacity="0.8" d="M104.203 14.5007C104.203 14.5007 79.6963 5.78675 55.6403 19.66C31.5846 33.5336 19.4464 61.0738 9.02305 83.1346C-1.40032 105.195 4.59937 127.635 22.9629 137.867C41.3264 148.099 53.8131 133.016 79.5741 132.281C105.335 131.547 112.264 135.23 133.64 120.677C155.017 106.125 158.881 71.7557 142.018 46.3253C125.156 20.8946 104.203 14.5007 104.203 14.5007Z" fill="white"/>
<path d="M5.67233 146.693H154.152" stroke="#263238" stroke-width="0.32" stroke-miterlimit="10" stroke-linecap="round" stroke-linejoin="round"/>
<path d="M117.889 11.0303H88.641V120.955H117.889V11.0303Z" stroke="#263238" stroke-width="0.32" stroke-miterlimit="10" stroke-linecap="round" stroke-linejoin="round"/>
<path d="M155.041 11.0303H87.8979C87.6519 11.0303 87.4522 10.8306 87.4522 10.5846C87.4522 10.3385 87.6519 10.1388 87.8979 10.1388H155.041C155.287 10.1388 155.487 10.3382 155.487 10.5846C155.487 10.831 155.287 11.0303 155.041 11.0303Z" fill="#263238" stroke="#263238" stroke-width="0.32" stroke-miterlimit="10" stroke-linecap="round" stroke-linejoin="round"/>
<path d="M117.842 93.9196H153.697" stroke="#263238" stroke-width="0.32" stroke-miterlimit="10" stroke-linecap="round" stroke-linejoin="round"/>
<path d="M117.842 91.7861H153.697" stroke="#263238" stroke-width="0.32" stroke-miterlimit="10" stroke-linecap="round" stroke-linejoin="round"/>
<path d="M117.842 50.3997H153.697" stroke="#263238" stroke-width="0.32" stroke-miterlimit="10" stroke-linecap="round" stroke-linejoin="round"/>
<path d="M117.842 52.2777H153.697" stroke="#263238" stroke-width="0.32" stroke-miterlimit="10" stroke-linecap="round" stroke-linejoin="round"/>
<path d="M90.7626 11.1942V19.6339" stroke="#263238" stroke-width="0.32" stroke-miterlimit="10" stroke-linecap="round" stroke-linejoin="round"/>
<path d="M92.1303 12.4448V66.9239" stroke="#263238" stroke-width="0.32" stroke-miterlimit="10" stroke-linecap="round" stroke-linejoin="round"/>
<path d="M95.4518 11.0902V17.654" stroke="#263238" stroke-width="0.32" stroke-miterlimit="10" stroke-linecap="round" stroke-linejoin="round"/>
<path d="M95.4518 19.2168V22.8635" stroke="#263238" stroke-width="0.32" stroke-miterlimit="10" stroke-linecap="round" stroke-linejoin="round"/>
<path d="M114.892 20.6758V22.2383" stroke="#263238" stroke-width="0.32" stroke-miterlimit="10" stroke-linecap="round" stroke-linejoin="round"/>
<path d="M114.892 11.1942V19.2169" stroke="#263238" stroke-width="0.32" stroke-miterlimit="10" stroke-linecap="round" stroke-linejoin="round"/>
<path d="M99.0662 28.6982V29.9488" stroke="#263238" stroke-width="0.32" stroke-miterlimit="10" stroke-linecap="round" stroke-linejoin="round"/>
<path d="M99.0662 12.5488V27.2397" stroke="#263238" stroke-width="0.32" stroke-miterlimit="10" stroke-linecap="round" stroke-linejoin="round"/>
<path d="M101.215 12.4448V17.0291" stroke="#263238" stroke-width="0.32" stroke-miterlimit="10" stroke-linecap="round" stroke-linejoin="round"/>
<path d="M112.352 12.4448V17.0291" stroke="#263238" stroke-width="0.32" stroke-miterlimit="10" stroke-linecap="round" stroke-linejoin="round"/>
<path d="M103.951 11.0902V50.2838" stroke="#263238" stroke-width="0.32" stroke-miterlimit="10" stroke-linecap="round" stroke-linejoin="round"/>
<path d="M107.565 11.2985V13.3823" stroke="#263238" stroke-width="0.32" stroke-miterlimit="10" stroke-linecap="round" stroke-linejoin="round"/>
<path d="M109.714 11.2985V39.0837" stroke="#263238" stroke-width="0.32" stroke-miterlimit="10" stroke-linecap="round" stroke-linejoin="round"/>
<path d="M106.393 12.9657V18.8003" stroke="#263238" stroke-width="0.32" stroke-miterlimit="10" stroke-linecap="round" stroke-linejoin="round"/>
<path d="M124.769 44.6904L124.012 45.6331" stroke="#263238" stroke-width="0.32" stroke-miterlimit="10" stroke-linecap="round" stroke-linejoin="round"/>
<path d="M140.572 25.8143L125.988 43.1718" stroke="#263238" stroke-width="0.32" stroke-miterlimit="10" stroke-linecap="round" stroke-linejoin="round"/>
<path d="M137.302 35.8735L131.695 42.5183" stroke="#263238" stroke-width="0.32" stroke-miterlimit="10" stroke-linecap="round" stroke-linejoin="round"/>
<path d="M124.769 86.077L124.012 87.0201" stroke="#263238" stroke-width="0.32" stroke-miterlimit="10" stroke-linecap="round" stroke-linejoin="round"/>
<path d="M141.126 65.7208L125.988 84.5583" stroke="#263238" stroke-width="0.32" stroke-miterlimit="10" stroke-linecap="round" stroke-linejoin="round"/>
<path d="M137.302 77.26L131.695 83.9051" stroke="#263238" stroke-width="0.32" stroke-miterlimit="10" stroke-linecap="round" stroke-linejoin="round"/>
<path d="M143.343 52.2953V91.2166" stroke="#263238" stroke-width="0.32" stroke-miterlimit="10" stroke-linecap="round" stroke-linejoin="round"/>
<path d="M143.343 10.8496V50.3242" stroke="#263238" stroke-width="0.32" stroke-miterlimit="10" stroke-linecap="round" stroke-linejoin="round"/>
<path d="M145.283 52.343V91.2166" stroke="#263238" stroke-width="0.32" stroke-miterlimit="10" stroke-linecap="round" stroke-linejoin="round"/>
<path d="M145.283 10.8496V50.3031" stroke="#263238" stroke-width="0.32" stroke-miterlimit="10" stroke-linecap="round" stroke-linejoin="round"/>
<path d="M77.1594 42.9216H11.1725V44.5549H77.1594V42.9216Z" stroke="#263238" stroke-width="0.32" stroke-miterlimit="10" stroke-linecap="round" stroke-linejoin="round"/>
<path d="M83.6928 58.2749H4.63904V59.9082H83.6928V58.2749Z" stroke="#263238" stroke-width="0.32" stroke-miterlimit="10" stroke-linecap="round" stroke-linejoin="round"/>
<path d="M17.8147 24.5844V42.8778H33.2771V24.5844H17.8147ZM32.6602 42.1479H18.4317V25.314H32.6602V42.1479Z" fill="#263238" stroke="#263238" stroke-width="0.32" stroke-miterlimit="10" stroke-linecap="round" stroke-linejoin="round"/>
<path d="M44.057 45.6438V58.1222H54.6042V45.6438H44.057ZM54.1834 57.6243H44.4778V46.1417H54.1834V57.6243Z" fill="#263238" stroke="#263238" stroke-width="0.32" stroke-miterlimit="10" stroke-linecap="round" stroke-linejoin="round"/>
<path d="M36.5437 31.9888V42.8777H45.7475V31.9888H36.5437ZM44.6518 41.5811H37.6394V33.2848H44.6518V41.5811Z" fill="#263238" stroke="#263238" stroke-width="0.32" stroke-miterlimit="10" stroke-linecap="round" stroke-linejoin="round"/>
<path d="M9.53919 47.2333V58.1222H18.743V47.2333H9.53919ZM17.6474 56.8259H10.6349V48.5296H17.6474V56.8259Z" fill="#263238" stroke="#263238" stroke-width="0.32" stroke-miterlimit="10" stroke-linecap="round" stroke-linejoin="round"/>
<path d="M21.2992 51.0367V58.1222H27.288V51.0367H21.2992ZM26.5754 57.2787H22.0122V51.8803H26.575L26.5754 57.2787Z" fill="#263238" stroke="#263238" stroke-width="0.32" stroke-miterlimit="10" stroke-linecap="round" stroke-linejoin="round"/>
<path d="M34.5837 51.0367V58.1222H40.5725V51.0367H34.5837ZM39.8598 57.2787H35.297V51.8803H39.8598V57.2787Z" fill="#263238" stroke="#263238" stroke-width="0.32" stroke-miterlimit="10" stroke-linecap="round" stroke-linejoin="round"/>
<path d="M61.0679 38.0077H57.5803C57.1252 38.0077 56.7563 38.3766 56.7563 38.8317V42.8778H61.8919V38.8317C61.8919 38.3766 61.523 38.0077 61.0679 38.0077Z" stroke="#263238" stroke-width="0.32" stroke-miterlimit="10" stroke-linecap="round" stroke-linejoin="round"/>
<path d="M60.874 36.8566H57.7748V37.9702H60.874V36.8566Z" stroke="#263238" stroke-width="0.32" stroke-miterlimit="10" stroke-linecap="round" stroke-linejoin="round"/>
<path d="M59.9549 36.8237C59.9549 36.8237 60.8259 34.6457 61.5882 33.448C62.3504 32.2502 64.2016 31.2704 65.3994 31.2704C66.5971 31.2704 68.8838 32.5769 70.4083 34.3193" stroke="#263238" stroke-width="0.32" stroke-miterlimit="10" stroke-linecap="round" stroke-linejoin="round"/>
<path d="M64.2016 31.5971C64.2016 31.5971 64.855 29.4192 66.815 28.5482C68.775 27.6771 70.735 28.0038 71.0618 27.6771" stroke="#263238" stroke-width="0.32" stroke-miterlimit="10" stroke-linecap="round" stroke-linejoin="round"/>
<path d="M58.9326 36.7872C58.9326 36.7872 58.9751 35.4083 58.1041 34.3193C57.2331 33.2304 55.1639 32.7948 53.8574 33.6659C52.5508 34.5369 51.6795 35.7347 51.6795 35.7347" stroke="#263238" stroke-width="0.32" stroke-miterlimit="10" stroke-linecap="round" stroke-linejoin="round"/>
<path d="M55.4906 33.3391C55.4906 33.3391 54.075 34.7548 53.7486 36.1702C53.4218 37.5858 53.8574 39.1103 53.8574 39.1103" stroke="#263238" stroke-width="0.32" stroke-miterlimit="10" stroke-linecap="round" stroke-linejoin="round"/>
<path d="M61.5885 33.4483C62.7142 31.3331 62.4627 28.8541 63.3114 26.6563C64.1872 24.3885 66.1648 23.1629 68.5574 22.9949" stroke="#263238" stroke-width="0.32" stroke-miterlimit="10" stroke-linecap="round" stroke-linejoin="round"/>
<path d="M51.864 35.4871C51.864 35.4871 50.9699 35.4871 50.6717 36.2023C50.3738 36.9175 50.4928 37.633 50.4928 37.633C50.4928 37.633 51.2678 37.5136 51.6253 36.6794C51.9834 35.8445 51.864 35.4871 51.864 35.4871Z" fill="#778FDD"/>
<path d="M53.5047 33.8592C53.5047 33.8592 53.1595 33.0346 52.3847 33.0355C51.6097 33.0368 50.9959 33.423 50.9959 33.423C50.9959 33.423 51.4052 34.0918 52.3131 34.0995C53.2206 34.1072 53.5047 33.8592 53.5047 33.8592Z" fill="#778FDD"/>
<path d="M53.4903 37.3449C53.4903 37.3449 52.721 36.8889 52.0999 37.3526C51.4788 37.816 51.2167 38.4921 51.2167 38.4921C51.2167 38.4921 51.9441 38.7846 52.6772 38.2493C53.4106 37.7133 53.4903 37.3449 53.4903 37.3449Z" fill="#778FDD"/>
<path d="M53.823 38.8169C53.823 38.8169 53.1485 39.4038 53.393 40.1391C53.6374 40.8745 54.1971 41.3359 54.1971 41.3359C54.1971 41.3359 54.7037 40.7375 54.4256 39.8729C54.1478 39.0086 53.823 38.8169 53.823 38.8169Z" fill="#778FDD"/>
<path d="M53.7872 35.6947C53.7872 35.6947 53.56 36.5594 54.176 37.0295C54.792 37.4995 55.5142 37.5658 55.5142 37.5658C55.5142 37.5658 55.5958 36.7859 54.8797 36.2282C54.1635 35.6704 53.7872 35.6947 53.7872 35.6947Z" fill="#778FDD"/>
<path d="M54.5942 33.136C54.5942 33.136 54.8643 32.2835 54.2723 31.7833C53.6803 31.2832 52.9626 31.1808 52.9626 31.1808C52.9626 31.1808 52.8422 31.9555 53.5296 32.5485C54.2173 33.1417 54.5942 33.136 54.5942 33.136Z" fill="#778FDD"/>
<path d="M56.1969 33.2221C56.1969 33.2221 56.8609 32.6234 56.6033 31.8925C56.3457 31.1616 55.778 30.7104 55.778 30.7104C55.778 30.7104 55.2823 31.3178 55.5758 32.1773C55.8689 33.0365 56.1969 33.2221 56.1969 33.2221Z" fill="#778FDD"/>
<path d="M65.2576 29.6457C65.2576 29.6457 65.9216 29.047 65.664 28.3161C65.4064 27.5852 64.8387 27.134 64.8387 27.134C64.8387 27.134 64.343 27.7414 64.6365 28.6009C64.9293 29.4598 65.2576 29.6457 65.2576 29.6457Z" fill="#778FDD"/>
<path d="M67.8804 28.2745C67.8804 28.2745 68.5444 27.6758 68.2868 26.9449C68.0292 26.214 67.4615 25.7628 67.4615 25.7628C67.4615 25.7628 66.9658 26.3705 67.2593 27.2297C67.5524 28.0889 67.8804 28.2745 67.8804 28.2745Z" fill="#778FDD"/>
<path d="M70.0858 27.8573C70.0858 27.8573 70.7498 27.2585 70.4922 26.5277C70.2346 25.7968 69.6669 25.3456 69.6669 25.3456C69.6669 25.3456 69.1712 25.9529 69.4646 26.8125C69.7578 27.6717 70.0858 27.8573 70.0858 27.8573Z" fill="#778FDD"/>
<path d="M55.2426 35.591C55.2426 35.591 56.1364 35.5628 56.4116 34.8384C56.6868 34.1139 56.545 33.4028 56.545 33.4028C56.545 33.4028 55.7741 33.5465 55.4433 34.392C55.1121 35.2374 55.2426 35.591 55.2426 35.591Z" fill="#778FDD"/>
<path d="M69.6657 29.8566C69.6657 29.8566 69.8666 28.9852 69.2366 28.534C68.6065 28.0828 67.8826 28.0383 67.8826 28.0383C67.8826 28.0383 67.8247 28.8201 68.5575 29.3561C69.2906 29.8924 69.6657 29.8566 69.6657 29.8566Z" fill="#778FDD"/>
<path d="M71.8116 29.7971C71.8116 29.7971 72.0126 28.9258 71.3825 28.4746C70.7524 28.0234 70.0286 27.9789 70.0286 27.9789C70.0286 27.9789 69.9707 28.7606 70.7035 29.2966C71.4366 29.833 71.8116 29.7971 71.8116 29.7971Z" fill="#778FDD"/>
<path d="M52.8683 36.6025C52.8683 36.6025 53.659 36.1852 53.5886 35.4134C53.5182 34.6415 53.0791 34.0646 53.0791 34.0646C53.0791 34.0646 52.4494 34.5318 52.5227 35.4367C52.5956 36.342 52.8683 36.6025 52.8683 36.6025Z" fill="#778FDD"/>
<path d="M61.9883 35.2912C61.9883 35.2912 62.779 34.8739 62.7089 34.1021C62.6385 33.3303 62.1995 32.7533 62.1995 32.7533C62.1995 32.7533 61.5697 33.2205 61.643 34.1255C61.7159 35.0307 61.9883 35.2912 61.9883 35.2912Z" fill="#778FDD"/>
<path d="M60.2714 32.5132C60.2714 32.5132 59.6286 33.1346 59.9114 33.8562C60.1943 34.5778 60.7774 35.0092 60.7774 35.0092C60.7774 35.0092 61.2516 34.3849 60.9287 33.5362C60.6058 32.6876 60.2714 32.5132 60.2714 32.5132Z" fill="#778FDD"/>
<path d="M64.1936 33.9798C64.1936 33.9798 64.9843 33.5625 64.9142 32.7907C64.8438 32.0189 64.4048 31.4419 64.4048 31.4419C64.4048 31.4419 63.775 31.9091 63.8483 32.8141C63.9213 33.7193 64.1936 33.9798 64.1936 33.9798Z" fill="#778FDD"/>
<path d="M66.865 33.9836C66.865 33.9836 67.5229 33.3778 67.2576 32.6498C66.9923 31.9218 66.4202 31.4761 66.4202 31.4761C66.4202 31.4761 65.9309 32.0886 66.233 32.9449C66.535 33.8012 66.865 33.9836 66.865 33.9836Z" fill="#778FDD"/>
<path d="M68.9514 35.1164C68.9514 35.1164 69.6093 34.5106 69.344 33.7826C69.0787 33.0546 68.5065 32.6089 68.5065 32.6089C68.5065 32.6089 68.0173 33.2214 68.3194 34.0777C68.6214 34.934 68.9514 35.1164 68.9514 35.1164Z" fill="#778FDD"/>
<path d="M71.6234 32.5482C71.6234 32.5482 71.0579 31.8557 70.3152 32.0771C69.5725 32.2986 69.0941 32.8435 69.0941 32.8435C69.0941 32.8435 69.6765 33.3683 70.5491 33.1178C71.4218 32.8666 71.6234 32.5482 71.6234 32.5482Z" fill="#778FDD"/>
<path d="M68.8158 24.7753C68.8158 24.7753 68.8135 23.8812 68.0974 23.5849C67.3812 23.2889 66.6663 23.4098 66.6663 23.4098C66.6663 23.4098 66.7876 24.1846 67.6231 24.5398C68.4587 24.895 68.8158 24.7753 68.8158 24.7753Z" fill="#778FDD"/>
<path d="M67.7398 21.1453C67.7398 21.1453 66.8541 21.2672 66.6563 22.0163C66.4586 22.7654 66.6742 23.4579 66.6742 23.4579C66.6742 23.4579 67.4256 23.2342 67.6662 22.3587C67.9066 21.4832 67.7398 21.1453 67.7398 21.1453Z" fill="#778FDD"/>
<path d="M66.3719 25.9677C66.3719 25.9677 66.3697 25.0736 65.6535 24.7773C64.9374 24.4813 64.2225 24.6022 64.2225 24.6022C64.2225 24.6022 64.3438 25.3769 65.1793 25.7325C66.0145 26.0877 66.3719 25.9677 66.3719 25.9677Z" fill="#778FDD"/>
<path d="M65.2957 22.3373C65.2957 22.3373 64.4099 22.4592 64.2122 23.2083C64.0144 23.9574 64.2301 24.6499 64.2301 24.6499C64.2301 24.6499 64.9815 24.4262 65.2221 23.5507C65.4627 22.6752 65.2957 22.3373 65.2957 22.3373Z" fill="#778FDD"/>
<path d="M65.4602 27.4499C65.4602 27.4499 64.905 26.7488 64.1594 26.9594C63.4135 27.1699 62.9268 27.7072 62.9268 27.7072C62.9268 27.7072 63.5012 28.2406 64.3777 28.0029C65.2541 27.7651 65.4602 27.4499 65.4602 27.4499Z" fill="#778FDD"/>
<path d="M62.3687 25.2637C62.3687 25.2637 61.7482 25.9075 62.0564 26.6186C62.3646 27.3296 62.9623 27.7402 62.9623 27.7402C62.9623 27.7402 63.4142 27.0995 63.0615 26.2627C62.7092 25.4259 62.3687 25.2637 62.3687 25.2637Z" fill="#778FDD"/>
<path d="M64.8042 30.49C64.8042 30.49 64.2493 29.7888 63.5034 29.9994C62.7574 30.2096 62.2707 30.7472 62.2707 30.7472C62.2707 30.7472 62.8451 31.2807 63.7216 31.0429C64.5981 30.8055 64.8042 30.49 64.8042 30.49Z" fill="#778FDD"/>
<path d="M61.713 28.3037C61.713 28.3037 61.0925 28.9476 61.4006 29.6586C61.7088 30.3696 62.3066 30.7802 62.3066 30.7802C62.3066 30.7802 62.7584 30.1396 62.4058 29.3028C62.0531 28.466 61.713 28.3037 61.713 28.3037Z" fill="#778FDD"/>
<path d="M69.1197 31.2368C69.1197 31.2368 68.5542 30.5443 67.8115 30.7657C67.0688 30.9872 66.5904 31.5321 66.5904 31.5321C66.5904 31.5321 67.1728 32.0569 68.0454 31.8064C68.9181 31.5552 69.1197 31.2368 69.1197 31.2368Z" fill="#778FDD"/>
<path d="M67.689 29.7465C67.689 29.7465 67.1236 29.0541 66.3809 29.2755C65.6385 29.4969 65.1598 30.0419 65.1598 30.0419C65.1598 30.0419 65.7422 30.5667 66.6148 30.3161C67.4874 30.0649 67.689 29.7465 67.689 29.7465Z" fill="#778FDD"/>
<path d="M73.2922 27.4217C73.2922 27.4217 72.7268 26.7292 71.9841 26.9507C71.2417 27.1721 70.763 27.7171 70.763 27.7171C70.763 27.7171 71.3454 28.2419 72.218 27.9913C73.0906 27.7401 73.2922 27.4217 73.2922 27.4217Z" fill="#778FDD"/>
<path d="M70.8483 22.7126C70.8483 22.7126 70.2829 22.0201 69.5402 22.2416C68.7974 22.463 68.319 23.008 68.319 23.008C68.319 23.008 68.9014 23.5328 69.7741 23.2822C70.6467 23.0313 70.8483 22.7126 70.8483 22.7126Z" fill="#778FDD"/>
<path d="M70.8589 36.7853C70.8589 36.7853 71.5168 36.1795 71.2515 35.4515C70.9862 34.7235 70.4141 34.2781 70.4141 34.2781C70.4141 34.2781 69.9248 34.8906 70.2269 35.7469C70.529 36.6029 70.8589 36.7853 70.8589 36.7853Z" fill="#778FDD"/>
<path d="M62.4419 58.1222H65.8525C67.0074 57.3363 67.7949 55.7791 67.7949 53.9843C67.7949 52.8185 67.4608 51.7548 66.912 50.9353H61.3824C60.8333 51.7548 60.4995 52.8185 60.4995 53.9843C60.4995 55.7791 61.287 57.3363 62.4419 58.1222Z" stroke="#263238" stroke-width="0.32" stroke-miterlimit="10" stroke-linecap="round" stroke-linejoin="round"/>
<path d="M73.4573 46.2972H71.2794V58.2752H73.4573V46.2972Z" stroke="#263238" stroke-width="0.32" stroke-miterlimit="10" stroke-linecap="round" stroke-linejoin="round"/>
<path d="M75.8528 46.2972H73.6749V58.2752H75.8528V46.2972Z" stroke="#263238" stroke-width="0.32" stroke-miterlimit="10" stroke-linecap="round" stroke-linejoin="round"/>
<path d="M78.2486 46.2972H76.0707V58.2752H78.2486V46.2972Z" stroke="#263238" stroke-width="0.32" stroke-miterlimit="10" stroke-linecap="round" stroke-linejoin="round"/>
<path d="M18.537 113.313C18.537 113.313 17.1443 110.807 17.9878 107.482C18.8314 104.159 19.1408 104.715 18.2582 102.804C17.3757 100.893 16.6189 100.499 17.1411 98.8565C17.6634 97.2137 18.5696 94.6489 18.2432 93.0927C17.9168 91.5365 17.2058 90.9029 17.5274 89.2217C17.8486 87.5404 18.8349 86.7333 18.3539 84.8988C17.8726 83.0642 17.0243 83.1509 17.3456 81.4697C17.6669 79.7887 18.1133 79.6559 17.9875 78.1381C17.8618 76.6204 18.2131 75.8834 18.2131 75.8834C18.2131 75.8834 18.7914 78.261 19.1635 79.5769C19.536 80.8927 19.5987 81.6517 19.415 82.6124C19.2314 83.573 21.4096 85.2341 21.4726 85.9932C21.5357 86.7519 21.9997 87.5877 21.2771 89.1919C20.5546 90.7964 20.3709 91.757 20.7891 92.8329C21.2074 93.9087 21.6547 93.7452 21.2413 95.9065C20.8282 98.0681 19.5782 98.078 20.5066 99.749C21.4349 101.42 21.991 101.775 21.561 102.938C21.1306 104.1 20.4541 105.465 20.7174 106.262C20.8163 106.561 21.0368 106.988 21.2739 107.405C21.8086 108.346 21.9798 109.45 21.7766 110.513L21.6512 111.17L22.0576 114.484L20.0851 116.098C20.0845 116.098 19.1728 115.426 18.537 113.313Z" fill="#778FDD"/>
<path d="M16.2586 113.599C16.2586 113.599 14.4198 111.76 14.6243 108.9C14.8285 106.04 15.2371 106.449 14.0115 105.018C12.7859 103.588 11.9686 103.384 12.1728 101.954C12.377 100.524 12.7856 98.277 12.1728 97.0514C11.56 95.8255 10.7427 95.4172 10.7427 93.9871C10.7427 92.557 11.56 91.7401 10.7427 90.31C9.92544 88.8799 9.10848 89.0844 9.10848 87.6543C9.10848 86.2242 9.51712 84.9986 9.10848 83.7727C8.69984 82.5471 8.96768 82.7986 8.96768 82.7986C8.96768 82.7986 9.92544 84.7942 10.5382 85.8156C11.151 86.837 11.3555 87.4498 11.3555 88.2671C11.3555 89.0844 13.807 90.1058 14.0112 90.7186C14.2154 91.3314 14.8285 91.9442 14.4198 93.3743C14.0112 94.8044 14.0112 95.6214 14.6243 96.4386C15.2371 97.2559 15.6458 97.0514 15.6458 98.8902C15.6458 100.729 14.4202 100.933 15.6458 102.159C16.8714 103.385 17.4845 103.589 17.28 104.61C17.0758 105.632 16.6672 106.858 17.0758 107.471C17.1872 107.638 17.3747 107.85 17.5885 108.072C18.4362 108.948 18.9146 110.118 18.9146 111.338V111.352L19.936 114.008L18.3018 115.642C18.3018 115.641 17.28 115.233 16.2586 113.599Z" fill="#778FDD"/>
<path d="M27.903 113.599C27.903 113.599 29.7418 111.76 29.5373 108.9C29.3331 106.04 28.9245 106.449 30.1501 105.018C31.3757 103.588 32.193 103.384 31.9888 101.954C31.7846 100.524 31.376 98.2771 31.9888 97.0515C32.6016 95.8255 33.4189 95.4172 33.4189 93.9871C33.4189 92.5571 32.6016 91.7401 33.4189 90.31C34.2362 88.8799 35.0531 89.0844 35.0531 87.6543C35.0531 86.2243 34.6445 84.9987 35.0531 83.7727C35.4618 82.5471 34.9728 83.2495 34.9728 83.2495C34.9728 83.2495 34.2358 84.7942 33.623 85.8156C33.0102 86.8371 32.8061 87.4499 32.8061 88.2671C32.8061 89.0844 30.3546 90.1059 30.1504 90.7187C29.9462 91.3315 29.3331 91.9443 29.7418 93.3743C30.1504 94.8044 30.1504 95.6214 29.5373 96.4387C28.9245 97.2559 28.5158 97.0515 28.5158 98.8902C28.5158 100.729 29.7414 100.933 28.5158 102.159C27.2902 103.385 26.6771 103.589 26.8816 104.61C27.0858 105.632 27.4944 106.858 27.0858 107.471C26.976 107.635 26.7926 107.844 26.5834 108.061C25.7306 108.946 25.2474 110.123 25.2474 111.352L24.2259 114.008L25.8602 115.642C25.8602 115.641 26.8816 115.233 27.903 113.599Z" fill="#778FDD"/>
<path d="M24.3021 114.112C24.3021 114.112 25.5242 112.406 24.9853 110.155C24.4464 107.905 24.1747 108.284 24.9629 106.984C25.7507 105.684 26.3744 105.414 26.0237 104.303C25.673 103.191 25.0522 101.455 25.3789 100.399C25.7056 99.342 26.3024 98.9094 26.1146 97.7708C25.9264 96.6323 25.1683 96.0892 25.631 94.8428C26.0938 93.5967 26.7712 93.6521 26.583 92.5132C26.3949 91.3747 25.9085 90.4524 26.0726 89.4227C26.2368 88.3929 25.879 88.6604 25.879 88.6604C25.879 88.6604 25.5565 90.3436 25.2026 91.2374C24.849 92.1311 24.7667 92.646 24.8742 93.2969C24.9818 93.9475 23.1642 95.0831 23.0822 95.598C23 96.1129 22.5926 96.6815 23.1062 97.7663C23.6195 98.8511 23.727 99.502 23.3466 100.233C22.9661 100.964 22.6138 100.856 22.8557 102.32C23.0976 103.784 24.1002 103.785 23.2854 104.922C22.4707 106.059 22.0096 106.303 22.3066 107.089C22.6035 107.875 23.0902 108.798 22.8454 109.339C22.6006 109.881 21.6234 111.045 21.6234 111.045L21.8922 112.672L21.4282 114.921L22.9443 116.007C22.9443 116.007 23.7037 115.547 24.3021 114.112Z" fill="#778FDD"/>
<path d="M30.2944 112.447L29.8128 124.428H28.4838V133.666H15.0019V124.428H13.7568L13.2755 112.447H30.2944Z" fill="#263238" stroke="#263238" stroke-width="0.32" stroke-miterlimit="10"/>
<path d="M13.3635 114.639L13.4333 116.374H30.1363L30.2061 114.639H13.3635Z" fill="white" stroke="#263238" stroke-width="0.32" stroke-miterlimit="10"/>
<path d="M30.0096 119.53L30.0541 118.426H13.5155L13.56 119.53H30.0096Z" fill="white" stroke="#263238" stroke-width="0.32" stroke-miterlimit="10"/>
<path d="M13.7565 124.426H13.1616V146.693H15V133.666" stroke="#263238" stroke-width="0.32" stroke-miterlimit="10"/>
<path d="M29.8131 124.426H30.3216V146.693H28.4829V133.666" stroke="#263238" stroke-width="0.32" stroke-miterlimit="10"/>
<path d="M43.8224 101.109C43.8224 101.109 40.1994 80.4691 40.1994 75.8291C40.1994 71.1891 44.9664 63.8291 56.0262 60.9491C67.0861 58.0691 81.1968 59.9891 85.3917 62.0691C89.5869 64.1491 92.0656 68.6291 93.0192 75.9891C93.9725 83.3491 95.8793 112.949 95.8793 112.949L45.5386 113.749L43.8224 101.109Z" fill="#666666" stroke="#263238" stroke-width="0.32" stroke-miterlimit="10" stroke-linecap="round" stroke-linejoin="round"/>
<path d="M103.753 140.9C103.753 140.9 102.216 142.673 99.9702 143.737C97.7245 144.8 96.6605 145.982 96.7789 146.81C96.8969 147.637 98.1974 147.755 100.443 147.874C102.689 147.992 110.609 147.637 111.909 147.637C113.209 147.637 114.273 147.283 114.273 146.219C114.273 145.155 114.036 142.436 114.036 142.436L103.753 140.9Z" fill="white" stroke="#263238" stroke-width="0.32" stroke-miterlimit="10" stroke-linecap="round" stroke-linejoin="round"/>
<path d="M108.481 146.692C104.301 146.692 98.6861 146.452 96.8217 146.367C96.7753 146.523 96.7593 146.672 96.7789 146.81C96.8969 147.638 98.1974 147.756 100.443 147.874C102.689 147.992 110.609 147.637 111.909 147.637C113.082 147.637 114.06 147.347 114.24 146.509C112.985 146.6 111.073 146.692 108.481 146.692Z" fill="white" stroke="#263238" stroke-width="0.32" stroke-miterlimit="10" stroke-linecap="round" stroke-linejoin="round"/>
<path d="M114.982 89.0086C114.982 89.0086 110.609 106.976 110.609 108.394C110.609 109.812 114.746 116.314 114.864 121.396C114.982 126.479 113.091 136.408 113.445 137.472C113.8 138.535 114.391 139.245 114.273 140.19C114.155 141.136 113.8 143.618 113.8 143.618C113.8 143.618 112.145 143.736 108.717 143.027C105.29 142.318 103.044 141.254 103.044 141.254C103.044 141.254 102.807 138.772 102.807 138.299C102.807 137.826 103.28 136.644 103.398 135.699C103.516 134.753 103.044 125.533 102.098 120.687C101.153 115.84 99.3795 109.576 99.3795 106.266C99.3795 102.956 99.2614 91.254 99.2614 91.254C99.2614 91.254 102.217 89.1263 106.472 87.1171C110.727 85.1075 113.683 86.1715 113.683 86.1715L114.982 89.0086Z" fill="#778FDD" stroke="#263238" stroke-width="0.32" stroke-miterlimit="10" stroke-linecap="round" stroke-linejoin="round"/>
<path d="M108.044 86.4873C107.543 86.6527 107.019 86.8588 106.471 87.1174C103.668 88.4412 101.436 89.8124 100.234 90.5967L101.008 92.2639C101.008 92.2639 109.375 94.9497 113.507 94.4332C113.568 94.4255 113.626 94.4147 113.685 94.4057C114.413 91.3487 114.982 89.0089 114.982 89.0089L114.178 87.2537C113.702 86.9932 113.309 86.8134 113.094 86.7894C112.623 86.7366 110.348 86.6047 108.044 86.4873Z" fill="#263238" stroke="#263238" stroke-width="0.32" stroke-miterlimit="10" stroke-linecap="round" stroke-linejoin="round"/>
<path d="M116.754 140.9C116.754 140.9 115.217 142.673 112.971 143.737C110.725 144.8 109.661 145.982 109.78 146.81C109.898 147.637 111.198 147.755 113.444 147.874C115.69 147.992 123.61 147.637 124.91 147.637C126.21 147.637 127.274 147.283 127.274 146.219C127.274 145.155 127.037 142.436 127.037 142.436L116.754 140.9Z" fill="white" stroke="#263238" stroke-width="0.32" stroke-miterlimit="10" stroke-linecap="round" stroke-linejoin="round"/>
<path d="M121.482 146.692C117.302 146.692 111.687 146.452 109.823 146.367C109.776 146.523 109.76 146.672 109.78 146.81C109.898 147.638 111.198 147.756 113.444 147.874C115.69 147.992 123.61 147.637 124.91 147.637C126.083 147.637 127.06 147.347 127.241 146.509C125.986 146.6 124.074 146.692 121.482 146.692Z" fill="white" stroke="#263238" stroke-width="0.32" stroke-miterlimit="10" stroke-linecap="round" stroke-linejoin="round"/>
<path d="M127.983 89.0086C127.983 89.0086 123.61 106.976 123.61 108.394C123.61 109.812 127.747 116.314 127.865 121.396C127.983 126.479 126.092 136.408 126.446 137.472C126.801 138.535 127.392 139.245 127.274 140.19C127.156 141.136 126.801 143.618 126.801 143.618C126.801 143.618 125.147 143.736 121.718 143.027C118.29 142.318 116.045 141.254 116.045 141.254C116.045 141.254 115.808 138.772 115.808 138.299C115.808 137.826 116.281 136.644 116.399 135.699C116.517 134.753 116.045 125.533 115.099 120.687C114.154 115.84 112.38 109.576 112.38 106.266C112.38 102.956 112.262 91.254 112.262 91.254C112.262 91.254 115.218 89.1263 119.473 87.1171C123.728 85.1075 126.683 86.1715 126.683 86.1715L127.983 89.0086Z" fill="#778FDD" stroke="#263238" stroke-width="0.32" stroke-miterlimit="10" stroke-linecap="round" stroke-linejoin="round"/>
<path d="M124.074 85.9048C122.861 85.9649 121.286 86.2606 119.472 87.1173C115.217 89.1269 112.262 91.2542 112.262 91.2542C112.262 91.2542 112.275 92.6037 112.293 94.5141C113.045 94.6709 115.122 94.9803 119.085 94.7425C123.457 94.4801 126.193 93.628 126.932 93.372C127.011 93.0411 127.087 92.7221 127.16 92.4174L127.245 88.3381C127.245 88.3381 125.281 86.7201 124.074 85.9048Z" fill="#263238" stroke="#263238" stroke-width="0.32" stroke-miterlimit="10" stroke-linecap="round" stroke-linejoin="round"/>
<path d="M102.546 51.9891C102.546 51.9891 99.6659 52.8691 98.9459 53.3491C98.2259 53.8291 97.1059 57.5891 96.7859 58.4691C96.4659 59.3491 94.7859 63.9091 94.7859 63.9091L97.5059 64.4691C97.5059 64.4691 97.4259 67.1891 97.8259 68.3091C98.2259 69.4291 101.106 72.7891 101.106 72.7891L102.146 75.5891L101.026 91.1091C101.026 91.1091 105.106 93.2691 111.986 93.9091C118.866 94.5491 123.586 93.9091 124.146 93.5891C124.706 93.2691 125.186 93.1091 125.186 93.1091L125.666 90.8691L126.386 92.9491C126.386 92.9491 128.066 92.7891 129.026 92.3891C129.986 91.9891 131.426 91.1891 131.426 91.1891C131.426 91.1891 128.466 79.9891 127.186 76.9491C125.906 73.9091 123.746 69.1891 123.746 69.1891C123.746 69.1891 122.786 58.2291 120.866 54.5491C118.946 50.8691 115.346 49.9091 112.786 49.6691C110.226 49.4291 102.546 51.9891 102.546 51.9891Z" fill="#778FDD" stroke="#263238" stroke-width="0.32" stroke-miterlimit="10" stroke-linecap="round" stroke-linejoin="round"/>
<path d="M101.754 52.3829C101.754 52.3829 100.866 55.2447 100.866 58.0076L101.754 52.3829Z" fill="white"/>
<path d="M101.754 52.3829C101.754 52.3829 100.866 55.2447 100.866 58.0076" stroke="#263238" stroke-width="0.64" stroke-miterlimit="10" stroke-linecap="round" stroke-linejoin="round"/>
<path d="M101.261 70.0707C101.228 70.0707 101.194 70.0652 101.16 70.0543C101.139 70.0473 100.93 69.9759 100.663 69.8246C100.517 69.9193 100.401 69.9894 100.338 70.0265C100.185 70.1164 99.9888 70.0652 99.8998 69.9129C99.8102 69.7606 99.8608 69.5644 100.013 69.4748C100.043 69.4575 100.072 69.4399 100.102 69.4217C99.8381 69.1814 99.5955 68.8652 99.4742 68.4611C99.1683 67.4409 98.9504 58.831 99.5094 57.9366C99.8217 57.4371 100.427 57.19 100.984 57.334C101.316 57.4204 102.098 57.7827 102.173 59.2742C102.264 61.1129 102.376 67.3625 102.268 68.118C102.206 68.5567 101.725 69.0326 101.253 69.4035C101.32 69.4323 101.361 69.4463 101.363 69.4473C101.53 69.5039 101.62 69.6854 101.564 69.8524C101.519 69.9862 101.394 70.0707 101.261 70.0707ZM100.659 57.9327C100.421 57.9327 100.187 58.0604 100.052 58.2758C99.6493 58.9692 99.7958 67.3052 100.087 68.2771C100.187 68.6095 100.417 68.8652 100.655 69.0518C101.169 68.6761 101.601 68.2643 101.635 68.0278C101.73 67.3587 101.632 61.2803 101.533 59.3065C101.496 58.5545 101.237 58.0614 100.822 57.9535C100.769 57.9398 100.714 57.9327 100.659 57.9327Z" fill="white" stroke="#263238" stroke-width="0.32" stroke-miterlimit="10" stroke-linecap="round" stroke-linejoin="round"/>
<path d="M100.102 69.4216L100.663 69.8242C100.663 69.8242 100.19 70.2072 99.8922 70.2668C99.5939 70.3266 99.3568 70.0674 100.102 69.4216Z" fill="#263238" stroke="#263238" stroke-width="0.32" stroke-miterlimit="10" stroke-linecap="round" stroke-linejoin="round"/>
<path d="M101.253 69.4034L100.662 69.8242C100.662 69.8242 101.264 70.6249 101.92 70.3266C102.576 70.0284 101.253 69.4034 101.253 69.4034Z" fill="#263238" stroke="#263238" stroke-width="0.32" stroke-miterlimit="10" stroke-linecap="round" stroke-linejoin="round"/>
<path d="M109.748 49.6198C109.748 49.6198 108.465 56.0338 108.465 61.0665" stroke="#263238" stroke-width="0.64" stroke-miterlimit="10" stroke-linecap="round" stroke-linejoin="round"/>
<path d="M109.945 62.2507C109.945 63.5042 109.216 64.5205 108.317 64.5205C107.418 64.5205 106.689 63.5042 106.689 62.2507C106.689 60.9973 107.418 59.981 108.317 59.981C109.216 59.9813 109.945 60.9973 109.945 62.2507Z" fill="white" stroke="#263238" stroke-width="0.32" stroke-miterlimit="10" stroke-linecap="round" stroke-linejoin="round"/>
<path d="M108.761 61.9547C108.761 62.7525 108.297 63.3992 107.724 63.3992C107.152 63.3992 106.688 62.7525 106.688 61.9547C106.688 61.157 107.152 60.5103 107.724 60.5103C108.297 60.5106 108.761 61.157 108.761 61.9547Z" fill="white" stroke="#263238" stroke-width="0.32" stroke-miterlimit="10" stroke-linecap="round" stroke-linejoin="round"/>
<path d="M124.572 58.069L122.146 60.469L120.786 57.989L124.572 58.069Z" fill="#263238" stroke="#263238" stroke-width="0.32" stroke-miterlimit="10" stroke-linecap="round" stroke-linejoin="round"/>
<path d="M114.012 60.0956L114.972 68.5222C114.972 68.5222 101.106 71.1887 99.6125 71.0822C98.119 70.9756 96.519 70.9756 94.3859 71.9356C92.2525 72.8956 91.1859 73.429 91.2925 73.9622C91.399 74.4956 92.359 76.2022 92.359 76.2022C92.359 76.2022 94.1725 76.3087 94.279 75.9887C94.3856 75.6687 94.3856 75.2422 94.3856 75.2422C94.3856 75.2422 96.3056 75.3487 97.159 74.9222C98.0125 74.4956 98.6525 73.8556 98.6525 73.8556C98.6525 73.8556 109.852 74.709 114.119 74.8156C118.386 74.9221 123.292 74.6021 123.826 73.8556C124.359 73.109 121.906 57.8556 121.906 57.8556L114.012 60.0956Z" fill="white" stroke="#263238" stroke-width="0.32" stroke-miterlimit="10" stroke-linecap="round" stroke-linejoin="round"/>
<path d="M114.972 68.5225C114.972 68.5225 119.281 66.9791 121.683 67.9135" stroke="#263238" stroke-width="0.32" stroke-miterlimit="10" stroke-linecap="round" stroke-linejoin="round"/>
<path d="M99.6125 71.0826L99.8611 73.9197L101.129 74.1197L100.862 70.9165L99.6125 71.0826Z" fill="white" stroke="#263238" stroke-width="0.32" stroke-miterlimit="10" stroke-linecap="round" stroke-linejoin="round"/>
<path d="M101.328 70.8566C101.345 71.151 100.912 71.4163 100.36 71.4496C99.8083 71.4829 99.3469 71.271 99.3293 70.9766C99.3117 70.6822 99.7446 70.417 100.297 70.3837C100.848 70.3504 101.31 70.5622 101.328 70.8566Z" fill="white" stroke="#263238" stroke-width="0.32" stroke-miterlimit="10" stroke-linecap="round" stroke-linejoin="round"/>
<path d="M94.3859 75.2425L93.2547 74.9205" stroke="#263238" stroke-width="0.32" stroke-miterlimit="10" stroke-linecap="round" stroke-linejoin="round"/>
<path d="M113.159 55.2956L113.693 61.3756L124.573 58.0691C124.573 58.0691 120.946 51.7756 118.919 50.1756C116.893 48.5756 112.733 49.9622 112.199 50.3891" fill="#778FDD"/>
<path d="M113.159 55.2956L113.693 61.3756L124.573 58.0691C124.573 58.0691 120.946 51.7756 118.919 50.1756C116.893 48.5756 112.733 49.9622 112.199 50.3891" stroke="#263238" stroke-width="0.32" stroke-miterlimit="10" stroke-linecap="round" stroke-linejoin="round"/>
<path d="M92.3859 35.109C92.3859 35.109 88.4659 38.789 90.0659 40.549C91.6659 42.309 93.9059 43.429 94.2259 45.429C94.5459 47.429 95.1859 48.629 94.3059 50.389C93.4259 52.149 92.7859 52.549 92.7859 52.549C92.7859 52.549 96.5459 54.469 98.9459 54.309C101.346 54.149 104.786 51.429 104.786 51.429C104.786 51.429 110.386 51.349 112.866 49.189C115.346 47.029 115.266 43.349 114.226 40.789C113.186 38.229 109.586 35.189 107.826 33.269C106.066 31.349 102.626 30.069 99.0259 30.469C95.4259 30.869 92.3859 35.109 92.3859 35.109Z" fill="#263238" stroke="#263238" stroke-width="0.32" stroke-miterlimit="10" stroke-linecap="round" stroke-linejoin="round"/>
<path d="M101.426 52.2291C101.426 52.2291 102.146 54.0691 102.626 55.7491C103.106 57.4291 104.386 61.6691 104.386 61.4291C104.386 61.1891 106.946 54.7891 107.586 52.9491C108.226 51.1091 108.306 49.5891 108.306 49.5891L106.146 44.5491C106.146 44.5491 105.186 46.8691 103.266 48.5491C101.346 50.2291 100.866 51.0291 100.866 51.0291L101.426 52.2291Z" fill="white" stroke="#263238" stroke-width="0.32" stroke-miterlimit="10" stroke-linecap="round" stroke-linejoin="round"/>
<path d="M101.798 52.9523C101.798 52.9523 105.104 52.0224 106.55 50.7827C107.996 49.543 108.1 49.2329 108.1 49.2329L106.344 45.927L101.798 52.9523Z" fill="#263238" stroke="#263238" stroke-width="0.32" stroke-miterlimit="10" stroke-linecap="round" stroke-linejoin="round"/>
<path d="M92.8659 41.509C92.8659 41.509 94.3059 45.109 94.5459 46.149C94.7859 47.189 95.6659 49.189 97.0259 50.389C98.3859 51.589 99.2659 53.189 101.426 52.869C103.586 52.549 106.226 48.709 106.706 47.509C107.186 46.309 106.066 43.029 106.066 42.629C106.066 42.229 105.666 42.069 105.666 42.069C105.666 42.069 101.826 43.589 99.1859 42.469C96.5459 41.349 94.2259 39.509 94.2259 39.509L92.8659 41.509Z" fill="white" stroke="#263238" stroke-width="0.32" stroke-miterlimit="10" stroke-linecap="round" stroke-linejoin="round"/>
<path d="M103.826 43.4291C103.826 43.4291 104.866 40.7091 106.386 41.0291C107.906 41.3491 107.746 43.9891 106.946 44.9491C106.146 45.9091 105.506 45.4291 105.506 45.4291" fill="white"/>
<path d="M103.826 43.4291C103.826 43.4291 104.866 40.7091 106.386 41.0291C107.906 41.3491 107.746 43.9891 106.946 44.9491C106.146 45.9091 105.506 45.4291 105.506 45.4291" stroke="#263238" stroke-width="0.32" stroke-miterlimit="10" stroke-linecap="round" stroke-linejoin="round"/>
<path d="M97.2659 44.149C97.2659 44.149 97.4259 44.869 97.4259 45.669C97.4259 46.469 97.0259 47.749 97.7459 48.069C98.4659 48.389 99.5059 48.069 99.7459 47.669" stroke="#263238" stroke-width="0.32" stroke-miterlimit="10" stroke-linecap="round" stroke-linejoin="round"/>
<path d="M98.6259 49.269C98.6259 49.269 100.786 49.749 101.986 47.269" stroke="#263238" stroke-width="0.32" stroke-miterlimit="10" stroke-linecap="round" stroke-linejoin="round"/>
<path d="M99.5859 44.709C99.5859 44.709 100.866 45.269 101.826 43.989" stroke="#263238" stroke-width="0.32" stroke-miterlimit="10" stroke-linecap="round" stroke-linejoin="round"/>
<path d="M95.2659 45.2691C95.2659 45.2691 96.3059 45.7491 96.9459 45.0291" stroke="#263238" stroke-width="0.32" stroke-miterlimit="10" stroke-linecap="round" stroke-linejoin="round"/>
<path d="M96.8659 43.7491C96.8659 43.7491 95.8259 43.0291 94.9459 43.9091" stroke="#263238" stroke-width="0.32" stroke-miterlimit="10" stroke-linecap="round" stroke-linejoin="round"/>
<path d="M98.3059 42.949C98.3059 42.949 98.7859 42.149 100.306 42.309" stroke="#263238" stroke-width="0.32" stroke-miterlimit="10" stroke-linecap="round" stroke-linejoin="round"/>
<path d="M83.1181 63.8662C83.1181 63.8662 85.9981 64.5062 86.9581 68.2396C87.9181 71.9731 92.6006 87.0304 92.6006 87.0304C92.6006 87.0304 97.5578 89.8627 99.0512 90.0761C100.545 90.2896 101.825 90.3961 101.931 91.9961C102.038 93.5961 101.611 96.1561 100.758 96.5827C99.9043 97.0093 96.7043 97.0093 94.3578 96.9027C92.0112 96.7961 90.5178 96.2627 89.2378 95.4093C87.9578 94.5558 86.5712 86.1293 85.0778 82.0758C83.5843 78.0224 80.5581 69.6259 80.8781 67.4925C81.1981 65.3597 82.0515 63.8662 83.1181 63.8662Z" fill="#778FDD" stroke="#263238" stroke-width="0.32" stroke-miterlimit="10" stroke-linecap="round" stroke-linejoin="round"/>
<path d="M94.3952 98.8741L92.3347 98.7189C88.8358 98.4555 85.864 101.248 85.9101 104.757L86.2934 146.317C86.2995 146.977 86.8362 147.509 87.4963 147.509H93.2509H106.319L111.157 98.7186L94.3952 98.8741Z" fill="#222222" stroke="#263238" stroke-width="0.32" stroke-miterlimit="10" stroke-linecap="round" stroke-linejoin="round"/>
<path d="M106.319 147.509C105.659 147.509 105.122 146.977 105.116 146.317L104.732 104.757C104.686 101.249 107.658 98.4559 111.157 98.7192L113.218 98.8744C116.643 99.1324 119.146 102.217 118.693 105.622L113.266 146.465C113.187 147.063 112.676 147.51 112.074 147.51H106.319V147.509Z" fill="#666666" stroke="#263238" stroke-width="0.32" stroke-miterlimit="10" stroke-linecap="round" stroke-linejoin="round"/>
<path d="M102.759 147.509H62.7594V108.149H98.9193C101.04 108.149 102.759 109.868 102.759 111.989V147.509Z" fill="#666666" stroke="#263238" stroke-width="0.32" stroke-miterlimit="10" stroke-linecap="round" stroke-linejoin="round"/>
<path d="M102.919 121.749H65.1593" stroke="#263238" stroke-width="0.32" stroke-miterlimit="10" stroke-linecap="round" stroke-linejoin="round"/>
<path d="M87.4525 92.8425L89.159 94.6559C89.159 94.6559 94.4925 94.7625 99.8256 97.0025C105.159 99.2425 111.986 101.909 112.412 105.002C112.839 108.096 107.186 125.482 106.226 129.749C105.266 134.016 105.159 135.509 105.159 135.509C105.159 135.509 106.119 136.362 105.906 137.109C105.692 137.856 104.519 141.482 104.519 141.482C104.519 141.482 101.852 142.122 99.399 142.229C96.9456 142.336 94.1725 141.802 94.1725 141.802C94.1725 141.802 93.8525 138.176 94.1725 137.322C94.4925 136.469 95.6659 135.509 95.7725 134.869C95.879 134.229 96.3059 124.096 96.3059 120.149C96.3059 116.202 98.5459 109.909 98.5459 109.909C98.5459 109.909 87.9859 109.482 84.8925 109.162C81.799 108.842 74.3325 101.696 74.119 98.1759C73.9059 94.6556 82.3325 90.8156 87.4525 92.8425Z" fill="#263238" stroke="#263238" stroke-width="0.32" stroke-miterlimit="10" stroke-linecap="round" stroke-linejoin="round"/>
<path d="M104.626 140.203C104.626 140.203 103.666 138.389 102.492 139.243C101.319 140.096 101.106 141.269 100.466 141.269C99.8259 141.269 94.1725 140.203 94.1725 140.203C94.1725 140.203 92.6791 146.069 93.2125 146.709C93.7459 147.349 98.6525 147.883 100.786 148.203C102.919 148.523 107.612 149.696 110.706 149.696C113.799 149.696 113.266 147.456 112.519 146.709C111.773 145.963 106.439 143.083 105.693 142.123C104.946 141.163 104.626 140.203 104.626 140.203Z" fill="white" stroke="#263238" stroke-width="0.32" stroke-miterlimit="10" stroke-linecap="round" stroke-linejoin="round"/>
<path d="M113.08 148.329C112.227 148.512 110.853 148.736 109.212 148.736C106.439 148.736 104.199 147.669 100.679 147.029C97.9094 146.525 94.481 145.692 93.1443 145.36C93.0726 146.03 93.0749 146.544 93.2122 146.709C93.7456 147.349 98.6522 147.882 100.786 148.202C102.919 148.522 107.612 149.696 110.706 149.696C112.372 149.696 112.985 149.046 113.08 148.329Z" fill="white" stroke="#263238" stroke-width="0.32" stroke-miterlimit="10" stroke-linecap="round" stroke-linejoin="round"/>
<path d="M65.4794 62.9757C65.4794 62.9757 59.0794 65.4291 56.7328 67.0291C54.3862 68.6291 55.8794 74.7091 55.8794 78.1225C55.8794 81.536 55.2394 90.7091 55.1328 92.5225C55.0262 94.336 57.3728 96.7891 58.9728 97.7491C60.5728 98.7091 74.2262 99.2425 77.8528 99.2425C81.4794 99.2425 89.2662 96.896 88.6262 89.9625C87.9862 83.0291 85.7462 77.696 85.4262 76.5225C85.1062 75.3491 84.9997 71.5091 85.1062 70.4425C85.2128 69.376 86.0662 66.176 84.4662 64.6825C82.8662 63.1891 76.1462 61.4825 73.0528 61.5891C69.9594 61.6957 65.4794 62.9757 65.4794 62.9757Z" fill="#778FDD" stroke="#263238" stroke-width="0.32" stroke-miterlimit="10" stroke-linecap="round" stroke-linejoin="round"/>
<path d="M66.3165 70.0061C66.472 70.4445 66.6979 70.8503 66.9869 71.2151C67.4819 71.8404 68.4192 72.9524 69.8813 74.4144C72.2093 76.7424 75.8672 78.2944 75.8672 78.2944C75.8672 78.2944 77.0867 71.865 77.3081 68.9828C77.5299 66.1005 75.9779 63.7725 73.4281 62.8858C70.8784 61.9991 66.2227 62.9965 65.5574 64.7703C65.055 66.1108 65.8829 68.7821 66.3165 70.0061Z" fill="white" stroke="#263238" stroke-width="0.32" stroke-miterlimit="10" stroke-linecap="round" stroke-linejoin="round"/>
<path d="M66.6665 61.0009C66.6665 61.0009 66.3894 61.0009 66.0429 61.1673C65.6963 61.3337 65.2806 61.6662 65.0035 62.3311C64.4493 63.6614 64.0058 65.1023 64.0058 65.1023C64.0058 65.1023 64.3382 67.0975 65.336 69.9798C66.3338 72.862 66.5555 74.6354 66.5555 74.6354C66.5555 74.6354 70.5462 71.6425 71.3222 70.9772C72.0982 70.3122 73.6502 69.5362 73.6502 69.5362C73.6502 69.5362 76.3107 70.8665 77.5302 71.6425C78.7498 72.4185 79.7472 73.0834 79.7472 73.0834C79.7472 73.0834 79.6365 69.9794 78.4169 66.654C77.1974 63.3282 76.6432 62.3308 75.9782 61.6655C75.313 61.0009 70.2137 59.1164 66.6665 61.0009Z" fill="white" stroke="#263238" stroke-width="0.32" stroke-miterlimit="10" stroke-linecap="round" stroke-linejoin="round"/>
<path d="M75.8294 45.1151C75.8294 45.1151 76.6176 44.1068 77.0714 44.9013C77.5251 45.6956 77.9792 46.1496 77.9792 46.1496C77.9792 46.1496 78.887 46.6037 79.0006 47.398C79.1142 48.1922 79.1142 48.5327 79.1142 48.8732C79.1142 49.2136 80.1357 49.4405 80.1357 50.0079C80.1357 50.5752 79.5683 50.8021 79.4547 51.3698C79.3411 51.9372 79.8301 52.4392 79.3411 53.1855C78.8522 53.9317 79.385 53.6565 78.8522 53.9317C78.3197 54.2069 77.7523 54.5474 77.7523 54.5474L75.1421 45.9228L75.8294 45.1151Z" fill="#E4EEFB" stroke="#8790A9" stroke-width="0.32" stroke-miterlimit="10" stroke-linecap="round" stroke-linejoin="round"/>
<path d="M67.2646 41.2105C67.2646 41.2105 64.2419 42.0921 62.9824 44.6111C61.7229 47.1302 61.5968 49.0194 62.2265 51.1606C62.8563 53.3017 65.2493 59.3474 66.0051 61.1106C66.7609 62.8738 67.0128 66.1487 68.5241 68.1638C70.0355 70.1791 73.688 71.9423 73.688 71.9423C73.688 71.9423 76.4589 68.1638 76.9629 66.2745C77.4665 64.3852 76.4592 60.6066 76.4592 60.6066C76.4592 60.6066 79.2301 57.206 78.8521 53.9311C78.4742 50.6562 76.4592 46.374 75.8294 45.1145C75.1997 43.8556 72.9325 39.951 67.2646 41.2105Z" fill="white" stroke="#263238" stroke-width="0.32" stroke-miterlimit="10" stroke-linecap="round" stroke-linejoin="round"/>
<path d="M69.4377 46.2572C69.4377 46.2572 71.6547 45.1487 73.096 45.4812" stroke="#263238" stroke-width="0.32" stroke-miterlimit="10" stroke-linecap="round" stroke-linejoin="round"/>
<path d="M68.551 45.814C68.551 45.814 70.5462 44.8163 71.9875 44.8163" stroke="#263238" stroke-width="0.32" stroke-miterlimit="10" stroke-linecap="round" stroke-linejoin="round"/>
<path d="M76.4592 60.6069C76.4592 60.6069 74.7587 61.6658 73.207 61.6658C71.655 61.6658 68.7728 60.4463 67.8861 59.5596C67.8861 59.5596 70.5117 62.5673 73.303 63.3189C76.0944 64.0706 76.8461 62.8895 76.8461 62.8895L76.4592 60.6069Z" fill="#263238" stroke="#263238" stroke-width="0.32" stroke-miterlimit="10" stroke-linecap="round" stroke-linejoin="round"/>
<path d="M62.8861 54.0933C62.8861 54.0933 62.9878 54.0338 63.1338 53.9266C63.5206 53.6418 64.217 53.0194 64.1344 52.2776C64.0208 51.2562 64.1344 50.6888 63.567 49.8946C62.9997 49.1004 62.0918 47.398 62.0918 47.398C62.0918 47.398 60.9571 47.2844 60.1626 47.852C59.3683 48.4194 59.5952 48.8735 59.3683 49.6677C59.1414 50.462 58.5741 49.8946 58.2336 51.0296C57.8931 52.1644 58.3472 52.8453 58.801 53.0722C59.255 53.2991 58.9146 53.98 58.9146 55.0015C58.9146 56.0229 59.936 56.4767 60.2765 56.4767C60.617 56.4767 60.7306 56.9308 61.1843 57.3845C61.6384 57.8386 63.1088 57.3324 63.1088 57.3324C63.1088 57.3324 63.7942 56.9304 63.9078 56.4767C64.0208 56.0226 62.8861 54.0933 62.8861 54.0933Z" fill="#E4EEFB" stroke="#8790A9" stroke-width="0.32" stroke-miterlimit="10" stroke-linecap="round" stroke-linejoin="round"/>
<path d="M63.864 53.9317C63.864 53.9317 62.3526 51.9164 61.3449 53.0501C60.3373 54.1836 62.1008 56.9548 63.1081 57.3324C64.1158 57.7103 65.3753 56.7026 65.3753 56.7026" fill="white"/>
<path d="M63.864 53.9317C63.864 53.9317 62.3526 51.9164 61.3449 53.0501C60.3373 54.1836 62.1008 56.9548 63.1081 57.3324C64.1158 57.7103 65.3753 56.7026 65.3753 56.7026" stroke="#263238" stroke-width="0.32" stroke-miterlimit="10" stroke-linecap="round" stroke-linejoin="round"/>
<path d="M73.0585 47.886C73.0585 47.886 72.9325 49.0194 73.1846 49.3973C73.4368 49.7753 74.9478 50.405 74.696 51.5385C74.4441 52.6719 72.9328 53.6796 72.1769 52.6719" stroke="#263238" stroke-width="0.32" stroke-miterlimit="10" stroke-linecap="round" stroke-linejoin="round"/>
<path d="M71.1693 54.6873C71.1693 54.6873 73.5622 55.4431 75.1997 53.302" stroke="#263238" stroke-width="0.32" stroke-miterlimit="10" stroke-linecap="round" stroke-linejoin="round"/>
<path d="M67.3907 49.4784C67.3558 49.4784 67.3203 49.4729 67.2854 49.4611C67.1114 49.4029 67.017 49.2147 67.0752 49.0403C67.6387 47.3497 69.7776 47.0637 69.8685 47.0525C70.0531 47.0307 70.2163 47.1587 70.2394 47.3408C70.2624 47.5225 70.1334 47.6889 69.9517 47.7123C69.9334 47.7145 68.1363 47.96 67.7062 49.2509C67.6598 49.3901 67.5299 49.4784 67.3907 49.4784Z" fill="#E4EEFB" stroke="#8790A9" stroke-width="0.32" stroke-miterlimit="10" stroke-linecap="round" stroke-linejoin="round"/>
<path d="M75.5776 47.3824C75.4925 47.3824 75.4073 47.3498 75.3424 47.2848C74.5213 46.464 73.5005 46.9488 73.4576 46.97C73.2934 47.0503 73.0941 46.9831 73.0128 46.8189C72.9318 46.6548 72.9977 46.4564 73.1616 46.3744C73.6713 46.1197 74.8816 45.8836 75.8128 46.8148C75.9427 46.9447 75.9427 47.1552 75.8128 47.2852C75.7478 47.3498 75.6627 47.3824 75.5776 47.3824Z" fill="#E4EEFB" stroke="#8790A9" stroke-width="0.32" stroke-miterlimit="10" stroke-linecap="round" stroke-linejoin="round"/>
<path d="M70.9174 50.9087C70.9174 50.9087 70.7913 52.2943 69.4061 53.1759" stroke="#263238" stroke-width="0.32" stroke-miterlimit="10" stroke-linecap="round" stroke-linejoin="round"/>
<path d="M74.8217 50.2789C74.8217 50.2789 75.8294 51.0348 77.0889 51.1605" stroke="#263238" stroke-width="0.32" stroke-miterlimit="10" stroke-linecap="round" stroke-linejoin="round"/>
<path d="M70.0832 50.4988C70.1945 50.8995 70.1017 51.2748 69.8765 51.3375C69.6512 51.3999 69.3782 51.126 69.2669 50.7254C69.1558 50.3247 69.2483 49.9494 69.4736 49.8867C69.6992 49.8243 69.9718 50.0982 70.0832 50.4988Z" fill="#263238"/>
<path d="M75.0995 49.0739C75.2109 49.4745 75.1181 49.8499 74.8928 49.9126C74.6675 49.975 74.3946 49.7011 74.2835 49.3004C74.1722 48.8998 74.265 48.5244 74.4902 48.4617C74.7152 48.399 74.9882 48.6732 75.0995 49.0739Z" fill="#263238"/>
<path d="M70.1347 49.5532L68.5229 50.6278" stroke="#263238" stroke-width="0.32" stroke-miterlimit="10" stroke-linecap="round" stroke-linejoin="round"/>
<path d="M73.9722 48.6322L75.7376 48.5554" stroke="#263238" stroke-width="0.32" stroke-miterlimit="10" stroke-linecap="round" stroke-linejoin="round"/>
<path d="M108.046 93.894C108.046 93.894 110.413 94.9583 110.848 95.2649C111.283 95.5718 112.479 97.4386 112.58 98.0217C112.681 98.6047 112.558 98.8441 112.195 98.6342C111.831 98.4242 110.798 97.1839 109.997 96.3401C109.196 95.4962 108.176 94.9631 107.925 94.4607C107.675 93.9583 107.647 93.7993 108.046 93.894Z" fill="white" stroke="#263238" stroke-width="0.32" stroke-miterlimit="10" stroke-linecap="round" stroke-linejoin="round"/>
<path d="M100.95 91.3599C100.95 91.3599 104.851 92.6338 106.221 93.0463C107.591 93.4587 108.596 94.2594 108.984 94.6251C109.372 94.9909 111.526 97.4328 111.758 98.1506C111.991 98.8683 112.318 100.76 111.916 100.938C111.513 101.116 111.107 100.645 110.929 100.242C110.751 99.8402 110.204 99.1771 110.204 99.1771C110.204 99.1771 110.687 100.717 110.604 101.489C110.521 102.262 110.278 102.736 109.648 102.846C109.017 102.955 108.292 101.889 107.795 100.893C107.298 99.8965 106.645 99.2517 106.645 99.2517L105.115 98.5419C105.115 98.5419 105.561 99.8719 106.145 100.745C106.729 101.618 107.414 101.825 107.172 102.3C106.929 102.775 105.755 102.87 105.207 102.207C104.66 101.544 103.779 100.83 103.3 99.9384C102.82 99.0469 101.649 96.6517 101.649 96.6517L98.5238 96.1096C98.5238 96.1096 96.6966 95.5595 96.5798 93.6312C96.4627 91.7029 100.105 90.8565 100.95 91.3599Z" fill="white" stroke="#263238" stroke-width="0.32" stroke-miterlimit="10" stroke-linecap="round" stroke-linejoin="round"/>
<path d="M107.336 97.6166C107.336 97.6166 108.732 99.4319 109.193 100.218C109.654 101.004 109.648 102.846 109.648 102.846" stroke="#263238" stroke-width="0.32" stroke-miterlimit="10" stroke-linecap="round" stroke-linejoin="round"/>
<path d="M110.204 99.1774L108.959 96.3615" stroke="#263238" stroke-width="0.32" stroke-miterlimit="10" stroke-linecap="round" stroke-linejoin="round"/>
<path d="M69.4259 97.9624C69.4259 97.9624 76.5725 97.109 80.1993 98.389C83.8259 99.669 87.3459 104.149 87.3459 107.882C87.3459 111.616 86.5993 132.096 86.8125 132.629C87.0259 133.162 88.199 133.269 88.199 134.336C88.199 135.402 87.3456 140.949 87.3456 140.949C87.3456 140.949 82.3321 142.762 80.6256 142.762C78.919 142.762 78.919 142.762 78.919 142.762C78.919 142.762 76.4656 136.256 76.5725 135.189C76.679 134.122 77.319 133.269 77.319 132.736C77.319 132.202 74.2256 121.002 74.2256 117.696C74.2256 114.389 74.2256 110.336 74.2256 110.336L68.2521 109.056C68.2521 109.056 65.5859 101.482 69.4259 97.9624Z" fill="#263238" stroke="#263238" stroke-width="0.32" stroke-miterlimit="10" stroke-linecap="round" stroke-linejoin="round"/>
<path d="M91.7193 145.749C91.7193 145.749 88.5193 142.016 87.2393 139.989C85.9593 137.963 83.6128 136.789 82.2259 137.856C80.8393 138.922 80.8393 141.589 80.8393 141.589L78.4928 141.163C78.4928 141.163 79.3462 144.043 79.7728 145.643C80.1993 147.243 80.8393 148.309 83.6128 148.736C86.3862 149.163 90.9728 149.483 92.2528 148.203C93.5328 146.923 91.7193 145.749 91.7193 145.749Z" fill="white" stroke="#263238" stroke-width="0.32" stroke-miterlimit="10" stroke-linecap="round" stroke-linejoin="round"/>
<path d="M92.2524 148.202C92.7702 147.685 92.7785 147.186 92.6086 146.773C92.126 147.051 91.5155 147.359 90.759 147.669C88.4124 148.629 85.2124 148.415 82.5456 147.562C81.2192 147.138 80.3948 146.555 79.9008 146.077C80.3388 147.435 81.0992 148.349 83.6124 148.736C86.3859 149.162 90.9724 149.482 92.2524 148.202Z" fill="white" stroke="#263238" stroke-width="0.32" stroke-miterlimit="10" stroke-linecap="round" stroke-linejoin="round"/>
<path d="M95.9088 91.98C95.9088 91.98 95.6979 94.5109 95.6275 95.284C95.5571 96.0571 95.9789 96.971 96.2602 97.1118C96.5414 97.2523 96.6819 96.9713 96.6819 96.3384C96.6819 95.7057 96.6819 95.4949 96.6819 95.284C96.6822 95.0731 95.9088 91.98 95.9088 91.98Z" fill="white" stroke="#263238" stroke-width="0.32" stroke-miterlimit="10" stroke-linecap="round" stroke-linejoin="round"/>
<path d="M100.114 86.7861C100.114 85.6872 101.579 83.3669 101.579 83.3669L102.146 75.589L101.764 74.0844C101.113 74.0376 100.532 73.9954 100.055 73.9602C99.3789 76.2268 97.0083 84.1884 96.6947 85.4428C96.3283 86.908 95.9619 89.9608 95.9619 90.5714C95.9619 91.182 95.9619 93.9906 96.2061 95.0895C96.4502 96.1884 98.1597 97.2876 98.1597 97.2876C98.1597 97.2876 100.463 97.2856 100.829 97.0415C101.196 96.7973 100.267 95.9871 100.267 95.9871C100.129 95.99 99.7248 92.974 100.602 92.037C101.298 91.2924 103.288 92.1592 103.288 92.1592C103.288 92.1592 102.8 90.8159 102.189 89.5951C101.579 88.3736 100.114 87.885 100.114 86.7861Z" fill="white" stroke="#263238" stroke-width="0.32" stroke-miterlimit="10" stroke-linecap="round" stroke-linejoin="round"/>
<path d="M100.478 97.2523C100.478 97.2523 98.6506 96.268 98.4397 95.8462C98.2288 95.4245 98.1584 92.1906 98.1584 92.1906" stroke="#263238" stroke-width="0.32" stroke-miterlimit="10" stroke-linecap="round" stroke-linejoin="round"/>
<path d="M98.5802 97.2523C98.5802 97.2523 97.104 95.7057 97.104 95.1432C97.104 94.5806 96.7526 92.1906 96.7526 92.1906" stroke="#263238" stroke-width="0.32" stroke-miterlimit="10" stroke-linecap="round" stroke-linejoin="round"/>
<path d="M63.6288 98.8742L51.4346 98.7302C51.1245 98.7046 50.8099 98.695 50.489 98.719L48.4288 98.8742C45.0038 99.1321 42.5005 102.217 42.953 105.621L48.3808 146.465C48.4602 147.063 48.9702 147.509 49.5731 147.509H55.3277H64.7731L63.6288 98.8742Z" fill="#222222" stroke="#263238" stroke-width="0.32" stroke-miterlimit="10" stroke-linecap="round" stroke-linejoin="round"/>
<path d="M70.5274 147.509C71.1875 147.509 71.7242 146.977 71.7302 146.317L72.1136 104.757C72.1597 101.249 69.1878 98.456 65.689 98.7194L63.6288 98.8746C60.2038 99.1325 57.7005 102.217 58.153 105.622L63.5808 146.465C63.6602 147.063 64.1702 147.51 64.7731 147.51H70.5274V147.509Z" fill="#666666" stroke="#263238" stroke-width="0.32" stroke-miterlimit="10" stroke-linecap="round" stroke-linejoin="round"/>
<path d="M59.7194 65.8556C59.7194 65.8556 55.2394 65.9622 53.5328 68.5222C51.8262 71.0822 50.4394 79.8287 50.1194 82.0687C49.7994 84.3087 48.4128 92.2022 48.9459 93.6953C49.4794 95.1887 50.8659 95.4018 53.4259 95.5087C55.9859 95.6153 57.1594 94.2287 57.6925 92.6287C58.2259 91.0287 59.6125 76.0953 59.6125 76.0953" fill="#778FDD"/>
<path d="M59.7194 65.8556C59.7194 65.8556 55.2394 65.9622 53.5328 68.5222C51.8262 71.0822 50.4394 79.8287 50.1194 82.0687C49.7994 84.3087 48.4128 92.2022 48.9459 93.6953C49.4794 95.1887 50.8659 95.4018 53.4259 95.5087C55.9859 95.6153 57.1594 94.2287 57.6925 92.6287C58.2259 91.0287 59.6125 76.0953 59.6125 76.0953" stroke="#263238" stroke-width="0.32" stroke-miterlimit="10" stroke-linecap="round" stroke-linejoin="round"/>
<path d="M53.6394 88.3624C54.2794 88.5759 60.0394 89.9624 60.4659 91.1359C60.8925 92.3093 60.1459 92.9493 60.1459 92.9493C60.1459 92.9493 58.2259 97.5359 56.5194 97.9627C54.8128 98.3893 50.9728 97.2162 49.0528 96.3627C47.1328 95.5093 49.0528 89.0027 49.2662 88.6827" fill="#778FDD"/>
<path d="M53.6394 88.3624C54.2794 88.5759 60.0394 89.9624 60.4659 91.1359C60.8925 92.3093 60.1459 92.9493 60.1459 92.9493C60.1459 92.9493 58.2259 97.5359 56.5194 97.9627C54.8128 98.3893 50.9728 97.2162 49.0528 96.3627C47.1328 95.5093 49.0528 89.0027 49.2662 88.6827" stroke="#263238" stroke-width="0.32" stroke-miterlimit="10" stroke-linecap="round" stroke-linejoin="round"/>
<path d="M61.4259 94.229C61.4259 94.229 61.8525 93.589 61.3194 93.269C60.7859 92.949 59.9328 91.989 58.9728 91.989C58.0128 91.989 56.3062 92.8425 55.8794 94.6556C55.4528 96.469 55.7728 97.749 56.5194 97.9621C57.2659 98.1756 58.8659 98.6021 59.6128 98.6021C60.3594 98.6021 60.8928 97.0021 60.9994 96.6821C61.1059 96.3624 61.4259 94.229 61.4259 94.229Z" fill="#778FDD" stroke="#263238" stroke-width="0.32" stroke-miterlimit="10" stroke-linecap="round" stroke-linejoin="round"/>
<path d="M68.3593 94.869C68.3593 94.869 70.1728 97.109 71.0259 97.5356C71.8793 97.9621 72.6259 98.4956 71.9859 99.1356C71.3459 99.7756 69.8525 99.4556 69.2125 98.6021C68.5725 97.749 68.3593 94.869 68.3593 94.869Z" fill="white" stroke="#263238" stroke-width="0.32" stroke-miterlimit="10" stroke-linecap="round" stroke-linejoin="round"/>
<path d="M62.1725 94.229C62.1725 94.229 67.1859 93.4824 67.9325 93.4824C68.679 93.4824 69.8525 98.8159 69.959 99.669C70.0656 100.522 70.4925 101.056 69.959 101.482C69.4256 101.909 69.1056 101.909 69.1056 101.909C69.1056 101.909 68.4656 102.442 68.1456 102.549C67.8256 102.656 66.6522 102.442 66.6522 102.442C66.6522 102.442 66.5456 102.869 65.6922 102.762C64.8387 102.656 61.9587 99.029 61.9587 99.029C61.9587 99.029 59.8253 98.4955 58.9722 97.749C58.1187 97.0024 58.4387 95.7224 58.9722 94.869C59.5056 94.0155 60.6787 93.8024 60.6787 93.8024L62.1725 94.229Z" fill="white" stroke="#263238" stroke-width="0.32" stroke-miterlimit="10" stroke-linecap="round" stroke-linejoin="round"/>
<path d="M66.8659 95.9355L69.5325 101.696" stroke="#263238" stroke-width="0.32" stroke-miterlimit="10" stroke-linecap="round" stroke-linejoin="round"/>
<path d="M64.8394 96.8955L68.146 102.549" stroke="#263238" stroke-width="0.32" stroke-miterlimit="10" stroke-linecap="round" stroke-linejoin="round"/>
<path d="M66.6526 102.442L63.5595 97.9624" stroke="#263238" stroke-width="0.32" stroke-miterlimit="10" stroke-linecap="round" stroke-linejoin="round"/>
</svg>
