<svg width="16" height="17" viewBox="0 0 16 17" fill="none" xmlns="http://www.w3.org/2000/svg">
<path d="M9.9611 6.60908C9.82677 6.70526 9.73861 6.85162 9.71762 7.0147C9.69243 7.19033 9.64625 7.44541 9.5497 7.7214C9.46574 7.96393 8.941 8.72917 8.538 9.54041C8.07203 10.4729 7.7236 11.4472 7.7236 11.4472C7.7236 11.4472 7.329 12.7059 7.58507 13.7806C7.78657 14.6211 8.31131 15.1104 8.52961 15.286C8.58838 15.332 8.66814 15.3403 8.73111 15.3069C9.52032 14.8887 14.6208 12.0661 15.6871 8.2441C16.6526 4.7817 15.1245 2.87069 14.5914 2.33544C14.4277 2.17236 14.1758 2.12218 13.9743 2.23509C13.9407 2.25599 13.903 2.28108 13.8694 2.31036C13.7854 2.38981 13.7518 2.49017 13.7434 2.58216C13.7308 2.74106 13.7896 2.8916 13.882 3.01705C14.1842 3.41849 15.1371 4.89043 14.6082 7.00634C13.9869 9.50278 11.9383 10.6318 11.9383 10.6318C11.9383 10.6318 11.1869 11.0793 10.6789 10.5984C10.171 10.1175 10.511 8.82953 10.511 8.82953C10.511 8.82953 10.5572 8.66227 10.6328 8.47828C10.7503 8.19392 10.9056 7.80085 10.8007 7.34505C10.6915 6.88089 10.4439 6.67181 10.2675 6.57981C10.1794 6.52963 10.0535 6.54218 9.9611 6.60908Z" fill="#778FDD"/>
<path d="M14.2094 6.28711C13.9575 8.46156 12.3287 9.75787 11.9006 10.0631C11.9677 9.34807 11.9467 8.4072 11.5605 7.57924C10.956 6.27875 9.86036 5.35879 9.47835 5.06189C9.33562 4.94899 9.25166 4.76499 9.28944 4.58518C9.30203 4.53082 9.32302 4.48064 9.3608 4.42628C9.41958 4.34265 9.51193 4.29665 9.60428 4.27992C9.7764 4.24647 9.95271 4.29665 10.0996 4.39701C10.2969 4.53918 10.6622 4.82354 11.0778 5.28352C11.5437 5.79368 11.8754 6.45019 12.0769 6.69691C12.1482 6.78891 12.2364 6.79309 12.2742 6.74709C12.2868 6.73455 12.291 6.69273 12.2952 6.63837C12.3036 6.41256 12.2532 6.18675 12.1566 5.98185C12.0223 5.69332 11.7746 5.23752 11.359 4.71063C10.658 3.82412 9.79319 3.08816 9.79319 3.08816C9.79319 3.08816 9.55391 2.82053 9.73862 2.56963C9.83097 2.44836 9.9863 2.41909 10.1164 2.42746C10.2508 2.43164 10.3809 2.47345 10.4984 2.54036C10.7377 2.67835 11.2541 3.02961 11.8502 3.73631C12.4799 4.48482 12.7863 5.15807 12.8955 5.43406C12.9416 5.55114 13.0634 5.63896 13.1893 5.62223C13.2187 5.61805 13.2481 5.60968 13.2775 5.59296C13.416 5.50514 13.3824 5.23334 13.3824 5.23334C13.3824 5.23334 13.2733 4.673 12.7611 3.8074C12.3875 3.17597 11.8544 2.63654 11.5941 2.394C11.4346 2.24346 11.4094 1.99675 11.5479 1.82948L11.5521 1.8253C11.6067 1.76676 11.6781 1.7333 11.7536 1.7124C11.9131 1.67476 12.0853 1.71658 12.2238 1.80857C12.4799 1.9842 12.9878 2.38982 13.416 3.04634C13.9407 3.86594 14.3479 5.10789 14.2094 6.28711Z" fill="#778FDD"/>
<path d="M7.70681 15.3571C7.70681 15.3571 2.37124 12.8147 0.679478 9.39409C0.6333 9.29791 0.587123 9.20173 0.545144 9.10556C0.536748 9.03029 0.4318 8.06433 1.22521 6.71366C2.0522 5.30444 3.89509 5.12463 3.89509 5.12463C3.89509 5.12463 2.73646 6.20768 3.56345 8.11033C4.39044 10.013 7.04773 11.6313 7.04773 11.6313C7.04773 11.6313 6.86302 12.915 6.98057 13.6886C7.10231 14.4664 7.70681 15.3571 7.70681 15.3571Z" fill="#778FDD"/>
<path d="M8.08463 8.19814C8.08463 8.19814 7.84115 6.78893 6.5104 5.82715C5.18386 4.86537 3.89509 5.12881 3.89509 5.12881C3.89509 5.12881 2.0522 5.30444 1.22521 6.71784C0.436001 8.06851 0.536752 9.03447 0.545147 9.10974C0.0623858 8.02251 -0.0467602 7.01474 0.0162087 6.15332C0.17573 4.02068 1.66599 2.22676 3.76076 1.75841C4.6927 1.54515 5.78416 1.58697 6.9176 2.22676C10.0367 3.98723 8.08463 8.19814 8.08463 8.19814Z" fill="#778FDD"/>
</svg>
