<svg width="160" height="160" viewBox="0 0 160 160" fill="none" xmlns="http://www.w3.org/2000/svg">
<path d="M153.128 70.3274C155.088 53.0941 149.262 35.7894 137.03 23.4928C131.016 17.447 122.789 11.7501 111.861 8.99776C81.2128 1.27904 61.3491 8.35039 51.4192 27.1306C41.4893 45.9107 12.9955 42.6726 8.46209 75.0525C3.92865 107.432 25.9472 143.05 63.2919 144.992C100.637 146.935 95.8298 128.345 116.258 120.371C131.881 114.272 150.203 96.0438 153.128 70.3274Z" fill="#778FDD"/>
<path opacity="0.7" d="M153.128 70.3274C155.088 53.0941 149.262 35.7894 137.03 23.4928C131.016 17.447 122.789 11.7501 111.861 8.99776C81.2128 1.27904 61.3491 8.35039 51.4192 27.1306C41.4893 45.9107 12.9955 42.6726 8.46209 75.0525C3.92865 107.432 25.9472 143.05 63.2919 144.992C100.637 146.935 95.8298 128.345 116.258 120.371C131.881 114.272 150.203 96.0438 153.128 70.3274Z" fill="white"/>
<path d="M85.1594 48.9216H19.1725V50.5549H85.1594V48.9216Z" stroke="#263238" stroke-width="0.32" stroke-miterlimit="10" stroke-linecap="round" stroke-linejoin="round"/>
<path d="M91.6928 64.2749H12.639V65.9082H91.6928V64.2749Z" stroke="#263238" stroke-width="0.32" stroke-miterlimit="10" stroke-linecap="round" stroke-linejoin="round"/>
<path d="M25.8147 30.5842V48.8777H41.2771V30.5842H25.8147ZM40.6601 48.1478H26.4317V31.3138H40.6601V48.1478Z" fill="#263238" stroke="#263238" stroke-width="0.32" stroke-miterlimit="10" stroke-linecap="round" stroke-linejoin="round"/>
<path d="M52.0569 51.6438V64.1222H62.6041V51.6438H52.0569ZM62.1833 63.6243H52.4777V52.1417H62.1833V63.6243Z" fill="#263238" stroke="#263238" stroke-width="0.32" stroke-miterlimit="10" stroke-linecap="round" stroke-linejoin="round"/>
<path d="M44.5437 37.9888V48.8777H53.7475V37.9888H44.5437ZM52.6519 47.5811H45.6394V39.2848H52.6519V47.5811Z" fill="#263238" stroke="#263238" stroke-width="0.32" stroke-miterlimit="10" stroke-linecap="round" stroke-linejoin="round"/>
<path d="M17.5392 53.2332V64.1221H26.743V53.2332H17.5392ZM25.6473 62.8258H18.6349V54.5295H25.6473V62.8258Z" fill="#263238" stroke="#263238" stroke-width="0.32" stroke-miterlimit="10" stroke-linecap="round" stroke-linejoin="round"/>
<path d="M29.2992 57.0369V64.1223H35.288V57.0369H29.2992ZM34.5754 63.2788H30.0122V57.8804H34.575L34.5754 63.2788Z" fill="#263238" stroke="#263238" stroke-width="0.32" stroke-miterlimit="10" stroke-linecap="round" stroke-linejoin="round"/>
<path d="M42.5837 57.0369V64.1223H48.5725V57.0369H42.5837ZM47.8598 63.2788H43.297V57.8804H47.8598V63.2788Z" fill="#263238" stroke="#263238" stroke-width="0.32" stroke-miterlimit="10" stroke-linecap="round" stroke-linejoin="round"/>
<path d="M69.0679 44.0078H65.5802C65.1252 44.0078 64.7562 44.3768 64.7562 44.8318V48.8779H69.8919V44.8318C69.8919 44.3768 69.5229 44.0078 69.0679 44.0078Z" stroke="#263238" stroke-width="0.32" stroke-miterlimit="10" stroke-linecap="round" stroke-linejoin="round"/>
<path d="M68.874 42.8567H65.7748V43.9703H68.874V42.8567Z" stroke="#263238" stroke-width="0.32" stroke-miterlimit="10" stroke-linecap="round" stroke-linejoin="round"/>
<path d="M67.9549 42.8235C67.9549 42.8235 68.8259 40.6456 69.5882 39.4479C70.3504 38.2501 72.2016 37.2703 73.3994 37.2703C74.5971 37.2703 76.8839 38.5768 78.4083 40.3192" stroke="#263238" stroke-width="0.32" stroke-miterlimit="10" stroke-linecap="round" stroke-linejoin="round"/>
<path d="M72.2016 37.597C72.2016 37.597 72.855 35.4191 74.815 34.548C76.775 33.677 78.735 34.0037 79.0618 33.677" stroke="#263238" stroke-width="0.32" stroke-miterlimit="10" stroke-linecap="round" stroke-linejoin="round"/>
<path d="M66.9326 42.787C66.9326 42.787 66.9751 41.4082 66.1041 40.3192C65.233 39.2302 63.1639 38.7947 61.8574 39.6658C60.5508 40.5368 59.6794 41.7346 59.6794 41.7346" stroke="#263238" stroke-width="0.32" stroke-miterlimit="10" stroke-linecap="round" stroke-linejoin="round"/>
<path d="M63.4906 39.3391C63.4906 39.3391 62.0749 40.7548 61.7485 42.1702C61.4218 43.5858 61.8573 45.1103 61.8573 45.1103" stroke="#263238" stroke-width="0.32" stroke-miterlimit="10" stroke-linecap="round" stroke-linejoin="round"/>
<path d="M69.5884 39.4483C70.7142 37.3331 70.4627 34.8541 71.3113 32.6563C72.1872 30.3885 74.1648 29.1629 76.5574 28.9949" stroke="#263238" stroke-width="0.32" stroke-miterlimit="10" stroke-linecap="round" stroke-linejoin="round"/>
<path d="M59.864 41.4871C59.864 41.4871 58.9699 41.4871 58.6717 42.2023C58.3737 42.9175 58.4928 43.633 58.4928 43.633C58.4928 43.633 59.2678 43.5136 59.6253 42.6794C59.9833 41.8445 59.864 41.4871 59.864 41.4871Z" fill="#778FDD"/>
<path d="M61.5047 39.8591C61.5047 39.8591 61.1594 39.0344 60.3847 39.0354C59.6097 39.0367 58.9959 39.4229 58.9959 39.4229C58.9959 39.4229 59.4052 40.0917 60.313 40.0994C61.2205 40.1071 61.5047 39.8591 61.5047 39.8591Z" fill="#778FDD"/>
<path d="M61.4903 43.3449C61.4903 43.3449 60.7211 42.8889 60.0999 43.3526C59.4788 43.816 59.2167 44.4921 59.2167 44.4921C59.2167 44.4921 59.9441 44.7846 60.6772 44.2493C61.4107 43.7133 61.4903 43.3449 61.4903 43.3449Z" fill="#778FDD"/>
<path d="M61.823 44.8169C61.823 44.8169 61.1484 45.4038 61.3929 46.1391C61.6374 46.8745 62.1971 47.3359 62.1971 47.3359C62.1971 47.3359 62.7036 46.7375 62.4256 45.8729C62.1478 45.0086 61.823 44.8169 61.823 44.8169Z" fill="#778FDD"/>
<path d="M61.7872 41.6947C61.7872 41.6947 61.56 42.5594 62.176 43.0295C62.792 43.4995 63.5143 43.5658 63.5143 43.5658C63.5143 43.5658 63.5959 42.7859 62.8797 42.2282C62.1635 41.6704 61.7872 41.6947 61.7872 41.6947Z" fill="#778FDD"/>
<path d="M62.5942 39.1361C62.5942 39.1361 62.8643 38.2836 62.2723 37.7835C61.6803 37.2833 60.9626 37.1809 60.9626 37.1809C60.9626 37.1809 60.8422 37.9556 61.5296 38.5486C62.2173 39.1419 62.5942 39.1361 62.5942 39.1361Z" fill="#778FDD"/>
<path d="M64.1968 39.2221C64.1968 39.2221 64.8608 38.6234 64.6032 37.8925C64.3456 37.1616 63.778 36.7104 63.778 36.7104C63.778 36.7104 63.2823 37.3178 63.5757 38.1773C63.8688 39.0365 64.1968 39.2221 64.1968 39.2221Z" fill="#778FDD"/>
<path d="M73.2576 35.6457C73.2576 35.6457 73.9216 35.047 73.664 34.3161C73.4064 33.5852 72.8387 33.134 72.8387 33.134C72.8387 33.134 72.343 33.7414 72.6365 34.6009C72.9293 35.4598 73.2576 35.6457 73.2576 35.6457Z" fill="#778FDD"/>
<path d="M75.8804 34.2746C75.8804 34.2746 76.5444 33.6759 76.2868 32.945C76.0292 32.2141 75.4615 31.7629 75.4615 31.7629C75.4615 31.7629 74.9658 32.3706 75.2593 33.2298C75.5524 34.089 75.8804 34.2746 75.8804 34.2746Z" fill="#778FDD"/>
<path d="M78.0858 33.8571C78.0858 33.8571 78.7498 33.2584 78.4922 32.5275C78.2346 31.7967 77.6669 31.3455 77.6669 31.3455C77.6669 31.3455 77.1712 31.9528 77.4646 32.8123C77.7578 33.6715 78.0858 33.8571 78.0858 33.8571Z" fill="#778FDD"/>
<path d="M63.2426 41.591C63.2426 41.591 64.1364 41.5628 64.4116 40.8384C64.6868 40.1139 64.545 39.4028 64.545 39.4028C64.545 39.4028 63.7741 39.5465 63.4432 40.392C63.112 41.2374 63.2426 41.591 63.2426 41.591Z" fill="#778FDD"/>
<path d="M77.6657 35.8566C77.6657 35.8566 77.8666 34.9852 77.2365 34.534C76.6065 34.0828 75.8826 34.0383 75.8826 34.0383C75.8826 34.0383 75.8247 34.8201 76.5575 35.3561C77.2906 35.8924 77.6657 35.8566 77.6657 35.8566Z" fill="#778FDD"/>
<path d="M79.8116 35.797C79.8116 35.797 80.0125 34.9256 79.3825 34.4744C78.7524 34.0232 78.0285 33.9788 78.0285 33.9788C78.0285 33.9788 77.9706 34.7605 78.7034 35.2965C79.4365 35.8328 79.8116 35.797 79.8116 35.797Z" fill="#778FDD"/>
<path d="M60.8683 42.6026C60.8683 42.6026 61.659 42.1853 61.5886 41.4135C61.5182 40.6417 61.0791 40.0647 61.0791 40.0647C61.0791 40.0647 60.4494 40.5319 60.5227 41.4369C60.5956 42.3421 60.8683 42.6026 60.8683 42.6026Z" fill="#778FDD"/>
<path d="M69.9882 41.2911C69.9882 41.2911 70.779 40.8738 70.7089 40.102C70.6385 39.3301 70.1994 38.7532 70.1994 38.7532C70.1994 38.7532 69.5697 39.2204 69.643 40.1253C69.7159 41.0306 69.9882 41.2911 69.9882 41.2911Z" fill="#778FDD"/>
<path d="M68.2715 38.5132C68.2715 38.5132 67.6286 39.1346 67.9115 39.8562C68.1943 40.5778 68.7774 41.0092 68.7774 41.0092C68.7774 41.0092 69.2516 40.3849 68.9287 39.5362C68.6059 38.6876 68.2715 38.5132 68.2715 38.5132Z" fill="#778FDD"/>
<path d="M72.1936 39.9798C72.1936 39.9798 72.9843 39.5625 72.9142 38.7907C72.8438 38.0189 72.4048 37.4419 72.4048 37.4419C72.4048 37.4419 71.775 37.9091 71.8483 38.8141C71.9212 39.7193 72.1936 39.9798 72.1936 39.9798Z" fill="#778FDD"/>
<path d="M74.8649 39.9836C74.8649 39.9836 75.5229 39.3778 75.2576 38.6498C74.9923 37.9218 74.4201 37.4761 74.4201 37.4761C74.4201 37.4761 73.9309 38.0886 74.2329 38.9449C74.535 39.8012 74.8649 39.9836 74.8649 39.9836Z" fill="#778FDD"/>
<path d="M76.9514 41.1164C76.9514 41.1164 77.6093 40.5106 77.344 39.7826C77.0787 39.0546 76.5066 38.6089 76.5066 38.6089C76.5066 38.6089 76.0173 39.2214 76.3194 40.0777C76.6214 40.934 76.9514 41.1164 76.9514 41.1164Z" fill="#778FDD"/>
<path d="M79.6233 38.5482C79.6233 38.5482 79.0579 37.8557 78.3152 38.0771C77.5725 38.2986 77.0941 38.8435 77.0941 38.8435C77.0941 38.8435 77.6765 39.3683 78.5491 39.1178C79.4217 38.8666 79.6233 38.5482 79.6233 38.5482Z" fill="#778FDD"/>
<path d="M76.8158 30.7754C76.8158 30.7754 76.8135 29.8813 76.0974 29.585C75.3812 29.289 74.6663 29.41 74.6663 29.41C74.6663 29.41 74.7876 30.1847 75.6231 30.5399C76.4586 30.8951 76.8158 30.7754 76.8158 30.7754Z" fill="#778FDD"/>
<path d="M75.7398 27.1453C75.7398 27.1453 74.8541 27.2672 74.6563 28.0163C74.4585 28.7654 74.6742 29.4579 74.6742 29.4579C74.6742 29.4579 75.4256 29.2342 75.6662 28.3587C75.9065 27.4832 75.7398 27.1453 75.7398 27.1453Z" fill="#778FDD"/>
<path d="M74.3719 31.9678C74.3719 31.9678 74.3697 31.0737 73.6535 30.7774C72.9374 30.4814 72.2225 30.6023 72.2225 30.6023C72.2225 30.6023 72.3438 31.3771 73.1793 31.7326C74.0145 32.0878 74.3719 31.9678 74.3719 31.9678Z" fill="#778FDD"/>
<path d="M73.2957 28.3372C73.2957 28.3372 72.4099 28.4591 72.2121 29.2082C72.0144 29.9573 72.2301 30.6498 72.2301 30.6498C72.2301 30.6498 72.9814 30.4261 73.2221 29.5506C73.4627 28.6751 73.2957 28.3372 73.2957 28.3372Z" fill="#778FDD"/>
<path d="M73.4602 33.4499C73.4602 33.4499 72.905 32.7488 72.1594 32.9594C71.4135 33.1699 70.9268 33.7072 70.9268 33.7072C70.9268 33.7072 71.5012 34.2406 72.3776 34.0029C73.2541 33.7651 73.4602 33.4499 73.4602 33.4499Z" fill="#778FDD"/>
<path d="M70.3687 31.2637C70.3687 31.2637 69.7482 31.9075 70.0564 32.6186C70.3645 33.3296 70.9623 33.7402 70.9623 33.7402C70.9623 33.7402 71.4141 33.0995 71.0615 32.2627C70.7092 31.4259 70.3687 31.2637 70.3687 31.2637Z" fill="#778FDD"/>
<path d="M72.8041 36.49C72.8041 36.49 72.2493 35.7888 71.5033 35.9994C70.7574 36.2096 70.2707 36.7472 70.2707 36.7472C70.2707 36.7472 70.8451 37.2807 71.7216 37.0429C72.5981 36.8055 72.8041 36.49 72.8041 36.49Z" fill="#778FDD"/>
<path d="M69.7129 34.3037C69.7129 34.3037 69.0925 34.9476 69.4006 35.6586C69.7088 36.3696 70.3065 36.7802 70.3065 36.7802C70.3065 36.7802 70.7584 36.1396 70.4057 35.3028C70.0531 34.466 69.7129 34.3037 69.7129 34.3037Z" fill="#778FDD"/>
<path d="M77.1197 37.2366C77.1197 37.2366 76.5542 36.5442 75.8115 36.7656C75.0688 36.987 74.5904 37.532 74.5904 37.532C74.5904 37.532 75.1728 38.0568 76.0454 37.8062C76.9181 37.555 77.1197 37.2366 77.1197 37.2366Z" fill="#778FDD"/>
<path d="M75.689 35.7464C75.689 35.7464 75.1236 35.0539 74.3809 35.2754C73.6385 35.4968 73.1597 36.0418 73.1597 36.0418C73.1597 36.0418 73.7421 36.5666 74.6148 36.316C75.4874 36.0648 75.689 35.7464 75.689 35.7464Z" fill="#778FDD"/>
<path d="M81.2922 33.4217C81.2922 33.4217 80.7268 32.7292 79.9841 32.9507C79.2417 33.1721 78.7629 33.7171 78.7629 33.7171C78.7629 33.7171 79.3453 34.2419 80.218 33.9913C81.0906 33.7401 81.2922 33.4217 81.2922 33.4217Z" fill="#778FDD"/>
<path d="M78.8483 28.7127C78.8483 28.7127 78.2829 28.0202 77.5402 28.2417C76.7974 28.4631 76.319 29.0081 76.319 29.0081C76.319 29.0081 76.9014 29.5329 77.7741 29.2823C78.6467 29.0314 78.8483 28.7127 78.8483 28.7127Z" fill="#778FDD"/>
<path d="M78.8589 42.7853C78.8589 42.7853 79.5168 42.1795 79.2515 41.4515C78.9863 40.7235 78.4141 40.2781 78.4141 40.2781C78.4141 40.2781 77.9248 40.8906 78.2269 41.7469C78.529 42.6029 78.8589 42.7853 78.8589 42.7853Z" fill="#778FDD"/>
<path d="M70.4419 64.1222H73.8525C75.0074 63.3363 75.7949 61.7791 75.7949 59.9843C75.7949 58.8185 75.4608 57.7548 74.912 56.9353H69.3824C68.8333 57.7548 68.4995 58.8185 68.4995 59.9843C68.4995 61.7791 69.287 63.3363 70.4419 64.1222Z" stroke="#263238" stroke-width="0.32" stroke-miterlimit="10" stroke-linecap="round" stroke-linejoin="round"/>
<path d="M81.4573 52.2971H79.2794V64.275H81.4573V52.2971Z" stroke="#263238" stroke-width="0.32" stroke-miterlimit="10" stroke-linecap="round" stroke-linejoin="round"/>
<path d="M83.8528 52.2971H81.6749V64.275H83.8528V52.2971Z" stroke="#263238" stroke-width="0.32" stroke-miterlimit="10" stroke-linecap="round" stroke-linejoin="round"/>
<path d="M86.2486 52.2971H84.0707V64.275H86.2486V52.2971Z" stroke="#263238" stroke-width="0.32" stroke-miterlimit="10" stroke-linecap="round" stroke-linejoin="round"/>
<path d="M143.453 52.3301V52.1646H117.564V18.9665H143.288V52.3301H143.453H143.619V18.6355H117.233V52.4956H143.619V52.3301H143.453Z" fill="#232D34"/>
<path d="M133.418 90.8667L133.419 90.8648C133.425 90.8491 133.418 90.8312 133.402 90.8244C133.386 90.8174 133.367 90.8248 133.361 90.8408C132.41 93.0363 131.742 95.3406 131.184 97.6651C130.645 99.996 130.255 102.361 129.982 104.74L129.812 106.528C129.786 106.826 129.753 107.124 129.732 107.423L129.683 108.32C129.657 108.919 129.621 109.517 129.604 110.116L129.62 111.913L129.64 112.811C129.653 113.11 129.675 113.409 129.695 113.707C129.74 114.305 129.777 124.853 129.831 125.449C129.946 126.64 130.125 127.825 130.309 129.005C130.312 129.02 130.325 129.031 130.341 129.031C130.358 129.031 130.372 129.017 130.372 129V128.998C130.369 128.399 130.344 127.803 130.33 127.207C130.313 126.612 130.261 126.019 130.269 125.423C130.272 124.828 130.257 114.283 130.25 113.688L130.233 112.798L130.249 111.907L130.257 110.126L130.305 108.346L130.324 107.456C130.335 107.159 130.357 106.863 130.374 106.567L130.483 104.788C130.691 102.421 131.016 100.063 131.491 97.732C131.964 95.4036 132.549 93.084 133.418 90.8667Z" fill="#263238"/>
<path d="M133.673 100.178C133.677 100.162 133.669 100.144 133.653 100.139C133.637 100.133 133.619 100.142 133.613 100.158C133.101 101.638 132.692 103.151 132.346 104.681C132.015 106.213 131.756 107.765 131.597 109.329C131.439 110.887 131.265 112.447 131.244 114.014C131.22 115.58 131.245 127.099 131.41 128.663C131.412 128.678 131.423 128.69 131.438 128.691C131.456 128.693 131.471 128.681 131.473 128.663C131.654 127.103 131.765 115.596 131.873 114.041C131.983 112.486 131.998 110.926 132.099 109.37C132.193 107.82 132.388 106.275 132.655 104.741C132.916 103.207 133.242 101.678 133.673 100.178Z" fill="#263238"/>
<path d="M138.835 103.454C138.826 103.439 138.806 103.435 138.792 103.444C137.5 104.263 136.347 105.293 135.34 106.454C134.845 107.043 134.385 107.66 133.99 108.33L133.713 108.854L133.496 109.398C133.418 109.578 133.363 109.764 133.306 109.949C133.251 110.135 133.188 110.319 133.138 110.506C132.75 112.002 132.493 123.478 132.424 125.01C132.361 126.542 132.39 128.076 132.595 129.597C132.597 129.611 132.609 129.623 132.624 129.624C132.641 129.625 132.657 129.612 132.658 129.595L133.051 125.055C133.208 123.554 133.304 112.094 133.626 110.628C133.667 110.445 133.719 110.267 133.765 110.086C133.813 109.905 133.858 109.723 133.925 109.551L134.109 109.026L134.346 108.53C134.696 107.874 135.123 107.247 135.583 106.653C136.505 105.463 137.589 104.378 138.824 103.498L138.826 103.497C138.84 103.487 138.844 103.468 138.835 103.454Z" fill="#263238"/>
<path d="M136.337 109.286C135.633 109.741 135.163 110.455 134.767 111.173C134.39 111.908 134.093 112.686 133.888 113.485C133.826 113.683 133.777 113.883 133.734 114.085L133.592 114.688C133.519 115.094 133.462 125.454 133.439 125.865C133.434 126.277 133.422 126.688 133.45 127.099C133.484 127.509 133.531 127.919 133.612 128.325C133.614 128.336 133.624 128.347 133.637 128.35C133.654 128.353 133.671 128.342 133.675 128.325C133.774 127.919 133.839 127.518 133.892 127.118C133.956 126.718 134.018 126.321 134.066 125.923C134.124 125.527 134.177 125.133 134.207 124.734C134.263 124.341 134.292 113.987 134.378 113.598C134.516 112.812 134.744 112.043 135.051 111.308C135.357 110.58 135.756 109.853 136.369 109.34L136.374 109.336C136.386 109.326 136.389 109.308 136.38 109.295C136.371 109.281 136.351 109.277 136.337 109.286Z" fill="#263238"/>
<path d="M129.097 113.834C128.927 111.818 128.595 109.823 128.281 107.829C127.965 105.834 127.618 103.846 127.253 101.861C126.875 99.8789 126.48 97.9 126.053 95.9282C126.049 95.9119 126.033 95.9007 126.017 95.9039C126 95.9071 125.988 95.9234 125.991 95.9403C126.336 97.9269 126.648 99.9192 126.943 101.913C127.245 103.906 127.53 105.901 127.782 107.9C128.029 109.9 128.221 111.904 128.471 113.9L129.209 129.85C129.211 129.865 129.223 129.877 129.239 129.878C129.256 129.879 129.271 129.865 129.272 129.848C129.295 129.342 129.295 128.837 129.308 128.33C129.312 127.824 129.287 127.319 129.278 126.813C129.259 125.8 129.173 114.842 129.097 113.834Z" fill="#263238"/>
<path d="M127.889 113.805C127.781 113.007 127.634 112.213 127.482 111.422L127.199 110.245C127.106 109.853 127.019 109.46 126.904 109.073C126.501 107.511 125.988 105.977 125.363 104.49L125.122 103.935L124.853 103.392C124.682 103.027 124.476 102.679 124.28 102.327C123.859 101.64 123.421 100.954 122.825 100.398C122.813 100.387 122.794 100.387 122.782 100.398C122.77 100.41 122.769 100.43 122.781 100.443L122.785 100.446C123.335 101.017 123.737 101.722 124.115 102.418C124.291 102.777 124.476 103.129 124.626 103.499L124.862 104.048L125.072 104.608C125.631 106.099 126.078 107.633 126.415 109.192C126.599 109.967 126.721 110.758 126.871 111.539L127.06 112.721C127.128 113.113 127.212 113.503 127.268 113.898C127.393 114.686 127.538 125.423 127.676 126.211C127.798 127.002 127.942 127.791 128.109 128.581C128.112 128.595 128.125 128.607 128.14 128.607C128.158 128.607 128.172 128.593 128.172 128.576C128.175 127.77 128.156 126.965 128.116 126.16C128.067 125.357 127.972 114.606 127.889 113.805Z" fill="#263238"/>
<path d="M126.221 113.908C125.847 112.85 125.415 111.815 124.945 110.8C124.461 109.791 123.94 108.8 123.34 107.857C123.33 107.844 123.311 107.839 123.297 107.847C123.282 107.856 123.277 107.875 123.286 107.89C123.811 108.87 124.254 109.892 124.656 110.925C125.065 111.956 125.434 113.002 125.743 114.064C126.058 115.126 126.284 126.159 126.566 127.225C126.863 128.29 127.103 129.367 127.431 130.446C127.435 130.458 127.447 130.469 127.461 130.469C127.479 130.469 127.493 130.455 127.493 130.438C127.509 129.312 127.398 128.187 127.18 127.085C126.982 125.976 126.592 114.964 126.221 113.908Z" fill="#263238"/>
<path d="M126.151 127.381C125.96 126.718 125.635 126.101 125.264 125.52C124.901 124.936 124.479 114.433 123.973 113.965C123.713 113.739 123.446 113.522 123.152 113.345C122.862 113.164 122.554 113.011 122.22 112.924C122.206 112.92 122.19 112.927 122.184 112.941C122.177 112.957 122.184 112.976 122.2 112.983L122.204 112.984C122.807 113.253 123.317 113.698 123.749 114.185C124.186 114.673 124.535 125.183 124.826 125.766C125.131 126.345 125.289 126.985 125.556 127.581C125.673 127.887 125.789 128.195 125.925 128.5C126.04 128.812 126.168 129.122 126.33 129.431L126.331 129.433C126.336 129.443 126.347 129.449 126.358 129.45C126.376 129.451 126.391 129.437 126.392 129.419C126.406 129.074 126.386 128.731 126.354 128.389C126.304 128.051 126.232 127.715 126.151 127.381Z" fill="#263238"/>
<path d="M126.276 98.8134C126.276 98.8134 122.974 98.0515 122.212 94.495C121.449 90.9385 123.905 92.4627 121.703 86.8739C119.502 81.2851 120.01 80.015 120.772 78.4061C121.534 76.7971 121.957 77.3053 122.635 79.4221C123.312 81.5389 125.768 84.8416 126.7 91.023C127.631 97.2048 126.276 98.8134 126.276 98.8134Z" fill="#778FDD"/>
<path d="M132.796 92.8012C132.796 92.8012 130.595 92.0389 130.51 87.8898C130.426 83.7404 132.119 84.5874 132.373 79.422C132.627 74.2565 132.966 70.6156 133.897 70.5308C134.829 70.4463 137.284 73.0713 138.131 78.8293C138.978 84.5874 137.03 88.398 135.337 90.0914C133.643 91.7852 132.796 92.8012 132.796 92.8012Z" fill="#778FDD"/>
<path d="M125.091 103.81C125.091 103.81 124.582 100.761 123.566 99.3215C122.55 97.8819 120.348 96.6118 118.909 93.8175C117.469 91.0233 115.861 89.6684 115.945 93.6483C116.03 97.6281 117.808 99.6604 120.01 101.015C122.212 102.37 125.091 103.81 125.091 103.81Z" fill="#778FDD"/>
<path d="M124.159 109.059C124.159 109.059 122.127 105.164 119.164 102.285C116.2 99.4064 113.829 97.9667 114.676 99.4064C115.522 100.846 116.539 100.761 117.978 103.301C119.418 105.842 118.994 107.705 121.026 109.144C123.058 110.584 124.159 109.059 124.159 109.059Z" fill="#778FDD"/>
<path d="M123.905 114.056C123.821 113.801 123.736 111.939 120.857 110.414C117.978 108.89 115.268 109.483 115.607 110.245C115.946 111.007 117.724 112.277 119.502 113.04C121.28 113.801 123.905 114.056 123.905 114.056Z" fill="#778FDD"/>
<path d="M132.627 103.979C132.627 103.979 131.357 102.37 132.034 98.9829C132.712 95.5957 134.236 96.4424 135.93 94.6641C137.623 92.8859 137.284 92.6318 138.978 90.7691C140.672 88.9061 142.196 87.8901 142.873 88.6523C143.55 89.4145 142.534 91.7854 141.518 93.1403C140.502 94.4952 138.893 95.1726 138.131 96.8661C137.369 98.5595 137.707 101.269 135.76 102.539C133.812 103.809 132.627 103.979 132.627 103.979Z" fill="#778FDD"/>
<path d="M136.861 104.91C136.861 104.91 139.909 101.439 142.111 98.8982C144.312 96.3577 145.159 94.4102 145.244 96.1036C145.328 97.797 146.006 99.1519 144.228 101.354C142.45 103.555 136.861 104.91 136.861 104.91Z" fill="#778FDD"/>
<path d="M135.252 110.499C135.252 110.499 135.167 109.144 139.994 106.011C144.821 102.878 146.853 102.285 146.345 103.556C145.837 104.826 143.72 106.096 141.433 108.382C139.147 110.668 135.252 110.499 135.252 110.499Z" fill="#778FDD"/>
<path d="M126.477 98.4527C126.477 98.4527 125.345 92.3781 124.159 88.0594C122.973 83.7407 122.212 81.1157 122.212 81.1157" stroke="#ABABAB" stroke-width="0.32" stroke-miterlimit="10" stroke-linecap="round" stroke-linejoin="round"/>
<path d="M132.601 92.8652C132.601 92.8652 134.659 86.2812 135.337 82.301C136.014 78.3212 135.252 75.3573 134.913 73.5791" stroke="#ABABAB" stroke-width="0.32" stroke-miterlimit="10" stroke-linecap="round" stroke-linejoin="round"/>
<path d="M124.824 103.682C124.824 103.682 123.566 101.439 121.704 99.2369C119.841 97.0353 118.401 95.85 117.555 93.7329" stroke="#ABABAB" stroke-width="0.32" stroke-miterlimit="10" stroke-linecap="round" stroke-linejoin="round"/>
<path d="M132.627 103.979C132.627 103.979 133.305 99.9141 134.914 97.7973C136.523 95.6805 139.74 92.3781 141.01 90.261" stroke="#ABABAB" stroke-width="0.32" stroke-miterlimit="10" stroke-linecap="round" stroke-linejoin="round"/>
<path d="M123.706 113.963C123.706 113.963 120.857 112.108 118.825 111.092" stroke="#ABABAB" stroke-width="0.32" stroke-miterlimit="10" stroke-linecap="round" stroke-linejoin="round"/>
<path d="M131.551 142.633H127.823C127.163 142.633 126.567 142.237 126.313 141.628C125.095 138.71 123.802 124.752 123.802 124.752H135.572C135.572 124.752 134.278 138.71 133.061 141.628C132.807 142.237 132.211 142.633 131.551 142.633Z" fill="#263238"/>
<path d="M131.814 103.764C131.814 103.764 130.227 105.45 128.938 104.954C127.649 104.459 126.747 103.43 125.363 104.49C123.98 105.55 124.872 107.632 126.459 109.814C128.045 111.995 129.082 113.01 130.249 111.908C131.417 110.805 134.293 109.318 134.392 106.442C134.491 103.566 134.69 102.574 131.814 103.764Z" fill="#778FDD"/>
<path d="M134.094 112.094C134.094 112.094 133.377 113.078 131.813 113.383C130.25 113.689 128.401 112.235 128.471 113.9C128.541 115.565 130.028 117.053 132.309 116.953C134.59 116.854 136.177 117.35 136.573 118.243C136.97 119.135 138.16 118.342 137.664 115.664C137.169 112.987 136.177 111.697 134.094 112.094Z" fill="#778FDD"/>
<path d="M127.351 116.458C127.351 116.458 126.558 116.259 125.467 116.557C124.376 116.854 124.079 117.648 124.475 118.739C124.872 119.829 125.864 120.821 126.26 120.028C126.657 119.235 126.756 118.739 127.847 118.441C128.938 118.143 128.64 116.458 127.351 116.458Z" fill="#778FDD"/>
<path d="M146.857 142.854H150.976" stroke="#263238" stroke-width="0.32" stroke-miterlimit="10"/>
<path d="M10.1552 142.854H144.48" stroke="#263238" stroke-width="0.32" stroke-miterlimit="10"/>
<path d="M82.4128 67.2977C82.4128 67.2977 74.4826 64.019 73.7965 63.6376C73.1101 63.2564 72.424 61.8075 72.1191 61.5025C71.8141 61.1976 71.2803 61.3499 70.0602 61.1214C68.84 60.8926 68.0778 59.9777 67.9251 60.6638C67.7725 61.3502 68.2301 61.5787 68.6115 61.7313C68.9927 61.884 69.7552 62.2651 69.7552 62.2651L69.8314 62.7988C69.8314 62.7988 67.3914 63.2564 66.4 63.2564C65.4087 63.2564 64.7226 63.6376 64.8749 64.0952C65.0275 64.5528 65.7898 64.324 65.7898 64.324L67.6199 64.2478C67.6199 64.2478 64.7223 65.0104 64.6461 65.3915C64.5699 65.7726 65.1037 66.0779 65.3325 66.0014C65.5613 65.9252 66.7811 65.5438 66.7811 65.5438L67.5437 65.3912C67.5437 65.3912 66.0951 66.2299 66.1712 66.7636C66.2474 67.2974 67.0861 66.916 67.0861 66.916L67.9248 66.0772L69.145 65.8484L67.8487 67.1448C67.8487 67.1448 68.0013 67.6024 68.3824 67.5259C68.7635 67.4497 69.2973 66.7633 69.2973 66.7633L70.2887 66.5345C70.2887 66.5345 70.8986 66.6107 71.1274 66.5345C71.3562 66.4584 72.576 66.0769 72.576 66.0769C72.576 66.0769 79.9725 71.4145 80.8874 71.6433C81.8023 71.8721 84.1661 73.7022 85.4624 73.2446C86.7588 72.787 85.4624 69.2795 85.4624 68.8984C85.4628 68.5179 82.4128 67.2977 82.4128 67.2977Z" fill="white" stroke="#263238" stroke-width="0.32" stroke-miterlimit="10"/>
<path d="M69.8832 127.503C69.8832 127.503 71.3309 132.613 72.2679 134.742C73.2048 136.871 74.729 139.404 75.0784 140.278C75.4192 141.129 74.4823 142.151 73.8861 142.407C73.2899 142.662 72.6087 142.918 72.0125 143.599C71.4163 144.28 69.2871 145.473 67.9245 145.558C66.5619 145.643 64.4327 145.813 64.9437 144.45C65.4547 143.088 68.1798 140.959 68.4355 140.192C68.6912 139.426 68.6058 138.915 68.6058 138.915L66.4765 134.145L69.8832 127.503Z" fill="#263238" stroke="#263238" stroke-width="0.32" stroke-miterlimit="10"/>
<path d="M73.8592 137.917C73.0231 138.596 71.8903 139.47 71.2458 139.767C70.1386 140.278 68.6909 139.597 68.6909 139.597L68.5879 139.545C68.562 139.73 68.5175 139.946 68.4352 140.193C68.1799 140.959 65.4544 143.088 64.9434 144.451C64.4323 145.814 66.5616 145.643 67.9242 145.558C69.2867 145.473 71.416 144.281 72.0122 143.599C72.6083 142.918 73.2896 142.663 73.8858 142.407C74.4819 142.152 75.4189 141.13 75.0781 140.278C74.8999 139.832 74.4154 138.953 73.8592 137.917Z" fill="white" stroke="#263238" stroke-width="0.32" stroke-miterlimit="10"/>
<path d="M51.3818 81.1104L49.1213 88.2147C49.1213 88.2147 51.7584 88.5914 52.5658 89.4525C52.5658 89.4525 53.9651 85.0931 54.2342 83.4784C54.503 81.8637 52.8886 79.9264 51.3818 81.1104Z" fill="#778FDD" stroke="#263238" stroke-width="0.32" stroke-miterlimit="10"/>
<path d="M49.1213 88.2149C49.1213 88.2149 46.5379 91.0136 46.1613 91.2827C45.7846 91.5519 45.5155 92.3592 45.6231 92.8437C45.7306 93.3282 46.0538 94.7813 46.3229 94.8888C46.592 94.9963 50.3056 94.6197 50.6285 94.3506C50.9514 94.0815 51.328 92.7899 51.3821 92.3054C51.4359 91.821 51.4359 90.9598 51.4359 90.9598L52.3507 88.5919C52.3507 88.5919 49.8746 87.9995 49.1213 88.2149Z" fill="white" stroke="#263238" stroke-width="0.32" stroke-miterlimit="10"/>
<path d="M55.96 101.628H40.4617C40.0198 101.628 39.6617 101.27 39.6617 100.828C39.6617 100.386 40.0198 100.028 40.4617 100.028H55.96C56.4019 100.028 56.76 100.386 56.76 100.828C56.76 101.27 56.4019 101.628 55.96 101.628Z" fill="white" stroke="#263238" stroke-width="0.32" stroke-miterlimit="10"/>
<path d="M38.1373 126.979C38.0685 126.979 37.9987 126.97 37.929 126.951C37.5024 126.836 37.2496 126.397 37.3645 125.971L37.6589 124.876C38.4919 121.783 41.3114 119.622 44.5152 119.622H51.4205C54.6531 119.622 57.4791 121.807 58.2922 124.935L58.5056 125.756C58.617 126.183 58.3603 126.62 57.9328 126.732C57.5059 126.843 57.0685 126.587 56.9575 126.158L56.744 125.338C56.1139 122.915 53.9248 121.222 51.4208 121.222H44.5152C42.0333 121.222 39.8493 122.896 39.2039 125.292L38.9095 126.386C38.8135 126.743 38.4903 126.979 38.1373 126.979Z" fill="white" stroke="#263238" stroke-width="0.32" stroke-miterlimit="10"/>
<path d="M35.7418 146.787C35.7143 146.787 35.6864 146.785 35.6583 146.782C35.2189 146.737 34.8995 146.343 34.945 145.904L39.8288 98.7888C40.2202 95.014 43.4231 92.168 47.2794 92.168H49.4218C53.3175 92.168 56.5978 95.1619 56.8896 98.9846L60.2893 143.499C60.3229 143.939 59.993 144.324 59.5527 144.358C59.1075 144.393 58.7277 144.061 58.6941 143.621L55.2944 99.1069C55.0659 96.1133 52.4864 93.7683 49.4218 93.7683H47.2794C44.2458 93.7683 41.7271 95.9977 41.4205 98.9542L36.5367 146.069C36.4938 146.48 36.1466 146.787 35.7418 146.787Z" fill="white" stroke="#263238" stroke-width="0.32" stroke-miterlimit="10"/>
<path d="M35.5923 148.553C35.5536 148.553 35.5149 148.551 35.4755 148.547C34.8605 148.484 34.4131 147.933 34.4768 147.318L34.6266 145.871C34.6902 145.256 35.2368 144.808 35.856 144.873C36.471 144.936 36.9184 145.487 36.8547 146.102L36.705 147.549C36.6451 148.125 36.1587 148.553 35.5923 148.553Z" fill="#263238" stroke="#263238" stroke-width="0.32" stroke-miterlimit="10"/>
<path d="M59.7232 145.335C59.6851 145.341 59.6464 145.346 59.607 145.348C58.9897 145.387 58.4579 144.918 58.4192 144.301L58.3283 142.849C58.2896 142.232 58.7545 141.7 59.3763 141.661C59.9936 141.623 60.5254 142.092 60.5641 142.709L60.655 144.161C60.6912 144.739 60.2822 145.241 59.7232 145.335Z" fill="#263238" stroke="#263238" stroke-width="0.32" stroke-miterlimit="10"/>
<path d="M48.6528 95.6521C48.6528 95.6521 50.3242 95.7305 50.682 95.4805C51.0397 95.2306 51.3114 93.5304 51.2544 93.1442C51.1975 92.758 50.8653 92.9461 50.5978 93.4153C50.3303 93.8841 50.1149 95.0997 50.1149 95.0997L49.5613 95.1234" fill="white"/>
<path d="M48.6528 95.6521C48.6528 95.6521 50.3242 95.7305 50.682 95.4805C51.0397 95.2306 51.3114 93.5304 51.2544 93.1442C51.1975 92.758 50.8653 92.9461 50.5978 93.4153C50.3303 93.8841 50.1149 95.0997 50.1149 95.0997L49.5613 95.1234" stroke="#263238" stroke-width="0.32" stroke-miterlimit="10" stroke-linecap="round" stroke-linejoin="round"/>
<path d="M47.5175 95.8188C47.5175 95.8188 49.1888 95.8972 49.5466 95.6473C49.9043 95.3974 50.176 93.6972 50.1191 93.311C50.0621 92.9247 49.7299 93.1129 49.4627 93.582C49.1952 94.0508 48.9799 95.2665 48.9799 95.2665L48.4263 95.2902" fill="white"/>
<path d="M47.5175 95.8188C47.5175 95.8188 49.1888 95.8972 49.5466 95.6473C49.9043 95.3974 50.176 93.6972 50.1191 93.311C50.0621 92.9247 49.7299 93.1129 49.4627 93.582C49.1952 94.0508 48.9799 95.2665 48.9799 95.2665L48.4263 95.2902" stroke="#263238" stroke-width="0.32" stroke-miterlimit="10" stroke-linecap="round" stroke-linejoin="round"/>
<path d="M46.3226 94.8884C46.3226 94.8884 48.0448 95.6958 48.5293 95.588C49.0138 95.4804 50.0362 93.8119 50.144 93.3812C50.2515 92.9505 49.8211 93.0046 49.3367 93.3812C48.8522 93.7579 48.0989 94.9419 48.0989 94.9419L47.5069 94.7265" fill="white"/>
<path d="M46.3226 94.8884C46.3226 94.8884 48.0448 95.6958 48.5293 95.588C49.0138 95.4804 50.0362 93.8119 50.144 93.3812C50.2515 92.9505 49.8211 93.0046 49.3367 93.3812C48.8522 93.7579 48.0989 94.9419 48.0989 94.9419L47.5069 94.7265" stroke="#263238" stroke-width="0.32" stroke-miterlimit="10" stroke-linecap="round" stroke-linejoin="round"/>
<path d="M46.3226 94.8883C46.3226 94.8883 46.8608 95.8031 47.345 95.6956C47.8295 95.5881 48.8518 93.9196 48.9597 93.4889C49.0672 93.0582 48.6368 93.1122 48.1523 93.4889C47.6679 93.8655 46.9146 95.0495 46.9146 95.0495L46.3226 94.8342" fill="white"/>
<path d="M46.3226 94.8883C46.3226 94.8883 46.8608 95.8031 47.345 95.6956C47.8295 95.5881 48.8518 93.9196 48.9597 93.4889C49.0672 93.0582 48.6368 93.1122 48.1523 93.4889C47.6679 93.8655 46.9146 95.0495 46.9146 95.0495L46.3226 94.8342" stroke="#263238" stroke-width="0.32" stroke-miterlimit="10" stroke-linecap="round" stroke-linejoin="round"/>
<path d="M48.5293 89.6677C48.5293 89.6677 47.6144 91.6591 47.5607 91.982C47.5069 92.3048 46.8071 94.8344 46.9149 95.0498C47.0224 95.2652 47.6147 95.1573 47.8298 94.8885C48.0451 94.6194 48.5834 93.1125 48.6909 92.8972C48.7984 92.6818 49.6058 92.2514 49.9287 91.7669C50.2515 91.2824 50.5207 90.0447 50.5207 90.0447" fill="white"/>
<path d="M48.5293 89.6677C48.5293 89.6677 47.6144 91.6591 47.5607 91.982C47.5069 92.3048 46.8071 94.8344 46.9149 95.0498C47.0224 95.2652 47.6147 95.1573 47.8298 94.8885C48.0451 94.6194 48.5834 93.1125 48.6909 92.8972C48.7984 92.6818 49.6058 92.2514 49.9287 91.7669C50.2515 91.2824 50.5207 90.0447 50.5207 90.0447" stroke="#263238" stroke-width="0.32" stroke-miterlimit="10" stroke-linecap="round" stroke-linejoin="round"/>
<path d="M51.544 90.4702C51.544 90.4702 52.7075 103.241 53.8195 106.993C54.9312 110.745 60.3507 120.472 60.559 121.028C60.7674 121.584 61.2538 122.765 61.4624 126.239C61.671 129.713 61.5872 132.378 61.5872 134.115C61.5872 135.852 60.3504 141.143 60.3504 141.143C60.3504 141.143 59.0304 141.908 57.7101 142.186C56.3901 142.463 54.5139 143.019 54.5139 143.853C54.5139 144.687 59.5165 145.729 61.2534 146.077C62.9904 146.424 65.0054 146.771 65.4918 146.285C65.9782 145.799 65.8394 145.312 66.1171 143.575C66.3949 141.838 66.7315 141.769 67.704 138.087C68.6768 134.404 69.881 132.114 70.4368 127.806C70.9926 123.498 70.2714 119.48 70.8272 116.354C71.383 113.227 73.4022 103.703 74.5139 98.1441C75.6256 92.5857 75.695 92.2382 75.1392 88.7643L51.8128 88.1624L51.544 90.4702Z" fill="#263238" stroke="#263238" stroke-width="0.32" stroke-miterlimit="10"/>
<path d="M60.7501 119.068C60.6419 117.159 60.6624 114.243 61.1146 112.065C61.6656 109.412 62.1655 94.9019 62.1655 94.9019" stroke="white" stroke-width="0.32" stroke-miterlimit="10" stroke-linecap="round" stroke-linejoin="round"/>
<path d="M61.0925 121.767C61.0144 121.861 60.8694 120.606 60.7971 119.743" stroke="white" stroke-width="0.32" stroke-miterlimit="10" stroke-linecap="round" stroke-linejoin="round"/>
<path d="M61.9571 95.9438L60.2202 94.3457" stroke="white" stroke-width="0.32" stroke-miterlimit="10" stroke-linecap="round" stroke-linejoin="round"/>
<path d="M65.4918 146.285C65.9424 145.834 65.857 145.382 66.0627 143.937C64.6531 143.847 63.5626 142.546 62.7283 141.879C61.6371 141.006 60.3504 141.143 60.3504 141.143C60.3504 141.143 59.0301 141.908 57.7101 142.186C56.3898 142.463 54.5139 143.019 54.5139 143.853C54.5139 144.687 59.5165 145.729 61.2534 146.076C62.9907 146.424 65.0054 146.771 65.4918 146.285Z" fill="white" stroke="#263238" stroke-width="0.32" stroke-miterlimit="10"/>
<path d="M52.9942 72.8767C52.9942 72.8767 54.3142 77.0453 54.2448 78.7826C54.1754 80.5196 51.952 86.7727 51.952 86.7727C51.952 86.7727 51.535 84.2018 51.535 80.3804C51.535 76.5589 52.9942 72.8767 52.9942 72.8767Z" fill="#263238" stroke="#263238" stroke-width="0.32" stroke-miterlimit="10"/>
<path d="M57.7882 55.9237L56.1207 57.4523C56.1207 57.4523 56.6765 62.316 55.6343 66.068C54.592 69.82 52.3687 74.4751 52.7856 76.0037C53.2026 77.5323 53.4803 78.5051 53.4803 79.061C53.4803 79.6168 52.7856 83.3688 51.9517 86.7733C51.1181 90.1778 51.5437 90.4712 51.5437 90.4712C51.5437 90.4712 59.3168 91.4287 65.7783 91.4287C72.2397 91.4287 73.7687 90.5253 73.7687 90.5253C73.7687 90.5253 70.92 73.4331 70.92 68.3611C70.92 63.2891 69.4227 56.4475 69.4227 56.4475L65.9869 54.9515C65.9869 54.9509 61.7488 52.797 57.7882 55.9237Z" fill="white" stroke="#263238" stroke-width="0.32" stroke-miterlimit="10"/>
<path d="M61.0343 79.1409C61.3812 79.2631 61.7357 79.3764 62.0964 79.4775" stroke="#263238" stroke-width="0.32" stroke-miterlimit="10" stroke-linecap="round" stroke-linejoin="round"/>
<path d="M54.8701 75.7952C54.8701 75.7952 57.0557 77.5158 60.0192 78.7504" stroke="#263238" stroke-width="0.32" stroke-miterlimit="10" stroke-linecap="round" stroke-linejoin="round"/>
<path d="M62.0266 77.7405C62.0266 77.7405 64.3194 79.1302 66.8903 79.4774" stroke="#263238" stroke-width="0.32" stroke-miterlimit="10" stroke-linecap="round" stroke-linejoin="round"/>
<path d="M60.6371 76.3511C60.6371 76.3511 63.5552 77.8797 65.9178 78.505" stroke="#263238" stroke-width="0.32" stroke-miterlimit="10" stroke-linecap="round" stroke-linejoin="round"/>
<path d="M69.1837 40.7803C69.1837 40.7803 69.5424 42.036 69.3632 43.2917C69.1837 44.5474 69.1242 45.1454 69.4829 46.1618C69.8416 47.1784 70.3799 47.7163 69.9613 49.6299C69.5428 51.5435 68.586 53.4568 68.2272 53.8754C67.8685 54.2939 66.7322 55.1909 66.7322 55.1909L69.4231 56.4466C69.4231 56.4466 69.1242 58.7787 67.1508 60.0939C65.1773 61.4094 62.2474 61.7682 60.2144 60.7515C58.1815 59.7349 57.0452 56.3864 57.0452 56.3864L59.5565 54.5326L59.0781 51.9614L56.3274 48.3141L59.138 45.3243C59.138 45.3243 59.6762 43.1118 62.3668 41.1986C65.0576 39.285 66.6122 39.3448 67.5092 39.4645C68.4061 39.5842 69.1837 40.7803 69.1837 40.7803Z" fill="white" stroke="#263238" stroke-width="0.32" stroke-miterlimit="10"/>
<path d="M68.9444 42.5144C68.9444 42.5144 68.5258 42.9928 68.466 43.9496C68.4061 44.9064 69.9607 47.597 69.8413 47.8962C69.7216 48.195 68.2269 48.6734 68.2269 48.6734" stroke="#263238" stroke-width="0.32" stroke-miterlimit="10" stroke-linecap="round" stroke-linejoin="round"/>
<path d="M67.6887 50.8257H68.8247" stroke="#263238" stroke-width="0.32" stroke-miterlimit="10" stroke-linecap="round" stroke-linejoin="round"/>
<path d="M66.433 43.0523C66.433 43.0523 64.4599 42.7535 63.5629 44.1285" stroke="#263238" stroke-width="0.32" stroke-miterlimit="10" stroke-linecap="round" stroke-linejoin="round"/>
<path d="M66.9712 45.803C66.9712 45.803 66.7322 46.7598 64.9981 47.4174" stroke="#263238" stroke-width="0.32" stroke-miterlimit="10" stroke-linecap="round" stroke-linejoin="round"/>
<path d="M66.6125 44.8463C66.6125 45.2095 66.4653 45.5039 66.2835 45.5039C66.1018 45.5039 65.9546 45.2095 65.9546 44.8463C65.9546 44.4831 66.1018 44.1887 66.2835 44.1887C66.4653 44.1887 66.6125 44.4831 66.6125 44.8463Z" fill="#263238"/>
<path d="M70.2 38.6276C69.9011 36.8337 68.5856 37.1326 68.2269 36.6545C67.8682 36.1761 67.8682 34.9803 66.433 34.0235C64.9978 33.0667 61.9485 33.9636 61.1709 33.9038C60.3936 33.844 58.5997 33.844 57.9421 34.8008C57.2842 35.7576 57.2842 35.7576 57.2842 35.7576C57.2842 35.7576 55.4304 35.578 54.1747 37.7307C52.9191 39.8833 52.6202 41.6174 53.0986 43.0526C53.577 44.4878 53.4573 45.6238 53.2781 45.6836C53.0986 45.7435 51.9626 44.7867 51.2451 46.5806C50.5277 48.3745 51.544 50.6468 53.0391 50.8859C54.5338 51.1249 55.7898 50.3476 55.8496 51.2446C55.9095 52.1416 55.8496 52.62 57.0455 52.859C58.2413 53.098 59.0784 51.962 59.0784 51.962C59.0784 51.962 57.464 49.331 57.2247 48.1352L58.8989 46.162C58.8989 46.162 59.1978 47.3579 59.8557 47.3579C60.5136 47.3579 60.3939 46.5208 60.5133 45.6238C61.1114 45.2651 60.3936 44.3681 60.5731 43.7102C60.7527 43.0526 61.769 42.2155 62.1875 42.3947C62.6061 42.5742 63.6826 42.8731 64.9981 42.2152C66.3136 41.5576 65.8352 40.2417 66.3136 40.1822C66.792 40.1224 66.5527 41.5576 67.8087 41.6174C69.064 41.6772 70.4989 40.4216 70.2 38.6276Z" fill="#D9D9D9" stroke="#A1A1A1" stroke-width="0.32" stroke-miterlimit="10"/>
<path d="M59.0781 51.962C59.0781 51.962 59.9751 52.4404 60.2141 50.7661L59.0781 51.962Z" fill="white"/>
<path d="M59.0781 51.962C59.0781 51.962 59.9751 52.4404 60.2141 50.7661" stroke="#263238" stroke-width="0.32" stroke-miterlimit="10"/>
<path d="M67.8682 54.1146C67.8682 54.1146 65.5959 54.7722 64.5197 53.696" stroke="#263238" stroke-width="0.32" stroke-miterlimit="10" stroke-linecap="round" stroke-linejoin="round"/>
<path d="M59.5565 54.5332L59.9152 57.2241" stroke="#263238" stroke-width="0.32" stroke-miterlimit="10"/>
<path d="M66.7319 55.1909C66.7319 55.1909 64.9978 56.0879 64.5792 56.1477" stroke="#263238" stroke-width="0.32" stroke-miterlimit="10" stroke-linecap="round" stroke-linejoin="round"/>
<path d="M57.0451 56.3867C57.0451 56.3867 51.544 60.1538 49.9296 61.828C48.3152 63.5022 48.7936 66.6117 49.6307 68.4654C50.4678 70.3192 51.4246 73.1294 51.4246 73.1294C51.4246 73.1294 50.5277 75.2821 50.8864 79.8862C51.2451 84.4904 51.544 90.2309 51.544 90.4699C51.544 90.709 52.3213 85.0286 52.3213 85.0286C52.3213 85.0286 52.2016 80.245 52.441 78.2718C52.68 76.2987 53.3379 74.9234 55.2512 69.6014C57.1648 64.2795 57.5235 61.2898 57.5235 60.1538C57.5235 59.0178 57.0451 56.3867 57.0451 56.3867Z" fill="#778FDD" stroke="#263238" stroke-width="0.32" stroke-miterlimit="10"/>
<path d="M69.4227 56.4465C69.4227 56.4465 68.7651 67.1499 69.0042 70.6779C69.2432 74.2059 73.1898 90.8289 73.1898 90.8289H78.0333C78.0333 90.8289 76.7178 80.9627 76.359 78.212C76.0003 75.4613 75.6416 74.684 75.6416 74.684C75.6416 74.684 75.3427 70.3787 75.4621 65.356C75.5818 60.3333 75.1632 59.9742 74.2662 59.0177C73.3693 58.0609 69.4227 56.4465 69.4227 56.4465Z" fill="#778FDD" stroke="#263238" stroke-width="0.32" stroke-miterlimit="10"/>
<path d="M74.0867 70.7977C74.0867 70.7977 77.9734 78.4515 78.153 79.7072C78.3325 80.9629 75.0435 88.856 75.0435 88.856C75.0435 88.856 76.8973 89.5139 77.6746 89.9321C78.4518 90.3507 79.3488 91.0682 79.3488 91.0682C79.3488 91.0682 83.8931 84.4307 84.0128 80.6637C84.1325 76.8966 82.0397 71.9334 81.3219 69.9005C80.6042 67.8675 78.5712 61.7085 76.9568 60.3331C75.3424 58.9578 72.5917 57.8816 72.5917 57.8816" fill="#778FDD"/>
<path d="M74.0867 70.7977C74.0867 70.7977 77.9734 78.4515 78.153 79.7072C78.3325 80.9629 75.0435 88.856 75.0435 88.856C75.0435 88.856 76.8973 89.5139 77.6746 89.9321C78.4518 90.3507 79.3488 91.0682 79.3488 91.0682C79.3488 91.0682 83.8931 84.4307 84.0128 80.6637C84.1325 76.8966 82.0397 71.9334 81.3219 69.9005C80.6042 67.8675 78.5712 61.7085 76.9568 60.3331C75.3424 58.9578 72.5917 57.8816 72.5917 57.8816" stroke="#263238" stroke-width="0.32" stroke-miterlimit="10"/>
<path d="M75.0435 88.856C75.0435 88.856 73.1296 90.2243 72.4182 90.7382C71.7069 91.2518 71.4698 93.2675 71.3117 93.6233C71.1536 93.9792 70.5213 94.5324 70.9165 94.6508C71.3117 94.7696 72.2208 94.1766 72.5763 93.5836C72.9318 92.991 72.9715 92.9513 73.0506 92.7932C73.1296 92.6352 73.92 92.4771 74.1178 92.4771C74.3152 92.4771 75.896 93.1488 76.9632 93.0697C78.0304 92.9907 79.3488 91.0684 79.3488 91.0684C79.3488 91.0684 78.1824 89.3449 75.0435 88.856Z" fill="white" stroke="#263238" stroke-width="0.32" stroke-miterlimit="10" stroke-linecap="round" stroke-linejoin="round"/>
<path d="M82.5283 101.628H67.03C66.5881 101.628 66.23 101.27 66.23 100.828C66.23 100.386 66.5881 100.028 67.03 100.028H82.5283C82.9702 100.028 83.3283 100.386 83.3283 100.828C83.3283 101.27 82.9702 101.628 82.5283 101.628Z" fill="white" stroke="#263238" stroke-width="0.32" stroke-miterlimit="10"/>
<path d="M64.7059 126.979C64.6371 126.979 64.567 126.97 64.4976 126.951C64.071 126.836 63.8182 126.397 63.9331 125.971L64.2275 124.876C65.0605 121.783 67.88 119.622 71.0838 119.622H77.9891C81.2217 119.622 84.0477 121.807 84.8608 124.935L85.0739 125.756C85.1853 126.183 84.9286 126.62 84.5011 126.732C84.0746 126.843 83.6368 126.587 83.5257 126.158L83.3123 125.338C82.6822 122.915 80.4931 121.222 77.9891 121.222H71.0838C68.6019 121.222 66.4179 122.896 65.7725 125.292L65.4777 126.386C65.3817 126.743 65.0585 126.979 64.7059 126.979Z" fill="white" stroke="#263238" stroke-width="0.32" stroke-miterlimit="10"/>
<path d="M66.4953 101.628H40.4617C40.0198 101.628 39.6617 101.27 39.6617 100.828C39.6617 100.386 40.0198 100.028 40.4617 100.028H66.4953C66.9373 100.028 67.2953 100.386 67.2953 100.828C67.2953 101.27 66.9373 101.628 66.4953 101.628Z" fill="white" stroke="#263238" stroke-width="0.32" stroke-miterlimit="10"/>
<path d="M62.3101 146.787C62.2826 146.787 62.2547 146.785 62.2266 146.782C61.7869 146.737 61.4678 146.343 61.5133 145.904L66.3971 98.7888C66.7885 95.014 69.9914 92.168 73.8477 92.168H75.9901C79.8858 92.168 83.1661 95.1619 83.4579 98.9846L86.8576 143.499C86.8912 143.939 86.5613 144.324 86.121 144.358C85.6758 144.393 85.296 144.061 85.2624 143.621L81.8627 99.1069C81.6342 96.1133 79.0547 93.7683 75.9901 93.7683H73.8477C70.8141 93.7683 68.2954 95.9977 67.9888 98.9542L63.105 146.069C63.0624 146.48 62.7149 146.787 62.3101 146.787Z" fill="white" stroke="#263238" stroke-width="0.32" stroke-miterlimit="10"/>
<path d="M62.1606 148.553C62.1219 148.553 62.0832 148.551 62.0438 148.547C61.4288 148.484 60.9814 147.933 61.0451 147.318L61.1949 145.871C61.2585 145.256 61.8051 144.808 62.4243 144.873C63.0393 144.936 63.4867 145.487 63.423 146.102L63.2733 147.549C63.2137 148.125 62.7273 148.553 62.1606 148.553Z" fill="#263238" stroke="#263238" stroke-width="0.32" stroke-miterlimit="10"/>
<path d="M73.999 91.3308L73.4854 93.1487C73.4854 93.1487 72.3392 94.8479 72.5766 95.0853C72.8138 95.3224 73.1693 95.4015 73.3273 95.2434C73.4854 95.0853 74.7897 94.0184 74.9081 93.6229C75.0265 93.2277 75.5802 91.054 75.5802 91.054" fill="white"/>
<path d="M73.999 91.3308L73.4854 93.1487C73.4854 93.1487 72.3392 94.8479 72.5766 95.0853C72.8138 95.3224 73.1693 95.4015 73.3273 95.2434C73.4854 95.0853 74.7897 94.0184 74.9081 93.6229C75.0265 93.2277 75.5802 91.054 75.5802 91.054" stroke="#263238" stroke-width="0.32" stroke-miterlimit="10" stroke-linecap="round" stroke-linejoin="round"/>
<path d="M76.8051 91.3309C76.8051 91.3309 76.3702 93.6231 76.2121 93.9789C76.0541 94.3344 74.4336 95.2832 74.1174 95.4016C73.8013 95.5204 73.327 95.2436 73.327 95.2436L74.8681 93.9789L75.5795 91.0544" fill="white"/>
<path d="M76.8051 91.3309C76.8051 91.3309 76.3702 93.6231 76.2121 93.9789C76.0541 94.3344 74.4336 95.2832 74.1174 95.4016C73.8013 95.5204 73.327 95.2436 73.327 95.2436L74.8681 93.9789L75.5795 91.0544" stroke="#263238" stroke-width="0.32" stroke-miterlimit="10" stroke-linecap="round" stroke-linejoin="round"/>
<path d="M79.3488 91.0684C79.3488 91.0684 78.9392 93.0696 78.9392 93.3858C78.9392 93.702 77.5165 94.8085 76.9632 94.9269C76.4099 95.0456 75.6985 95.2431 75.6985 95.2431C75.6985 95.2431 76.8841 94.413 77.0819 93.9784C77.2793 93.5436 77.319 92.0418 77.319 92.0418" fill="white"/>
<path d="M79.3488 91.0684C79.3488 91.0684 78.9392 93.0696 78.9392 93.3858C78.9392 93.702 77.5165 94.8085 76.9632 94.9269C76.4099 95.0456 75.6985 95.2431 75.6985 95.2431C75.6985 95.2431 76.8841 94.413 77.0819 93.9784C77.2793 93.5436 77.319 92.0418 77.319 92.0418" stroke="#263238" stroke-width="0.32" stroke-miterlimit="10" stroke-linecap="round" stroke-linejoin="round"/>
<path d="M78.0301 91.6471C78.0301 91.6471 77.6742 93.8999 77.5162 94.2554C77.3581 94.6109 76.2118 94.9667 75.6982 95.2432C75.1846 95.5197 74.8288 95.1642 74.8288 95.1642L76.2122 93.9786L76.8051 91.3306" fill="white"/>
<path d="M78.0301 91.6471C78.0301 91.6471 77.6742 93.8999 77.5162 94.2554C77.3581 94.6109 76.2118 94.9667 75.6982 95.2432C75.1846 95.5197 74.8288 95.1642 74.8288 95.1642L76.2122 93.9786L76.8051 91.3306" stroke="#263238" stroke-width="0.32" stroke-miterlimit="10" stroke-linecap="round" stroke-linejoin="round"/>
<path d="M86.1805 146.27C85.6006 146.27 85.1098 145.823 85.065 145.236L84.9434 143.645C84.8963 143.028 85.3581 142.49 85.9747 142.443C86.593 142.397 87.1296 142.857 87.1766 143.474L87.2982 145.065C87.3453 145.682 86.8835 146.22 86.2669 146.267C86.2378 146.269 86.2093 146.27 86.1805 146.27Z" fill="#263238" stroke="#263238" stroke-width="0.32" stroke-miterlimit="10"/>
<path d="M82.2605 65.0103L81.879 67.2215L84.624 68.6701L85.0816 65.6963L82.2605 65.0103Z" fill="white" stroke="#263238" stroke-width="0.32" stroke-miterlimit="10"/>
<path d="M82.2294 87.6163C82.2294 87.6163 81.7024 96.1814 82.7565 104.483C83.8105 112.784 86.9731 132.872 87.1049 133.662C87.2368 134.453 87.632 139.724 87.632 140.119C87.632 140.514 85.919 143.677 84.4694 144.995C83.0198 146.312 81.7024 146.576 82.8883 147.366C84.0742 148.157 86.0419 148.282 87.2982 148.022C88.5545 147.762 90.3993 146.444 90.3993 146.444L91.9165 145.274C91.9421 145.254 91.9689 145.238 91.9984 145.224C92.208 145.125 93.1292 144.699 93.8256 144.467C94.6163 144.204 94.7481 142.886 94.6163 141.173C94.4899 139.532 93.3958 134.745 93.3046 134.347C93.3001 134.328 93.2979 134.314 93.296 134.294C93.2297 133.565 91.8617 115.396 92.376 109.095C92.903 102.638 93.43 94.0729 93.43 94.0729C93.43 94.0729 96.7241 94.0729 97.7785 94.0729C98.8326 94.0729 101.468 92.36 101.468 92.36L101.863 88.0115C101.863 88.0115 94.4841 88.4067 90.7945 87.6163C87.1049 86.8256 82.4931 85.5078 82.4931 85.5078L82.2294 87.6163Z" fill="#8A8A8A" stroke="#636363" stroke-width="0.32" stroke-miterlimit="10"/>
<path d="M89.6566 141.812C88.9488 141.655 88.416 141.176 88.0752 140.767C87.8707 140.522 87.4829 140.576 87.3418 140.862C86.792 141.98 85.5568 144.006 84.4695 144.994C83.0199 146.312 81.7024 146.576 82.8883 147.366C84.0742 148.157 86.0419 148.282 87.2983 148.022C88.5546 147.761 90.3994 146.444 90.3994 146.444L91.9165 145.274C91.9421 145.254 91.969 145.238 91.9984 145.224C92.208 145.125 93.1293 144.699 93.8256 144.467C94.5318 144.232 94.7123 143.155 94.649 141.707C94.6368 141.431 94.377 141.233 94.1079 141.295C93.0586 141.538 90.6678 142.037 89.6566 141.812Z" fill="white" stroke="#263238" stroke-width="0.32" stroke-miterlimit="10"/>
<path d="M102.917 87.7478C102.917 87.7478 99.0409 110.914 99.0409 111.968C99.0409 113.022 100.829 126.306 100.504 132.646C100.436 133.969 100.15 139.197 99.8864 141.042C99.6227 142.886 99.6227 144.599 99.4912 145.39C99.3593 146.181 98.4371 149.475 96.1968 150.529C93.9568 151.583 92.3753 151.715 91.5849 150.924C90.7942 150.134 91.9801 149.08 92.9027 147.367C93.6595 145.961 93.7955 144.91 93.8198 144.579C93.8249 144.51 93.815 144.444 93.7891 144.38C93.6515 144.04 93.1664 142.812 93.1664 142.359C93.1664 141.832 93.9571 140.91 93.8252 139.329C93.6934 137.747 90.6627 119.109 90.5308 112.653C90.399 106.196 90.2672 93.0188 90.2672 93.0188L87.2365 91.8329" fill="#8A8A8A"/>
<path d="M102.917 87.7478C102.917 87.7478 99.0409 110.914 99.0409 111.968C99.0409 113.022 100.829 126.306 100.504 132.646C100.436 133.969 100.15 139.197 99.8864 141.042C99.6227 142.886 99.6227 144.599 99.4912 145.39C99.3593 146.181 98.4371 149.475 96.1968 150.529C93.9568 151.583 92.3753 151.715 91.5849 150.924C90.7942 150.134 91.9801 149.08 92.9027 147.367C93.6595 145.961 93.7955 144.91 93.8198 144.579C93.8249 144.51 93.815 144.444 93.7891 144.38C93.6515 144.04 93.1664 142.812 93.1664 142.359C93.1664 141.832 93.9571 140.91 93.8252 139.329C93.6934 137.747 90.6627 119.109 90.5308 112.653C90.399 106.196 90.2672 93.0188 90.2672 93.0188L87.2365 91.8329" stroke="#636363" stroke-width="0.32" stroke-miterlimit="10"/>
<path d="M90.343 54.4875C90.343 54.4875 86.3779 63.3327 86.4544 65.8488C86.5306 68.365 83.2819 87.2031 83.2819 87.2031C83.2819 87.2031 88.2083 89.2018 91.2582 89.2779C94.3082 89.3541 96.8246 89.3541 96.8246 89.3541C96.8246 89.3541 96.2147 69.661 96.7485 66.1535C97.2822 62.6459 98.8835 55.021 98.8835 55.021L90.343 54.4875Z" fill="#778FDD" stroke="#263238" stroke-width="0.32" stroke-miterlimit="10"/>
<path d="M90.1143 56.3178C90.1143 56.3178 90.8768 57.7664 93.3168 58.224C95.7568 58.6816 97.2819 57.6902 97.2819 57.6902L98.7306 51.2851L94.2317 49.76L91.8122 51.0483L90.1143 56.3178Z" fill="white" stroke="#263238" stroke-width="0.32" stroke-miterlimit="10"/>
<path d="M92.0966 50.4463C92.0966 50.4463 87.6742 51.2851 86.3779 51.5139C85.0816 51.7427 83.9379 52.2764 83.4803 55.0975C83.0227 57.9186 82.2601 65.0102 82.2601 65.0102L84.319 66.0015C84.319 66.0015 84.0902 68.5942 84.319 69.8902C84.5478 71.1865 81.4169 89.3545 81.4169 89.3545L84.0096 90.422C84.0096 90.422 85.8441 77.3628 86.3779 73.2454C86.9117 69.1279 86.8355 67.6028 87.903 63.8665C88.9705 60.1302 92.4781 52.1238 92.5542 51.895C92.6304 51.6662 93.088 50.2175 93.088 50.2175L92.0966 50.4463Z" fill="#263238" stroke="#263238" stroke-width="0.32" stroke-miterlimit="10"/>
<path d="M85.1577 57.3853L85.5388 59.8253C85.5388 59.8253 84.5475 64.4003 84.3187 66.0016" stroke="white" stroke-width="0.32" stroke-miterlimit="10"/>
<path d="M87.8848 61.0112C87.7184 61.5415 87.5699 62.0647 87.4454 62.5703" stroke="white" stroke-width="0.32" stroke-miterlimit="10"/>
<path d="M91.7916 51.8188C91.7916 51.8188 89.7036 55.7958 88.2975 59.776" stroke="white" stroke-width="0.32" stroke-miterlimit="10"/>
<path d="M90.4953 51.6665C90.4953 51.6665 87.9792 55.479 87.5977 57.4614" stroke="white" stroke-width="0.32" stroke-miterlimit="10"/>
<path d="M92.4765 54.3245C92.5133 52.8192 91.8121 51.0486 91.8121 51.0486C91.8121 51.0486 90.0598 51.7789 89.2566 50.9757C88.4534 50.1725 87.7235 47.7632 87.5043 46.449C87.2851 45.1347 86.8474 40.1699 86.8474 40.1699L86.8586 38.9763C86.8586 38.9763 97.2496 33.9091 97.7638 34.4234C98.2777 34.9373 94.239 37.5443 94.239 37.7648C94.239 37.985 96.0381 42.5382 96.6992 42.0608C97.36 41.5834 99.1958 39.6743 99.7101 41.3264C100.224 42.9786 99.857 45.7693 99.2694 46.3568C98.6819 46.9443 98.1312 47.3482 97.911 48.2294C97.6905 49.1107 97.5072 49.3677 97.5072 49.3677C97.5072 49.3677 98.2048 50.6896 97.8742 53.5536" fill="white"/>
<path d="M92.4765 54.3245C92.5133 52.8192 91.8121 51.0486 91.8121 51.0486C91.8121 51.0486 90.0598 51.7789 89.2566 50.9757C88.4534 50.1725 87.7235 47.7632 87.5043 46.449C87.2851 45.1347 86.8474 40.1699 86.8474 40.1699L86.8586 38.9763C86.8586 38.9763 97.2496 33.9091 97.7638 34.4234C98.2777 34.9373 94.239 37.5443 94.239 37.7648C94.239 37.985 96.0381 42.5383 96.6992 42.0608C97.36 41.5834 99.1958 39.6743 99.7101 41.3264C100.224 42.9786 99.857 45.7693 99.2694 46.3568C98.6819 46.9443 98.1312 47.3482 97.911 48.2294C97.6905 49.1107 97.5072 49.3677 97.5072 49.3677C97.5072 49.3677 98.2048 50.6896 97.8742 53.5536" stroke="#263238" stroke-width="0.32" stroke-miterlimit="10"/>
<path d="M91.8121 51.0486L94.2317 49.7603L92.4016 52.8102L91.8121 51.0486Z" fill="#263238" stroke="#263238" stroke-width="0.32" stroke-miterlimit="10"/>
<path d="M88.8918 43.5286C88.8918 43.5286 88.8918 44.1126 88.3078 45.4998C87.7238 46.887 87.7238 46.887 87.7238 46.887C87.7238 46.887 88.3808 47.5439 89.4761 47.1062" stroke="#263238" stroke-width="0.32" stroke-miterlimit="10"/>
<path d="M89.0378 48.3472C89.0378 48.3472 89.768 48.5664 90.1328 48.3472" stroke="#263238" stroke-width="0.32" stroke-miterlimit="10"/>
<path d="M91.5037 43.9331C91.5037 44.2473 91.3475 44.5023 91.1549 44.5023C90.9623 44.5023 90.8061 44.2476 90.8061 43.9331C90.8061 43.6188 90.9623 43.3638 91.1549 43.3638C91.3475 43.3641 91.5037 43.6188 91.5037 43.9331Z" fill="#263238"/>
<path d="M88.456 43.6762C88.456 43.9905 88.2998 44.2452 88.1072 44.2452C87.9145 44.2452 87.7584 43.9905 87.7584 43.6762C87.7584 43.362 87.9145 43.1069 88.1072 43.1069C88.2998 43.1073 88.456 43.362 88.456 43.6762Z" fill="#263238"/>
<path d="M90.3837 42.1342C90.3837 42.1342 91.5219 41.6936 92.2563 42.6849" stroke="#263238" stroke-width="0.32" stroke-miterlimit="10"/>
<path d="M88.768 42.2809C88.768 42.2809 88.1072 41.6934 87.5197 42.391" stroke="#263238" stroke-width="0.32" stroke-miterlimit="10"/>
<path d="M95.609 35.7893C95.609 35.7893 92.9805 36.8844 91.5203 37.7605C90.0602 38.6367 86.8477 40.1698 86.8477 40.1698C86.8477 40.1698 85.2413 39.6588 84.7303 38.1257C84.2192 36.5925 88.7459 32.942 91.3744 31.9196C94.0029 30.8975 96.0471 31.8466 99.0407 33.0146C102.034 34.1829 103.056 37.5413 104.297 40.4617C105.539 43.382 105.246 45.4994 104.517 46.9596C103.786 48.4197 102.472 50.1721 100.428 51.1941C98.3837 52.2162 96.2663 50.3909 96.0471 49.8069C95.8282 49.2229 95.6819 48.5657 95.6819 48.5657C95.6819 48.5657 97.2151 48.3465 97.3613 47.9084C97.5072 47.4703 97.7264 46.229 97.7264 46.229C97.7264 46.229 98.3696 45.6498 98.8947 44.9148C99.6247 43.8927 99.6979 41.5564 98.7488 41.4834C97.7997 41.4105 96.7047 43.0165 96.7047 43.0165C96.7047 43.0165 94.8794 41.8482 93.8573 40.3151C92.8352 38.782 92.616 37.9058 92.616 37.9058L95.609 35.7893Z" fill="#263238" stroke="#263238" stroke-width="0.32" stroke-miterlimit="10"/>
<path d="M98.1203 51.209C98.1203 51.209 96.3667 58.4528 94.9939 62.4179C93.6214 66.3831 94.0025 71.1869 94.2313 75.1517C94.4601 79.1168 95.6144 92.2227 95.6144 92.2227C95.6144 92.2227 100.266 91.5363 101.715 90.7741C103.163 90.0115 105.451 88.2579 105.451 88.2579C105.451 88.2579 102.861 74.3818 102.785 74.1533C102.709 73.9245 102.48 72.0183 102.48 72.0183C102.48 72.0183 105.745 55.7079 104.907 54.4119C104.068 53.1159 98.1203 51.209 98.1203 51.209Z" fill="#263238" stroke="#263238" stroke-width="0.32" stroke-miterlimit="10"/>
<path d="M96.9005 71.1103L96.5955 71.644C96.5955 71.644 88.1315 73.7029 86.9117 73.7029C85.6918 73.7029 83.9379 73.9317 83.4803 73.7029C83.0227 73.4741 81.4979 72.0255 80.8877 71.644C80.2778 71.2629 79.744 71.4152 78.9053 71.1103C78.0666 70.8053 77.6851 69.6616 77.304 70.2716C76.9229 70.8815 77.5328 71.644 77.8378 71.8728C78.1427 72.1016 79.2864 72.7116 79.2864 72.7116C79.2864 72.7116 76.0374 74.2933 75.6413 74.6844C75.2451 75.0754 75.2451 75.4565 75.2451 75.4565L75.9312 76.1429C75.9312 76.1429 76.0838 77.1343 76.3123 77.3631C76.5411 77.5919 76.9987 77.973 76.9987 77.973C76.9987 77.973 76.9987 78.4306 77.4563 78.5068C77.9139 78.5829 78.295 78.5068 79.5914 78.4306C80.8877 78.3544 84.1664 77.1343 84.1664 77.1343C84.1664 77.1343 91.7152 77.2869 93.1638 77.2869C94.6125 77.2869 101.032 77.132 101.489 76.7506C101.947 76.3695 103.076 71.7205 103.076 71.7205C103.076 71.7205 98.6541 69.7378 96.9005 71.1103Z" fill="white" stroke="#263238" stroke-width="0.32" stroke-miterlimit="10"/>
<path d="M99.4167 58.8341L96.9005 71.1106C96.9005 71.1106 97.8919 71.1106 99.2644 71.4917C100.637 71.8728 102.314 72.8642 102.314 72.8642C102.314 72.8642 102.848 72.788 103.077 71.7205C103.306 70.653 103.687 68.7467 103.687 68.7467C103.687 68.7467 106.432 60.893 106.661 59.1391C106.889 57.3855 106.432 54.7167 105.669 53.8776C104.907 53.0389 100.713 52.5813 100.713 52.5813" fill="#263238"/>
<path d="M99.4167 58.8341L96.9005 71.1106C96.9005 71.1106 97.8919 71.1106 99.2644 71.4917C100.637 71.8728 102.314 72.8642 102.314 72.8642C102.314 72.8642 102.848 72.788 103.077 71.7205C103.306 70.653 103.687 68.7467 103.687 68.7467C103.687 68.7467 106.432 60.893 106.661 59.1391C106.889 57.3855 106.432 54.7167 105.669 53.8776C104.907 53.0389 100.713 52.5813 100.713 52.5813" stroke="#263238" stroke-width="0.32" stroke-miterlimit="10"/>
<path d="M97.9805 69.6361L98.8566 59.998" stroke="white" stroke-width="0.32" stroke-miterlimit="10"/>
<path d="M97.5866 67.9842L97.5383 67.9983L96.5952 71.6444C96.5952 71.6444 97.5431 71.4233 98.9155 71.8044C100.288 72.1855 102.772 73.5606 102.772 73.5606C102.772 73.5606 103.603 72.8623 103.831 71.7948C103.975 71.1247 103.986 69.2594 103.686 68.7468C100.855 65.7372 97.5866 67.9842 97.5866 67.9842Z" fill="white" stroke="#263238" stroke-width="0.32" stroke-miterlimit="10"/>
<path d="M99.5324 145.08C99.5696 144.732 99.2032 144.482 98.8924 144.641C97.9798 145.107 96.8531 145.609 96.2281 145.609C95.5635 145.609 94.8774 145.239 94.4092 144.921C94.1484 144.743 93.7932 144.884 93.7276 145.193C93.6188 145.706 93.3891 146.463 92.9027 147.366C91.9804 149.079 90.7942 150.133 91.5849 150.924C92.3756 151.715 93.9568 151.583 96.1968 150.529C98.4368 149.475 99.3593 146.18 99.4912 145.39C99.5068 145.298 99.5203 145.195 99.5324 145.08Z" fill="white" stroke="#263238" stroke-width="0.32" stroke-miterlimit="10"/>
</svg>
