<svg width="48" height="49" viewBox="0 0 48 49" fill="none" xmlns="http://www.w3.org/2000/svg">
<g clip-path="url(#clip0_7_501)">
<path d="M33.7807 2.73126H40.9146V5.4243H33.7807V2.73126Z" fill="#E84857"/>
<path d="M41.9196 15.2271L41.8588 15.3204V42.0724C41.8588 44.3899 39.9799 46.2688 37.6624 46.2688H10.4908C8.17331 46.2688 6.29437 44.3899 6.29437 42.0724V15.0875L20.3984 5.9373C22.589 4.51578 25.411 4.51578 27.6015 5.9373L33.744 9.92178L33.7807 9.86513V2.73126H40.9146V14.5745L41.9196 15.2271Z" fill="#B1C9F0"/>
<path d="M40.9146 2.73126V14.5745L33.744 9.92178L33.7807 9.86513V2.73126H40.9146Z" fill="#B1C9F0"/>
<path d="M41.9196 15.2271L41.8588 15.3204V19.3343L27.1452 9.78854C25.2348 8.54851 22.7663 8.54851 20.8548 9.78854L6.29437 19.2357V15.0875L20.3984 5.9373C22.589 4.51577 25.411 4.51577 27.6015 5.9373C29.3875 7.09582 37.8752 12.6012 41.9196 15.2271Z" fill="#92ACE7"/>
<path d="M30.1547 26.3597V31.221C30.1547 32.6604 28.9873 33.8278 27.5479 33.8278C27.5409 33.9075 27.0555 39.7424 27.0428 39.8917C26.9301 41.2431 25.8007 42.2822 24.4451 42.2822H23.6053C22.2498 42.2822 21.1204 41.243 21.0077 39.8917L20.5025 33.8278C19.0632 33.8278 17.8957 32.6604 17.8957 31.221V26.3597C17.8957 24.492 19.4098 22.978 21.2775 22.978H26.7729C28.6407 22.978 30.1547 24.492 30.1547 26.3597Z" fill="#CFDFF6"/>
<path d="M26.842 25.0868C25.9987 25.0882 24.8836 25.0916 23.3912 25.0916C21.5236 25.0916 20.0093 26.6064 20.0093 28.474C20.0093 29.7043 20.0085 30.6331 20.008 31.338C20.0069 32.6741 18.0171 32.7737 17.905 31.4424C17.8898 31.2618 17.8958 26.2892 17.8958 26.3597C17.8958 24.4919 19.4099 22.9779 21.2776 22.9779C27.1879 22.9779 26.8049 22.9768 26.8963 22.9801C28.2623 23.0292 28.2089 25.0843 26.842 25.0868Z" fill="#F0F6FD"/>
<path d="M24.0261 20.0966C26.1265 20.0966 27.8292 18.3939 27.8292 16.2936C27.8292 14.1932 26.1265 12.4905 24.0261 12.4905C21.9258 12.4905 20.2231 14.1932 20.2231 16.2936C20.2231 18.3939 21.9258 20.0966 24.0261 20.0966Z" fill="#CFDFF6"/>
<path d="M25.0249 14.7667C23.8367 15.1437 22.877 16.1058 22.5004 17.2937C22.1616 18.3626 20.6195 18.314 20.3408 17.2279C19.6282 14.4507 22.1886 11.8993 24.9577 12.6075C26.0433 12.8851 26.093 14.4277 25.0249 14.7667ZM22.4823 39.8342C22.5613 40.7826 21.138 40.9469 21.0192 40.0025C21.0089 39.9209 21.0428 40.3133 20.5025 33.8278H21.0744C21.3218 33.8277 21.5602 33.9207 21.7423 34.0883C21.9244 34.2558 22.0368 34.4857 22.0573 34.7323L22.4823 39.8342Z" fill="#F0F6FD"/>
<path d="M42.6984 20.461V42.0724C42.6984 44.8492 40.4395 47.1081 37.6627 47.1081H10.4911C7.71444 47.1081 5.45542 44.8492 5.45542 42.0724V20.1463C5.45542 19.9237 5.54384 19.7102 5.70124 19.5528C5.85863 19.3954 6.07211 19.307 6.2947 19.307C6.51729 19.307 6.73076 19.3954 6.88815 19.5528C7.04555 19.7102 7.13397 19.9237 7.13397 20.1463V42.0724C7.13397 43.9235 8.63995 45.4295 10.4911 45.4295H37.6627C39.5139 45.4295 41.0198 43.9235 41.0198 42.0724V20.461C41.0198 20.2384 41.1083 20.0249 41.2657 19.8675C41.423 19.7101 41.6365 19.6217 41.8591 19.6217C42.0817 19.6217 42.2952 19.7101 42.4526 19.8675C42.61 20.0249 42.6984 20.2384 42.6984 20.461ZM47.6175 17.9232L34.6203 9.49048V3.57052H40.0756V9.23565C40.0756 9.45824 40.1641 9.67172 40.3215 9.82911C40.4789 9.98651 40.6923 10.0749 40.9149 10.0749C41.1375 10.0749 41.351 9.98651 41.5084 9.82911C41.6658 9.67172 41.7542 9.45824 41.7542 9.23565V3.57052H41.8591C42.0817 3.57052 42.2952 3.4821 42.4526 3.32471C42.61 3.16731 42.6984 2.95384 42.6984 2.73125C42.6984 2.50866 42.61 2.29518 42.4526 2.13779C42.2952 1.98039 42.0817 1.89197 41.8591 1.89197H32.9418C32.7192 1.89197 32.5057 1.98039 32.3483 2.13779C32.1909 2.29518 32.1025 2.50866 32.1025 2.73125C32.1025 2.95384 32.1909 3.16731 32.3483 3.32471C32.5057 3.4821 32.7192 3.57052 32.9418 3.57052V8.40141L28.0585 5.23313C25.5929 3.63337 22.4069 3.63358 19.9415 5.23313L0.38261 17.9232C0.195892 18.0444 0.0649445 18.2347 0.0185725 18.4524C-0.0277995 18.6701 0.0142019 18.8973 0.135338 19.0841C0.195315 19.1765 0.272927 19.2563 0.363739 19.3188C0.454551 19.3812 0.556782 19.4252 0.664593 19.4482C0.772404 19.4711 0.883681 19.4726 0.992067 19.4525C1.10045 19.4325 1.20382 19.3913 1.29627 19.3312L20.8551 6.64123C22.7656 5.40183 25.2345 5.40183 27.145 6.64123C48.1217 20.2513 46.7923 19.4667 47.1598 19.4667C47.3409 19.4669 47.5173 19.4085 47.6625 19.3003C47.8077 19.192 47.914 19.0397 47.9655 18.866C48.017 18.6924 48.0109 18.5067 47.9482 18.3368C47.8855 18.1669 47.7695 18.0218 47.6175 17.9232ZM17.0557 26.3597V31.221C17.0557 32.8532 18.1962 34.2239 19.7221 34.5782L20.1708 39.9616C20.3184 41.7336 21.8268 43.1215 23.6049 43.1215H24.444C24.6666 43.1215 24.88 43.0331 25.0374 42.8757C25.1948 42.7183 25.2833 42.5048 25.2833 42.2822C25.2833 42.0596 25.1948 41.8462 25.0374 41.6888C24.88 41.5314 24.6666 41.443 24.444 41.443H23.6048C22.6928 41.443 21.9191 40.731 21.8434 39.8223L21.338 33.7581C21.3205 33.5483 21.2249 33.3527 21.07 33.2102C20.915 33.0676 20.7122 32.9885 20.5017 32.9885C19.5271 32.9885 18.7342 32.1955 18.7342 31.2209V26.3596C18.7342 24.9576 19.8747 23.8171 21.2767 23.8171H26.7721C28.174 23.8171 29.3146 24.9576 29.3146 26.3596V31.2209C29.3146 32.1955 28.5216 32.9885 27.547 32.9885C27.3365 32.9885 27.1336 33.0676 26.9787 33.2101C26.8237 33.3527 26.728 33.5483 26.7106 33.7581L26.2053 39.8223C26.1869 40.0441 26.2573 40.2642 26.4011 40.4341C26.5449 40.604 26.7503 40.7099 26.9721 40.7284C27.4331 40.7661 27.8397 40.4235 27.8782 39.9616L28.3267 34.5782C29.8527 34.2239 30.9932 32.8532 30.9932 31.221V26.3597C30.9932 24.0321 29.0996 22.1386 26.7721 22.1386H21.2768C18.9492 22.1385 17.0557 24.0321 17.0557 26.3597ZM27.1273 18.6493C27.5481 18.8433 28.0468 18.6604 28.2413 18.2397C29.6594 15.1717 27.4071 11.6487 24.0244 11.6487C21.4638 11.6487 19.3806 13.7319 19.3806 16.2925C19.3806 18.8531 21.4638 20.9363 24.0244 20.9363C24.247 20.9363 24.4605 20.8479 24.6179 20.6905C24.7753 20.5331 24.8637 20.3197 24.8637 20.0971C24.8637 19.8745 24.7753 19.661 24.6179 19.5036C24.4605 19.3462 24.247 19.2578 24.0244 19.2578C22.3894 19.2578 21.0592 17.9275 21.0592 16.2925C21.0592 14.6575 22.3894 13.3272 24.0244 13.3272C26.1819 13.3272 27.6242 15.575 26.7177 17.5353C26.6243 17.7373 26.615 17.9682 26.6918 18.1771C26.7686 18.386 26.9252 18.5559 27.1273 18.6493Z" fill="#778FDD"/>
</g>
<defs>
<clipPath id="clip0_7_501">
<rect width="48" height="48" fill="white" transform="translate(0 0.5)"/>
</clipPath>
</defs>
</svg>
