<svg width="44" height="44" viewBox="0 0 44 44" fill="none" xmlns="http://www.w3.org/2000/svg">
<g clip-path="url(#clip0_8_9426)">
<rect width="44" height="44" rx="16" fill="#ECEDF2"/>
<path d="M22 14.6265C24.3855 14.6265 24.7108 14.6265 25.6867 14.6265C26.5542 14.6265 26.988 14.8434 27.3133 14.9518C27.747 15.1687 28.0723 15.2771 28.3976 15.6024C28.7229 15.9277 28.9398 16.253 29.0482 16.6867C29.1566 17.012 29.2651 17.4458 29.3735 18.3133C29.3735 19.2892 29.3735 19.506 29.3735 22C29.3735 24.494 29.3735 24.7108 29.3735 25.6867C29.3735 26.5542 29.1566 26.988 29.0482 27.3133C28.8313 27.747 28.7229 28.0723 28.3976 28.3976C28.0723 28.7229 27.747 28.9398 27.3133 29.0482C26.988 29.1566 26.5542 29.2651 25.6867 29.3735C24.7108 29.3735 24.494 29.3735 22 29.3735C19.506 29.3735 19.2892 29.3735 18.3133 29.3735C17.4458 29.3735 17.012 29.1566 16.6867 29.0482C16.253 28.8313 15.9277 28.7229 15.6024 28.3976C15.2771 28.0723 15.0602 27.747 14.9518 27.3133C14.8434 26.988 14.7349 26.5542 14.6265 25.6867C14.6265 24.7108 14.6265 24.494 14.6265 22C14.6265 19.506 14.6265 19.2892 14.6265 18.3133C14.6265 17.4458 14.8434 17.012 14.9518 16.6867C15.1687 16.253 15.2771 15.9277 15.6024 15.6024C15.9277 15.2771 16.253 15.0602 16.6867 14.9518C17.012 14.8434 17.4458 14.7349 18.3133 14.6265C19.2892 14.6265 19.6145 14.6265 22 14.6265ZM22 13C19.506 13 19.2892 13 18.3133 13C17.3374 13 16.6867 13.2169 16.1446 13.4337C15.6024 13.6506 15.0602 13.9759 14.5181 14.5181C13.9759 15.0602 13.759 15.494 13.4337 16.1446C13.2169 16.6867 13.1084 17.3374 13 18.3133C13 19.2892 13 19.6145 13 22C13 24.494 13 24.7108 13 25.6867C13 26.6627 13.2169 27.3133 13.4337 27.8554C13.6506 28.3976 13.9759 28.9398 14.5181 29.4819C15.0602 30.0241 15.494 30.241 16.1446 30.5663C16.6867 30.7831 17.3374 30.8916 18.3133 31C19.2892 31 19.6145 31 22 31C24.3855 31 24.7108 31 25.6867 31C26.6627 31 27.3133 30.7831 27.8554 30.5663C28.3976 30.3494 28.9398 30.0241 29.4819 29.4819C30.0241 28.9398 30.241 28.506 30.5663 27.8554C30.7831 27.3133 30.8916 26.6627 31 25.6867C31 24.7108 31 24.3855 31 22C31 19.6145 31 19.2892 31 18.3133C31 17.3374 30.7831 16.6867 30.5663 16.1446C30.3494 15.6024 30.0241 15.0602 29.4819 14.5181C28.9398 13.9759 28.506 13.759 27.8554 13.4337C27.3133 13.2169 26.6627 13.1084 25.6867 13C24.7108 13 24.494 13 22 13Z" fill="#222222"/>
<path d="M22 17.3373C19.3976 17.3373 17.3373 19.3976 17.3373 22C17.3373 24.6024 19.3976 26.6627 22 26.6627C24.6024 26.6627 26.6627 24.6024 26.6627 22C26.6627 19.3976 24.6024 17.3373 22 17.3373ZM22 25.0361C20.3735 25.0361 18.9639 23.7349 18.9639 22C18.9639 20.3735 20.2651 18.9639 22 18.9639C23.6265 18.9639 25.0361 20.2651 25.0361 22C25.0361 23.6265 23.6265 25.0361 22 25.0361Z" fill="#222222"/>
<path d="M26.7711 18.3133C27.3699 18.3133 27.8554 17.8278 27.8554 17.2289C27.8554 16.6301 27.3699 16.1446 26.7711 16.1446C26.1722 16.1446 25.6867 16.6301 25.6867 17.2289C25.6867 17.8278 26.1722 18.3133 26.7711 18.3133Z" fill="#222222"/>
</g>
<rect x="1" y="1" width="42" height="42" rx="13" stroke="white" stroke-width="2"/>
<defs>
<clipPath id="clip0_8_9426">
<rect width="44" height="44" rx="14" fill="white"/>
</clipPath>
</defs>
</svg>
