<svg width="44" height="44" viewBox="0 0 44 44" fill="none" xmlns="http://www.w3.org/2000/svg">
<g clip-path="url(#clip0_8_9423)">
<rect width="44" height="44" rx="16" fill="#ECEDF2"/>
<path d="M23.0931 28.7638C16.2599 28.7638 12.3623 23.9863 12.2 16.0365H15.6228C15.7352 21.8714 18.2587 24.343 20.2574 24.8526V16.0365H23.4804V21.0688C25.4542 20.8522 27.5279 18.559 28.2274 16.0365H31.4504C31.1868 17.3448 30.6613 18.5835 29.9069 19.6751C29.1524 20.7668 28.1852 21.688 27.0657 22.381C28.3153 23.0143 29.419 23.9106 30.3041 25.0108C31.1891 26.111 31.8353 27.3902 32.2 28.7638H28.6522C28.3248 27.5707 27.6594 26.5027 26.7394 25.6936C25.8194 24.8845 24.6857 24.3704 23.4804 24.2156V28.7638H23.0931Z" fill="#222222"/>
<path d="M20.712 24.8526V16.491H23.0259V21.0688V21.576L23.53 21.5206C24.6648 21.3961 25.7701 20.6876 26.6644 19.7271C27.4897 18.8407 28.1722 17.7018 28.5652 16.491H30.8782C30.6017 17.5381 30.1467 18.5286 29.5329 19.4167C28.8138 20.4573 27.8922 21.3347 26.8264 21.9945L26.1382 22.4206L26.8602 22.7865C28.0518 23.3903 29.105 24.2454 29.9499 25.2957C30.6709 26.1921 31.2262 27.2133 31.5901 28.3092H28.9896C28.6122 27.1662 27.94 26.1441 27.0396 25.3523C26.0521 24.4839 24.8343 23.9312 23.5383 23.7647L23.0259 23.6989V24.2156V28.3091C19.7564 28.2935 17.231 27.1458 15.4922 25.0879C13.8018 23.0874 12.815 20.1791 12.6683 16.491H15.1818C15.4141 22.1353 17.9335 24.7292 20.1451 25.293L20.712 25.4376V24.8526Z" stroke="#0B283D" stroke-opacity="0.1" stroke-width="0.909091"/>
</g>
<rect x="1" y="1" width="42" height="42" rx="13" stroke="white" stroke-width="2"/>
<defs>
<clipPath id="clip0_8_9423">
<rect width="44" height="44" rx="14" fill="white"/>
</clipPath>
</defs>
</svg>
