<svg width="44" height="44" viewBox="0 0 44 44" fill="none" xmlns="http://www.w3.org/2000/svg">
<rect x="0.5" y="43.5" width="43" height="43" rx="15.5" transform="rotate(-90 0.5 43.5)" fill="white"/>
<rect x="0.5" y="43.5" width="43" height="43" rx="15.5" transform="rotate(-90 0.5 43.5)" stroke="#D6D8E1"/>
<path d="M30 26.1C30.9791 24.1914 31.2443 21.9959 30.7478 19.9091C30.2514 17.8223 29.0259 15.9814 27.2922 14.7182C25.5586 13.455 23.4308 12.8526 21.2922 13.0194C19.1537 13.1863 17.145 14.1114 15.6282 15.6282C14.1115 17.145 13.1863 19.1536 13.0195 21.2922C12.8526 23.4307 13.4551 25.5585 14.7183 27.2922C15.9815 29.0258 17.8224 30.2513 19.9092 30.7478C21.996 31.2442 24.1915 30.9791 26.1 30L32 32L30 26.1Z" stroke="#222222" stroke-linecap="round" stroke-linejoin="round"/>
</svg>
