<svg width="44" height="44" viewBox="0 0 44 44" fill="none" xmlns="http://www.w3.org/2000/svg">
<g clip-path="url(#clip0_8_9429)">
<rect width="44" height="44" rx="16" fill="#ECEDF2"/>
<path d="M30.5 14.7604L27.8109 29.1429C27.8109 29.1429 27.4347 30.1401 26.4011 29.6618L20.1967 24.6148L20.168 24.6C21.006 23.8016 27.5048 17.6024 27.7888 17.3214C28.2285 16.8862 27.9555 16.6271 27.445 16.9559L17.8456 23.4235L14.1421 22.1015C14.1421 22.1015 13.5593 21.8816 13.5032 21.4033C13.4464 20.9243 14.1613 20.6652 14.1613 20.6652L29.2591 14.3815C29.2591 14.3815 30.5 13.8031 30.5 14.7604Z" fill="#222222"/>
</g>
<rect x="1" y="1" width="42" height="42" rx="13" stroke="white" stroke-width="2"/>
<defs>
<clipPath id="clip0_8_9429">
<rect width="44" height="44" rx="14" fill="white"/>
</clipPath>
</defs>
</svg>
