<svg width="44" height="44" viewBox="0 0 44 44" fill="none" xmlns="http://www.w3.org/2000/svg">
<rect width="44" height="44" rx="16" fill="#F6F7F9"/>
<path d="M23.0931 28.7639C16.2599 28.7639 12.3623 23.9864 12.2 16.0366H15.6228C15.7352 21.8715 18.2587 24.3431 20.2574 24.8527V16.0366H23.4804V21.0689C25.4542 20.8523 27.5279 18.5591 28.2274 16.0366H31.4504C31.1868 17.3449 30.6613 18.5836 29.9069 19.6753C29.1524 20.7669 28.1852 21.6881 27.0657 22.3811C28.3153 23.0144 29.419 23.9107 30.3041 25.0109C31.1891 26.1112 31.8353 27.3903 32.2 28.7639H28.6522C28.3248 27.5708 27.6594 26.5028 26.7394 25.6937C25.8194 24.8847 24.6857 24.3705 23.4804 24.2157V28.7639H23.0931Z" fill="#222222"/>
<path d="M20.712 24.8527V16.4912H23.0259V21.0689V21.5761L23.53 21.5208C24.6648 21.3962 25.7701 20.6877 26.6644 19.7272C27.4897 18.8408 28.1722 17.7019 28.5652 16.4912H30.8782C30.6017 17.5382 30.1467 18.5288 29.5329 19.4168C28.8138 20.4574 27.8922 21.3348 26.8264 21.9947L26.1382 22.4207L26.8602 22.7866C28.0518 23.3904 29.105 24.2455 29.9499 25.2958C30.6709 26.1922 31.2262 27.2134 31.5901 28.3093H28.9896C28.6122 27.1664 27.94 26.1443 27.0396 25.3524C26.0521 24.484 24.8343 23.9313 23.5383 23.7649L23.0259 23.6991V24.2157V28.3092C19.7564 28.2937 17.231 27.1459 15.4922 25.0881C13.8018 23.0875 12.815 20.1793 12.6683 16.4912H15.1818C15.4141 22.1355 17.9335 24.7293 20.1451 25.2932L20.712 25.4377V24.8527Z" stroke="#0B283D" stroke-opacity="0.1" stroke-width="0.909091"/>
</svg>
