<svg width="219" height="37" viewBox="0 0 219 37" fill="none" xmlns="http://www.w3.org/2000/svg">
<g clip-path="url(#clip0_8_9399)">
<path d="M187.756 30.4937C187.582 30.4937 187.375 30.4828 187.156 30.461C186.938 30.4391 186.709 30.4173 186.491 30.3955C186.273 30.3628 186.065 30.3301 185.869 30.2973C185.684 30.2646 185.531 30.221 185.422 30.1882C185.335 30.1555 185.247 30.1228 185.171 30.0791C185.138 30.0682 185.138 30.0573 185.138 30.0246V28.4755C185.138 28.4319 185.16 28.3882 185.193 28.3555C185.236 28.3119 185.291 28.301 185.345 28.301H185.389C185.542 28.3119 185.727 28.3228 185.945 28.3446C186.164 28.3555 186.382 28.3773 186.611 28.3992C186.84 28.421 187.069 28.4428 187.287 28.4537C187.505 28.4646 187.702 28.4755 187.865 28.4755C188.258 28.4755 188.575 28.3882 188.804 28.2246C189.044 28.0501 189.218 27.7555 189.349 27.3082L189.6 26.4573H189.055C188.88 26.4573 188.716 26.4355 188.564 26.4028C188.422 26.3701 188.291 26.3046 188.149 26.2064C188.007 26.1082 187.876 25.9446 187.756 25.7155C187.625 25.4864 187.495 25.1482 187.385 24.7228L184.778 15.7555C184.767 15.7337 184.767 15.7119 184.767 15.6573C184.767 15.5919 184.767 15.5155 184.985 15.5155H187.615C187.669 15.5155 187.702 15.5373 187.724 15.5591C187.767 15.6137 187.8 15.6792 187.822 15.7555L189.611 23.2501C189.633 23.3701 189.72 23.7737 190.025 23.7737H190.353L192.218 15.7555C192.24 15.6901 192.273 15.6246 192.316 15.5701C192.36 15.5264 192.404 15.5155 192.447 15.5155H195.076C195.196 15.5155 195.251 15.5373 195.273 15.5591C195.284 15.581 195.295 15.6355 195.262 15.7446L191.935 27.4064C191.782 27.9301 191.596 28.3992 191.411 28.7919C191.225 29.1737 190.985 29.4901 190.691 29.7301C190.396 29.981 190.015 30.1664 189.545 30.2973C189.044 30.4282 188.455 30.4937 187.756 30.4937ZM174.349 30.3519C174.295 30.3519 174.24 30.3301 174.185 30.2864C174.142 30.2428 174.12 30.1992 174.12 30.1446V16.2682C174.12 16.1592 174.142 16.0719 174.175 16.0392C174.185 16.0282 174.262 15.9628 174.589 15.8646C175.145 15.7228 175.8 15.5919 176.531 15.5046C177.262 15.4064 178.015 15.3628 178.767 15.3628C180.316 15.3628 181.516 15.7882 182.324 16.6392C183.142 17.4901 183.545 18.701 183.545 20.2501V21.7882C183.545 23.2937 183.153 24.4937 182.367 25.3664C181.593 26.2282 180.371 26.6646 178.767 26.6646C178.571 26.6646 178.331 26.6537 178.036 26.6319C177.742 26.6101 177.447 26.5773 177.164 26.5337L176.956 26.501V30.1337C176.956 30.1882 176.935 30.2319 176.891 30.2755C176.825 30.3301 176.782 30.341 176.749 30.341H174.349V30.3519ZM178.767 17.6646C178.44 17.6646 178.124 17.6755 177.829 17.6973C177.545 17.7192 177.305 17.741 177.12 17.7628L176.967 17.7846V24.2755L177.131 24.2973C177.371 24.3191 177.644 24.3519 177.949 24.3737C178.255 24.3955 178.538 24.4173 178.778 24.4173C179.16 24.4173 179.487 24.341 179.738 24.2101C179.989 24.0682 180.196 23.8719 180.338 23.6319C180.48 23.4028 180.578 23.1192 180.633 22.8028C180.687 22.4973 180.72 22.1592 180.72 21.8101V20.261C180.72 19.901 180.687 19.5628 180.633 19.2573C180.578 18.9519 180.469 18.6682 180.338 18.4392C180.196 18.1882 179.989 18.0028 179.738 17.8719C179.465 17.7301 179.149 17.6646 178.767 17.6646ZM161.782 26.6646C161.204 26.6646 160.625 26.5773 160.058 26.4137C159.491 26.2501 158.978 25.9773 158.52 25.5955C158.062 25.2137 157.702 24.7119 157.418 24.0901C157.145 23.4682 157.004 22.6828 157.004 21.7555V20.3701C157.004 19.6064 157.113 18.8973 157.331 18.2755C157.549 17.6537 157.865 17.1301 158.269 16.6937C158.673 16.2682 159.185 15.9301 159.775 15.701C160.364 15.461 161.062 15.3519 161.825 15.3519C162.6 15.3519 163.298 15.4828 163.887 15.7337C164.476 15.9846 164.967 16.3337 165.36 16.7701C165.753 17.2064 166.047 17.741 166.244 18.3519C166.44 18.9628 166.538 19.6501 166.538 20.381V21.5264C166.538 21.7992 166.429 21.821 166.309 21.821H159.807V22.0392C159.807 22.3337 159.84 22.6173 159.905 22.901C159.971 23.1955 160.102 23.4464 160.276 23.6646C160.451 23.8828 160.68 24.0573 160.964 24.1992C161.247 24.3301 161.607 24.3955 162.022 24.3955C162.349 24.3955 162.687 24.3846 163.036 24.3737L164.095 24.3301C164.444 24.3192 164.771 24.2973 165.076 24.2755C165.371 24.2537 165.633 24.2319 165.829 24.1992H165.873C166.069 24.1992 166.069 24.2646 166.069 24.3301V25.8355C166.069 25.9992 166.036 26.0646 166.025 26.0864C166.025 26.0864 165.982 26.141 165.796 26.1846C165.164 26.3482 164.553 26.4682 163.953 26.5446C163.364 26.6319 162.633 26.6646 161.782 26.6646ZM161.804 17.621C161.204 17.621 160.713 17.8282 160.342 18.221C159.982 18.6137 159.796 19.1919 159.796 19.9446V20.2064H163.767V19.9446C163.767 19.181 163.593 18.5919 163.244 18.2101C162.895 17.8173 162.415 17.621 161.804 17.621ZM91.1018 26.6646C90.3164 26.6646 89.6291 26.5446 89.04 26.3155C88.4509 26.0864 87.9491 25.7482 87.5455 25.3337C87.1418 24.9082 86.8364 24.3846 86.6182 23.7846C86.4109 23.1737 86.3018 22.4755 86.3018 21.7119V20.3264C86.3018 19.5628 86.4109 18.8537 86.6182 18.2428C86.8255 17.6319 87.1418 17.1192 87.5455 16.6937C87.9491 16.2682 88.4509 15.941 89.04 15.7119C89.6291 15.4719 90.3273 15.3628 91.1018 15.3628C91.8873 15.3628 92.5746 15.4828 93.1746 15.7119C93.7636 15.941 94.2655 16.2792 94.6582 16.6937C95.0509 17.1192 95.3564 17.6319 95.5636 18.2428C95.7709 18.8537 95.88 19.5519 95.88 20.3264V21.7119C95.88 22.4755 95.7709 23.1846 95.5636 23.7846C95.3564 24.3846 95.0509 24.9082 94.6582 25.3337C94.2655 25.7592 93.7636 26.0864 93.1746 26.3155C92.5746 26.5446 91.8764 26.6646 91.1018 26.6646ZM91.1018 17.6973C90.4691 17.6973 89.9673 17.9264 89.64 18.3737C89.3127 18.8101 89.1491 19.4537 89.1491 20.3046V21.6901C89.1491 22.5301 89.3127 23.1846 89.64 23.6319C89.9782 24.0901 90.4691 24.3191 91.1127 24.3191C92.4 24.3191 93.0546 23.4355 93.0546 21.6901V20.3046C93.0327 18.581 92.3891 17.6973 91.1018 17.6973ZM79.6255 26.6646C78.84 26.6646 78.1527 26.5446 77.5637 26.3155C76.9746 26.0864 76.4727 25.7482 76.0691 25.3337C75.6655 24.9082 75.36 24.3846 75.1418 23.7846C74.9346 23.1737 74.8255 22.4755 74.8255 21.7119V21.0573C74.8255 20.1301 74.8473 19.2355 74.88 18.3955C74.9127 17.5773 75.0655 16.8246 75.3164 16.1592C75.5673 15.5046 75.96 14.9373 76.4836 14.4682C77.0073 13.9992 77.7818 13.6501 78.7637 13.4319L79.7782 13.2137H79.7891C80.1055 13.1046 80.3673 13.0282 80.5855 12.9737C80.8255 12.9192 81.0109 12.8428 81.1418 12.7555C81.2946 12.6573 81.3927 12.5592 81.4582 12.4392C81.5127 12.341 81.5564 12.221 81.5891 12.0901V12.0792V12.0682C81.5891 12.0137 81.6 11.981 81.7091 11.981H84.0982C84.1309 11.981 84.1527 11.9919 84.1637 11.9919C84.1637 11.9919 84.1637 12.0137 84.1637 12.0464C84.1418 12.4501 84.0655 12.821 83.9564 13.1373C83.8473 13.4428 83.6727 13.7264 83.4437 13.9773C83.2146 14.2282 82.9091 14.4464 82.5382 14.6319C82.1673 14.8173 81.6873 14.9701 81.1418 15.0792L79.7891 15.3519H79.7782C79.4727 15.461 79.1673 15.5482 78.8727 15.6137C78.5455 15.6901 78.2727 15.8319 78.0873 16.0282L78.2727 16.3337C78.5237 16.2464 78.7746 16.1919 79.0364 16.1701C79.2982 16.1482 79.5055 16.1373 79.6364 16.1373C80.4218 16.1373 81.1091 16.2573 81.7091 16.4864C82.2982 16.7155 82.8 17.0537 83.1927 17.4682C83.5855 17.8828 83.8909 18.4064 84.0982 19.0064C84.3055 19.6173 84.4146 20.3155 84.4146 21.0792V21.7337C84.4146 22.4973 84.3055 23.1955 84.0982 23.8064C83.8909 24.4064 83.5855 24.9301 83.1927 25.3555C82.8 25.781 82.2982 26.1082 81.7091 26.3373C81.1091 26.5555 80.4109 26.6646 79.6255 26.6646ZM79.6255 18.461C78.9927 18.461 78.5018 18.6682 78.1637 19.0719C77.8255 19.4755 77.6727 20.1192 77.6727 21.0573V21.7119C77.6727 22.6282 77.8364 23.2828 78.1637 23.6973C78.5018 24.1228 78.9927 24.3301 79.6255 24.3301C80.2582 24.3301 80.7491 24.1119 81.0764 23.6973C81.4037 23.2828 81.5564 22.6392 81.5564 21.7119V21.0573C81.5564 20.1192 81.3927 19.4755 81.0764 19.0719C80.7491 18.6682 80.2582 18.461 79.6255 18.461ZM67.0473 26.6646C66.6327 26.6646 66.2182 26.6101 65.8364 26.5119C65.4655 26.4137 65.1273 26.2282 64.8218 25.9882C64.5273 25.7482 64.2873 25.4101 64.1127 25.0064C63.9382 24.5919 63.84 24.0682 63.84 23.4464V23.2719C63.84 22.1701 64.1891 21.3846 64.92 20.8828C65.6618 20.3701 66.8727 20.1082 68.5309 20.1082H69.7746V19.2028C69.7746 18.5592 69.6218 18.1446 69.2946 17.9373C69 17.741 68.6073 17.6537 68.1164 17.6537C67.8 17.6537 67.4727 17.6537 67.1564 17.6646C66.8291 17.6755 66.5127 17.6755 66.2182 17.6973C65.9237 17.7082 65.6509 17.7301 65.4109 17.741L64.8218 17.7846H64.7455C64.68 17.7846 64.6364 17.7737 64.6037 17.741C64.5927 17.7301 64.5709 17.6973 64.5709 17.6101V16.0064C64.5709 15.9082 64.6036 15.7992 64.8109 15.7446C65.1709 15.6573 65.6618 15.5701 66.2836 15.4828C66.8946 15.3955 67.5382 15.3519 68.1927 15.3519C68.88 15.3519 69.5127 15.4282 70.0691 15.5701C70.6146 15.7119 71.0727 15.941 71.4437 16.2464C71.8146 16.5519 72.1091 16.9446 72.3055 17.4246C72.5127 17.9046 72.6109 18.5046 72.6109 19.2028V26.2719C72.6109 26.3264 72.5891 26.3701 72.5455 26.4246C72.5018 26.4682 72.4582 26.4901 72.4037 26.4901H70.2C70.1455 26.4901 70.1018 26.4682 70.0582 26.4246C70.0146 26.381 69.9927 26.3373 69.9927 26.2828V25.6064L69.6982 25.8137C69.3382 26.0755 68.9346 26.2937 68.5309 26.4464C68.1055 26.5882 67.6146 26.6646 67.0473 26.6646ZM68.5309 21.6464C68.1709 21.6464 67.8764 21.6792 67.6364 21.7446C67.3855 21.8101 67.1782 21.9192 67.0255 22.061C66.8727 22.2028 66.7527 22.3882 66.6982 22.6064C66.6437 22.8028 66.6109 23.0319 66.6109 23.2937V23.4682C66.6109 23.9591 66.7418 24.2864 67.0037 24.4501C67.2327 24.5919 67.5709 24.6573 68.04 24.6573C68.3564 24.6573 68.6727 24.6137 68.9564 24.5155C69.24 24.4282 69.5018 24.3192 69.7309 24.1992L69.8291 24.1446V21.6573H68.5309V21.6464ZM56.7055 26.6646C55.9418 26.6646 55.1891 26.6101 54.48 26.5119C53.7709 26.4137 53.16 26.2828 52.6582 26.1191C52.5709 26.0973 52.5055 26.0646 52.4509 26.021C52.44 26.0101 52.4073 25.9882 52.4073 25.9119V24.3301C52.4073 24.2537 52.4291 24.221 52.4509 24.1992C52.4727 24.1773 52.5055 24.1555 52.5818 24.1555H52.6146C53.3127 24.2319 54.0218 24.2755 54.6982 24.3082C55.3855 24.341 56.0073 24.3519 56.5527 24.3519C57.3273 24.3519 57.8618 24.1992 58.2 23.8719C58.5273 23.5555 58.7018 23.0864 58.7018 22.4755V22.1155C58.7018 21.8755 58.68 21.6464 58.6255 21.4282C58.5709 21.1992 58.4837 20.9919 58.3418 20.8173C58.2 20.6319 58.0146 20.4901 57.7746 20.381C57.5346 20.2719 57.2509 20.2282 56.9127 20.2282H53.4327C53.3782 20.2282 53.3346 20.2064 53.3018 20.1628C53.2582 20.1192 53.2364 20.0755 53.2364 20.021V18.3737C53.2364 18.2319 53.28 18.1882 53.4327 18.1882H56.8364C57.1746 18.1882 57.4691 18.1337 57.72 18.0137C57.96 17.9046 58.1673 17.7519 58.3091 17.5664C58.4618 17.381 58.56 17.1737 58.6255 16.9446C58.68 16.7264 58.7127 16.4864 58.7127 16.2464V15.9628C58.7127 15.4501 58.56 15.0355 58.2546 14.7301C57.9491 14.4137 57.3927 14.261 56.5637 14.261C56.2255 14.261 55.8873 14.2719 55.5818 14.2828C55.2764 14.3046 54.96 14.3155 54.6546 14.3373C54.3491 14.3592 54.0218 14.381 53.6946 14.4137C53.3673 14.4464 53.0291 14.4792 52.6582 14.5119H52.6255C52.5491 14.5119 52.5164 14.4901 52.4946 14.4682C52.4727 14.4464 52.4509 14.4137 52.4509 14.3373V12.7555C52.4509 12.7119 52.4618 12.6792 52.4946 12.6573C52.5491 12.6137 52.6146 12.581 52.7018 12.5592C53.2255 12.3955 53.8255 12.2537 54.5127 12.1337C55.2 12.0137 55.9309 11.9482 56.6946 11.9482C57.48 11.9482 58.2 12.0246 58.8218 12.1664C59.4327 12.3082 59.9564 12.5373 60.3709 12.8428C60.7855 13.1482 61.1127 13.5519 61.3309 14.0319C61.56 14.5228 61.6691 15.1337 61.6691 15.8428V16.1155C61.6691 16.661 61.5164 17.2173 61.2109 17.7628C60.9055 18.3082 60.5018 18.7228 60 19.0064L59.7164 19.1701L60.0109 19.3228C60.5346 19.5955 60.9382 19.9773 61.2327 20.4682C61.5273 20.9591 61.6691 21.5155 61.6691 22.1155V22.4755C61.6691 23.1955 61.5491 23.8282 61.3091 24.3519C61.0691 24.8755 60.7309 25.3119 60.3055 25.6392C59.8691 25.9773 59.3455 26.2282 58.7346 26.3919C58.1346 26.5882 57.4473 26.6646 56.7055 26.6646ZM145.145 26.6319C144.611 26.6319 144.033 26.6101 143.433 26.5773C142.833 26.5446 142.233 26.4682 141.655 26.3701C141.491 26.3373 141.393 26.2937 141.36 26.2282C141.327 26.1628 141.295 26.021 141.295 25.7373V15.7664C141.295 15.7119 141.305 15.6137 141.349 15.581C141.404 15.5373 141.469 15.5264 141.535 15.5264H143.924C143.989 15.5264 144.044 15.5482 144.087 15.581C144.12 15.6028 144.131 15.6682 144.131 15.7664V19.2246L144.327 19.2028C144.469 19.1919 144.6 19.181 144.731 19.181H145.145C145.855 19.181 146.52 19.2355 147.142 19.3337C147.753 19.4319 148.287 19.6173 148.745 19.8901C149.193 20.1519 149.553 20.5228 149.815 20.9919C150.076 21.461 150.207 22.0828 150.207 22.8355V22.9882C150.207 23.7519 150.076 24.3737 149.815 24.8428C149.553 25.3119 149.193 25.6828 148.756 25.9446C148.298 26.2064 147.764 26.3919 147.153 26.4791C146.52 26.5773 145.844 26.6319 145.145 26.6319ZM144.131 24.581H144.316C144.382 24.581 144.458 24.581 144.545 24.5919C144.655 24.6028 144.84 24.6028 145.145 24.6028C146.007 24.6028 146.585 24.4828 146.924 24.2319C147.262 23.981 147.436 23.5664 147.436 23.021V22.8682C147.436 22.3337 147.273 21.9082 146.935 21.6246C146.607 21.341 146.018 21.2101 145.135 21.2101C145.025 21.2101 144.884 21.2101 144.687 21.221C144.502 21.2319 144.371 21.2319 144.305 21.2319H144.12V24.581H144.131ZM133.985 26.6319C133.451 26.6319 132.884 26.6101 132.284 26.5773C131.695 26.5446 131.095 26.4682 130.516 26.3701C130.353 26.3482 130.255 26.2937 130.222 26.2392C130.189 26.1737 130.156 26.0428 130.156 25.7482V16.0064C130.156 15.8537 130.189 15.7555 130.255 15.7119C130.353 15.6464 130.484 15.6028 130.636 15.581C131.095 15.5155 131.629 15.461 132.251 15.4173C132.862 15.3737 133.484 15.341 134.095 15.341C134.815 15.341 135.491 15.3955 136.102 15.4828C136.702 15.581 137.215 15.7446 137.64 15.9955C138.055 16.2355 138.382 16.5628 138.622 16.9664C138.862 17.3701 138.982 17.8937 138.982 18.5155V18.7119C138.982 19.6282 138.589 20.2828 137.782 20.7082L137.4 20.9046L137.815 21.0355C138.229 21.1664 138.535 21.4064 138.742 21.7555C138.949 22.1155 139.058 22.5628 139.058 23.1082V23.2501C139.058 23.9155 138.927 24.461 138.665 24.8864C138.404 25.3119 138.044 25.6501 137.596 25.901C137.138 26.1519 136.593 26.3373 135.982 26.4464C135.36 26.5773 134.684 26.6319 133.985 26.6319ZM132.927 24.581H133.113C133.178 24.581 133.265 24.581 133.396 24.5919C133.527 24.6028 133.789 24.6028 134.171 24.6028C134.956 24.6028 135.491 24.4937 135.807 24.2646C136.124 24.0246 136.287 23.6864 136.287 23.2501V23.0864C136.287 22.6937 136.167 22.3555 135.927 22.1046C135.687 21.8428 135.262 21.7119 134.651 21.7119H132.927V24.581ZM133.582 17.3701C133.364 17.3701 133.211 17.381 133.091 17.3919L132.927 17.4137V20.0101H134.651C135.262 20.0101 135.676 19.8901 135.905 19.6501C136.124 19.4101 136.233 19.1155 136.233 18.7664V18.6028C136.233 18.1555 136.058 17.8282 135.709 17.6319C135.393 17.4573 134.858 17.3701 134.084 17.3701H133.582ZM215.607 26.4901C215.575 26.4901 215.52 26.4791 215.455 26.4137C215.389 26.3482 215.378 26.2937 215.378 26.2501V21.1664C215.378 20.9592 215.258 20.8719 215.138 20.861H215.127H215.116C214.996 20.861 214.898 20.9373 214.811 21.0792L211.647 26.1082C211.516 26.3264 211.407 26.4028 211.342 26.4355C211.233 26.4792 211.102 26.501 210.949 26.501H208.745C208.669 26.501 208.615 26.4791 208.549 26.4464C208.505 26.4137 208.495 26.3264 208.495 26.2719V15.7664C208.495 15.6792 208.516 15.6137 208.549 15.581C208.593 15.5373 208.647 15.5264 208.724 15.5264H210.938C211.004 15.5264 211.069 15.5482 211.124 15.5919C211.135 15.6028 211.189 15.6355 211.189 15.7664V21.101C211.189 21.3737 211.375 21.4173 211.429 21.4282H211.44H211.451C211.582 21.4282 211.68 21.3191 211.745 21.2428L215.051 15.9192C215.138 15.7773 215.225 15.6682 215.313 15.6028C215.378 15.5482 215.465 15.5264 215.585 15.5264H217.865C217.92 15.5264 217.975 15.5482 218.018 15.5919C218.073 15.6573 218.084 15.701 218.084 15.7337V26.261C218.084 26.2937 218.073 26.3482 218.007 26.4137C217.953 26.4682 217.898 26.4901 217.833 26.4901H215.607ZM203.465 26.4901C203.389 26.4901 203.324 26.4792 203.269 26.4573C203.258 26.4464 203.204 26.4246 203.127 26.2937L199.942 21.0901V26.261C199.942 26.2937 199.931 26.3482 199.865 26.4246C199.811 26.4901 199.756 26.501 199.724 26.501H197.324C197.291 26.501 197.236 26.4901 197.171 26.4246C197.105 26.3591 197.095 26.3046 197.095 26.2719V15.7337C197.095 15.701 197.105 15.6573 197.171 15.5919C197.236 15.5264 197.291 15.5155 197.335 15.5155H199.735C199.767 15.5155 199.822 15.5264 199.876 15.581C199.942 15.6464 199.942 15.6901 199.942 15.7228V20.7628L203.28 15.7228C203.335 15.6355 203.4 15.581 203.455 15.5482C203.52 15.5155 203.585 15.5046 203.64 15.5046H206.476C206.564 15.5046 206.585 15.5155 206.596 15.5264C206.596 15.5264 206.596 15.5373 206.596 15.5482C206.596 15.5701 206.585 15.6028 206.553 15.6464L202.8 20.7519L206.542 26.3701C206.542 26.381 206.542 26.3919 206.542 26.4137C206.542 26.4901 206.542 26.4901 206.465 26.4901H203.465ZM152.182 26.4901C152.127 26.4901 152.084 26.4682 152.04 26.4246C151.996 26.381 151.975 26.3373 151.975 26.2828V15.7337C151.975 15.6792 151.996 15.6355 152.04 15.581C152.084 15.5373 152.127 15.5155 152.193 15.5155H154.571C154.604 15.5155 154.658 15.5264 154.713 15.581C154.778 15.6464 154.778 15.6901 154.778 15.7228V26.2719C154.778 26.3264 154.756 26.3701 154.713 26.4246C154.669 26.4682 154.625 26.4901 154.56 26.4901H152.182ZM125.215 26.4901C125.171 26.4901 125.127 26.4791 125.062 26.4137C124.996 26.3482 124.985 26.2937 124.985 26.2501V21.1664C124.985 20.9592 124.865 20.8719 124.745 20.861H124.735H124.724C124.604 20.861 124.495 20.9373 124.418 21.0792L121.255 26.1082C121.124 26.3264 121.015 26.4028 120.949 26.4355C120.84 26.4792 120.709 26.501 120.556 26.501H118.353C118.276 26.501 118.222 26.4791 118.156 26.4464C118.113 26.4137 118.102 26.3264 118.102 26.2719V15.7664C118.102 15.6792 118.124 15.6137 118.156 15.581C118.2 15.5373 118.255 15.5264 118.331 15.5264H120.545C120.611 15.5264 120.676 15.5482 120.731 15.5919C120.742 15.6028 120.796 15.6355 120.796 15.7664V21.101C120.796 21.3737 120.982 21.4173 121.036 21.4282H121.047H121.058C121.189 21.4282 121.287 21.3191 121.353 21.2428L124.658 15.9192C124.745 15.7773 124.833 15.6682 124.92 15.6028C124.985 15.5482 125.073 15.5264 125.193 15.5264H127.473C127.527 15.5264 127.582 15.5482 127.625 15.5919C127.68 15.6573 127.691 15.701 127.691 15.7337V26.261C127.691 26.2937 127.68 26.3482 127.615 26.4137C127.56 26.4682 127.505 26.4901 127.44 26.4901H125.215ZM113.607 26.4901C113.509 26.4901 113.433 26.4682 113.378 26.4137C113.313 26.3482 113.269 26.2828 113.258 26.1955L111.338 17.9046C111.316 17.8282 111.251 17.6428 111.087 17.6428C110.913 17.6428 110.858 17.8282 110.836 17.8828L108.949 26.1301C108.927 26.2392 108.884 26.3155 108.818 26.3919C108.764 26.4573 108.698 26.4791 108.622 26.4791H106.571C106.451 26.4791 106.407 26.4355 106.375 26.4028C106.32 26.3482 106.298 26.2828 106.298 26.2064V26.1955C106.309 26.1628 106.309 26.1301 106.309 26.0973L108.665 16.9664C108.742 16.6173 108.862 16.3446 109.036 16.1264C109.211 15.9082 109.407 15.7337 109.625 15.6028C109.844 15.4719 110.084 15.3955 110.335 15.3519C110.596 15.3082 110.858 15.2864 111.109 15.2864C111.393 15.2864 111.676 15.3082 111.96 15.3519C112.233 15.3955 112.495 15.4719 112.735 15.5919C112.964 15.701 113.171 15.8755 113.356 16.0937C113.531 16.3119 113.673 16.6064 113.782 16.9773L116.16 26.141V26.2173C116.16 26.2937 116.138 26.3482 116.073 26.4028C116.007 26.4573 115.931 26.4901 115.833 26.4901H113.607ZM100.451 26.4901C100.385 26.4901 100.342 26.4682 100.287 26.4355C100.244 26.4028 100.233 26.3264 100.233 26.261V17.7737H97.5709C97.4837 17.7737 97.4291 17.7519 97.3964 17.7192C97.3527 17.6646 97.3418 17.6101 97.3418 17.5446V15.7664C97.3418 15.701 97.3637 15.6355 97.4073 15.5701C97.4182 15.5482 97.4509 15.5046 97.5709 15.5046H105.709C105.84 15.5046 105.873 15.5482 105.884 15.5591C105.927 15.6137 105.949 15.6792 105.949 15.7555V17.5337C105.949 17.5992 105.927 17.6537 105.884 17.7082C105.873 17.7192 105.84 17.7628 105.709 17.7628H103.069V26.261C103.069 26.3919 103.025 26.4246 103.015 26.4246C102.96 26.4682 102.905 26.4901 102.84 26.4901H100.451Z" fill="#778FDD"/>
<path d="M25.9964 13.6938C25.6473 13.9447 25.4182 14.3265 25.3636 14.752C25.2982 15.2101 25.1782 15.8756 24.9273 16.5956C24.7091 17.2283 23.3455 19.2247 22.2982 21.3411C21.0873 23.7738 20.1818 26.3156 20.1818 26.3156C20.1818 26.3156 19.1564 29.5992 19.8218 32.4029C20.3455 34.5956 21.7091 35.872 22.2764 36.3302C22.4291 36.4501 22.6364 36.472 22.8 36.3847C24.8509 35.2938 38.1055 27.9301 40.8764 17.9592C43.3855 8.92651 39.4146 3.94106 38.0291 2.5447C37.6036 2.11924 36.9491 1.98833 36.4255 2.28288C36.3382 2.33742 36.24 2.40288 36.1527 2.47924C35.9346 2.68651 35.8473 2.94833 35.8255 3.18833C35.7927 3.60288 35.9455 3.9956 36.1855 4.32288C36.9709 5.37015 39.4473 9.21015 38.0727 14.7302C36.4582 21.2429 31.1346 24.1883 31.1346 24.1883C31.1346 24.1883 29.1818 25.3556 27.8618 24.1011C26.5418 22.8465 27.4255 19.4865 27.4255 19.4865C27.4255 19.4865 27.5455 19.0501 27.7418 18.5701C28.0473 17.8283 28.4509 16.8029 28.1782 15.6138C27.8946 14.4029 27.2509 13.8574 26.7927 13.6174C26.5636 13.4865 26.2364 13.5192 25.9964 13.6938Z" fill="#778FDD"/>
<path d="M37.0364 12.8538C36.3818 18.5265 32.1491 21.9084 31.0364 22.7047C31.2109 20.8393 31.1564 18.3847 30.1527 16.2247C28.5818 12.832 25.7346 10.432 24.7418 9.65745C24.3709 9.36291 24.1527 8.88291 24.2509 8.41381C24.2836 8.272 24.3382 8.14109 24.4364 7.99927C24.5891 7.78109 24.8291 7.66109 25.0691 7.61745C25.5164 7.53018 25.9746 7.66109 26.3564 7.92291C26.8691 8.29381 27.8182 9.03563 28.8982 10.2356C30.1091 11.5665 30.9709 13.2793 31.4946 13.9229C31.68 14.1629 31.9091 14.1738 32.0073 14.0538C32.04 14.0211 32.0509 13.912 32.0618 13.7702C32.0836 13.1811 31.9527 12.592 31.7018 12.0575C31.3527 11.3047 30.7091 10.1156 29.6291 8.74109C27.8073 6.42836 25.56 4.50836 25.56 4.50836C25.56 4.50836 24.9382 3.81018 25.4182 3.15563C25.6582 2.83927 26.0618 2.7629 26.4 2.78472C26.7491 2.79563 27.0873 2.90472 27.3927 3.07927C28.0146 3.43927 29.3564 4.35563 30.9055 6.19927C32.5418 8.152 33.3382 9.90836 33.6218 10.6284C33.7418 10.9338 34.0582 11.1629 34.3855 11.1193C34.4618 11.1084 34.5382 11.0865 34.6146 11.0429C34.9746 10.8138 34.8873 10.1047 34.8873 10.1047C34.8873 10.1047 34.6036 8.6429 33.2727 6.38472C32.3018 4.73745 30.9164 3.33018 30.24 2.69745C29.8255 2.30472 29.76 1.66109 30.12 1.22472L30.1309 1.21381C30.2727 1.06109 30.4582 0.973814 30.6546 0.919269C31.0691 0.821087 31.5164 0.930178 31.8764 1.17018C32.5418 1.62836 33.8618 2.68654 34.9746 4.39927C36.3382 6.53745 37.3964 9.77745 37.0364 12.8538Z" fill="#778FDD"/>
<path d="M20.1382 36.5158C20.1382 36.5158 6.27274 29.8831 1.87637 20.9595C1.75637 20.7086 1.63637 20.4577 1.52728 20.2067C1.50546 20.0104 1.23274 17.4904 3.29455 13.9667C5.44365 10.2904 10.2327 9.82129 10.2327 9.82129C10.2327 9.82129 7.22183 12.6467 9.37092 17.6104C11.52 22.574 18.4255 26.7958 18.4255 26.7958C18.4255 26.7958 17.9455 30.1449 18.2509 32.1631C18.5673 34.1922 20.1382 36.5158 20.1382 36.5158Z" fill="#778FDD"/>
<path d="M21.12 17.8393C21.12 17.8393 20.4873 14.163 17.0291 11.6539C13.5818 9.1448 10.2327 9.83207 10.2327 9.83207C10.2327 9.83207 5.44365 10.2903 3.29455 13.9775C1.24365 17.5012 1.50546 20.0212 1.52728 20.2175C0.272736 17.3812 -0.0109004 14.7521 0.152736 12.5048C0.567281 6.94116 4.44001 2.26116 9.88365 1.03935C12.3055 0.482982 15.1418 0.592072 18.0873 2.26116C26.1927 6.85389 21.12 17.8393 21.12 17.8393Z" fill="#778FDD"/>
</g>
<defs>
<clipPath id="clip0_8_9399">
<rect width="218.182" height="36" fill="white" transform="translate(0 0.625)"/>
</clipPath>
</defs>
</svg>
