<svg width="97" height="130" viewBox="0 0 97 130" fill="none" xmlns="http://www.w3.org/2000/svg">
<ellipse opacity="0.1" cx="48.5" cy="114" rx="36" ry="16" fill="#0F172A"/>
<g filter="url(#filter0_d_8_9304)">
<rect x="6" y="2" width="85" height="85" rx="24" fill="#E4EEFB"/>
<rect x="10" y="6" width="77" height="77" rx="20" stroke="white" stroke-width="8"/>
<path d="M53.8857 39.956C53.5367 40.2069 53.3076 40.5887 53.253 41.0142C53.1876 41.4724 53.0676 42.1378 52.8167 42.8578C52.5985 43.4905 51.2348 45.4869 50.1876 47.6033C48.9767 50.036 48.0712 52.5778 48.0712 52.5778C48.0712 52.5778 47.0457 55.8614 47.7112 58.6651C48.2348 60.8578 49.5985 62.1342 50.1657 62.5924C50.3185 62.7124 50.5257 62.7342 50.6894 62.6469C52.7403 61.556 65.9948 54.1924 68.7657 44.2214C71.2748 35.1887 67.3039 30.2033 65.9185 28.8069C65.493 28.3814 64.8385 28.2505 64.3148 28.5451C64.2276 28.5996 64.1294 28.6651 64.0421 28.7414C63.8239 28.9487 63.7367 29.2105 63.7148 29.4505C63.6821 29.8651 63.8348 30.2578 64.0748 30.5851C64.8603 31.6324 67.3367 35.4724 65.9621 40.9924C64.3476 47.5051 59.0239 50.4505 59.0239 50.4505C59.0239 50.4505 57.0712 51.6178 55.7512 50.3633C54.4312 49.1087 55.3148 45.7487 55.3148 45.7487C55.3148 45.7487 55.4348 45.3124 55.6312 44.8324C55.9367 44.0905 56.3403 43.0651 56.0676 41.876C55.7839 40.6651 55.1403 40.1196 54.6821 39.8796C54.453 39.7487 54.1257 39.7814 53.8857 39.956Z" fill="#5A6CCE"/>
<path d="M64.9257 39.116C64.2712 44.7887 60.0384 48.1706 58.9257 48.9669C59.1003 47.1015 59.0457 44.6469 58.0421 42.4869C56.4712 39.0942 53.6239 36.6942 52.6312 35.9197C52.2603 35.6251 52.0421 35.1451 52.1403 34.676C52.173 34.5342 52.2275 34.4033 52.3257 34.2615C52.4784 34.0433 52.7184 33.9233 52.9584 33.8797C53.4057 33.7924 53.8639 33.9233 54.2457 34.1851C54.7584 34.556 55.7075 35.2978 56.7875 36.4978C57.9984 37.8287 58.8603 39.5415 59.3839 40.1851C59.5694 40.4251 59.7984 40.436 59.8966 40.316C59.9294 40.2833 59.9403 40.1742 59.9512 40.0324C59.973 39.4433 59.8421 38.8542 59.5912 38.3197C59.2421 37.5669 58.5984 36.3778 57.5184 35.0033C55.6966 32.6906 53.4494 30.7706 53.4494 30.7706C53.4494 30.7706 52.8275 30.0724 53.3075 29.4178C53.5475 29.1015 53.9512 29.0251 54.2894 29.0469C54.6384 29.0578 54.9766 29.1669 55.2821 29.3415C55.9039 29.7015 57.2457 30.6178 58.7948 32.4615C60.4312 34.4142 61.2275 36.1706 61.5112 36.8906C61.6312 37.196 61.9475 37.4251 62.2748 37.3815C62.3512 37.3706 62.4275 37.3487 62.5039 37.3051C62.8639 37.076 62.7766 36.3669 62.7766 36.3669C62.7766 36.3669 62.493 34.9051 61.1621 32.6469C60.1912 30.9997 58.8057 29.5924 58.1294 28.9597C57.7148 28.5669 57.6494 27.9233 58.0094 27.4869L58.0203 27.476C58.1621 27.3233 58.3475 27.236 58.5439 27.1815C58.9584 27.0833 59.4057 27.1924 59.7657 27.4324C60.4312 27.8906 61.7512 28.9487 62.8639 30.6615C64.2275 32.7997 65.2857 36.0397 64.9257 39.116Z" fill="#424F97"/>
<path d="M48.0276 62.778C48.0276 62.778 34.1621 56.1453 29.7658 47.2217C29.6458 46.9708 29.5258 46.7199 29.4167 46.469C29.3948 46.2726 29.1221 43.7526 31.1839 40.229C33.333 36.5526 38.1221 36.0835 38.1221 36.0835C38.1221 36.0835 35.1112 38.909 37.2603 43.8726C39.4094 48.8362 46.3148 53.058 46.3148 53.058C46.3148 53.058 45.8348 56.4071 46.1403 58.4253C46.4567 60.4544 48.0276 62.778 48.0276 62.778Z" fill="#99426B"/>
<path d="M49.0094 44.1016C49.0094 44.1016 48.3767 40.4252 44.9185 37.9161C41.4712 35.407 38.1221 36.0943 38.1221 36.0943C38.1221 36.0943 33.333 36.5525 31.1839 40.2397C29.133 43.7634 29.3948 46.2834 29.4167 46.4797C28.1621 43.6434 27.8785 41.0143 28.0421 38.767C28.4567 33.2034 32.3294 28.5234 37.773 27.3016C40.1948 26.7452 43.0312 26.8543 45.9767 28.5234C54.0821 33.1161 49.0094 44.1016 49.0094 44.1016Z" fill="#D85D97"/>
</g>
<g filter="url(#filter1_d_8_9304)">
<path d="M48.5129 89V109L48.4893 108.75C47.3946 97.151 38.1272 88.0134 26.5135 87.0823L25.4872 87H48.5129L48.5129 89Z" fill="white"/>
<path d="M48.4872 89V109L48.5107 108.75C49.6055 97.151 58.8729 88.0134 70.4865 87.0823L71.5129 87H48.4872L48.4872 89Z" fill="white"/>
</g>
<defs>
<filter id="filter0_d_8_9304" x="0" y="0" width="97" height="97" filterUnits="userSpaceOnUse" color-interpolation-filters="sRGB">
<feFlood flood-opacity="0" result="BackgroundImageFix"/>
<feColorMatrix in="SourceAlpha" type="matrix" values="0 0 0 0 0 0 0 0 0 0 0 0 0 0 0 0 0 0 127 0" result="hardAlpha"/>
<feOffset dy="4"/>
<feGaussianBlur stdDeviation="3"/>
<feColorMatrix type="matrix" values="0 0 0 0 0 0 0 0 0 0 0 0 0 0 0 0 0 0 0.06 0"/>
<feBlend mode="normal" in2="BackgroundImageFix" result="effect1_dropShadow_8_9304"/>
<feBlend mode="normal" in="SourceGraphic" in2="effect1_dropShadow_8_9304" result="shape"/>
</filter>
<filter id="filter1_d_8_9304" x="19.4872" y="85" width="58.0257" height="34" filterUnits="userSpaceOnUse" color-interpolation-filters="sRGB">
<feFlood flood-opacity="0" result="BackgroundImageFix"/>
<feColorMatrix in="SourceAlpha" type="matrix" values="0 0 0 0 0 0 0 0 0 0 0 0 0 0 0 0 0 0 127 0" result="hardAlpha"/>
<feOffset dy="4"/>
<feGaussianBlur stdDeviation="3"/>
<feColorMatrix type="matrix" values="0 0 0 0 0 0 0 0 0 0 0 0 0 0 0 0 0 0 0.06 0"/>
<feBlend mode="normal" in2="BackgroundImageFix" result="effect1_dropShadow_8_9304"/>
<feBlend mode="normal" in="SourceGraphic" in2="effect1_dropShadow_8_9304" result="shape"/>
</filter>
</defs>
</svg>
