<svg width="55" height="13" viewBox="0 0 55 13" fill="none" xmlns="http://www.w3.org/2000/svg">
<path d="M15.2395 7.44734V1.52002H17.3836V7.37315C17.3836 8.74846 18.1883 9.69386 19.7222 9.69386C21.256 9.69386 22.0444 8.74751 22.0444 7.37315V1.52002H24.2039V7.43307C24.2039 9.88694 22.7438 11.5571 19.7222 11.5571C16.6986 11.5571 15.2395 9.87172 15.2395 7.44734Z" fill="#1B1C1D"/>
<path d="M29.2987 9.98959L30.4445 8.39363C31.1448 9.11838 32.2313 9.72328 33.6013 9.72328C34.7634 9.72328 35.3286 9.19161 35.3286 8.62951C35.3286 6.88517 29.611 8.08262 29.611 4.37234C29.611 2.73167 31.0404 1.37158 33.378 1.37158C34.9569 1.37158 36.2665 1.84428 37.2495 2.74689L36.073 4.28388C35.2702 3.54487 34.1972 3.20532 33.1845 3.20532C32.2763 3.20532 31.7704 3.60384 31.7704 4.19543C31.7704 5.76191 37.4727 4.71283 37.4727 8.39363C37.4727 10.1969 36.1774 11.557 33.4978 11.557C31.5922 11.557 30.2223 10.9207 29.2987 9.98959Z" fill="#1B1C1D"/>
<path d="M42.4335 6.41709C42.4335 3.4211 44.6398 1.27539 47.6577 1.27539C50.6898 1.27539 52.8962 3.4211 52.8962 6.41709C52.8962 9.41214 50.6898 11.5578 47.6577 11.5578C44.6398 11.5578 42.4335 9.41214 42.4335 6.41709ZM50.7042 6.41709C50.7042 4.55482 49.5038 3.15383 47.6577 3.15383C45.8115 3.15383 44.6255 4.55482 44.6255 6.41709C44.6255 8.2651 45.8115 9.68035 47.6577 9.68035C49.5038 9.68035 50.7042 8.2651 50.7042 6.41709Z" fill="#1B1C1D"/>
<path d="M7.91053 7.62425C8.98257 7.37315 10.0853 6.44202 10.0853 4.69768C10.0853 2.86489 8.81971 1.52002 6.74939 1.52002H2.10291V3.36708H4.21729H4.37441H6.43707C7.28589 3.36708 7.92586 3.86926 7.92586 4.69768C7.92586 5.52515 7.28493 6.02828 6.43707 6.02828H4.37441H4.21729H2.10386V11.3792H4.21825V7.87629H5.7674L7.71701 11.3802H10.1447L7.91053 7.62425Z" fill="#1B1C1D"/>
</svg>
