<svg width="17" height="17" viewBox="0 0 17 17" fill="none" xmlns="http://www.w3.org/2000/svg">
<path d="M16.3747 13.6617C16.3747 13.93 16.3151 14.2058 16.1884 14.4741C16.0617 14.7424 15.8977 14.9959 15.6816 15.2344C15.3164 15.6368 14.9139 15.9275 14.4592 16.1138C14.012 16.3002 13.5276 16.3971 13.0059 16.3971C12.2456 16.3971 11.4332 16.2182 10.5761 15.853C9.719 15.4878 8.86188 14.9959 8.01222 14.3772C7.1551 13.7512 6.3427 13.058 5.56757 12.2903C4.79989 11.5152 4.10674 10.7028 3.48812 9.85314C2.87696 9.00347 2.38505 8.15381 2.02729 7.31159C1.66954 6.46193 1.49066 5.64953 1.49066 4.8744C1.49066 4.36758 1.5801 3.88312 1.75898 3.43593C1.93785 2.98128 2.22108 2.5639 2.6161 2.19124C3.0931 1.72169 3.61483 1.49064 4.16636 1.49064C4.37505 1.49064 4.58374 1.53536 4.77007 1.6248C4.96386 1.71424 5.13528 1.84839 5.26944 2.04218L6.99858 4.47938C7.13274 4.66571 7.22963 4.83713 7.29671 5.0011C7.36379 5.15762 7.40105 5.31414 7.40105 5.45575C7.40105 5.63462 7.34888 5.8135 7.24454 5.98492C7.14765 6.15635 7.00603 6.33522 6.82716 6.5141L6.26071 7.1029C6.17873 7.18489 6.14146 7.28178 6.14146 7.40103C6.14146 7.46066 6.14892 7.51283 6.16382 7.57246C6.18618 7.63208 6.20854 7.6768 6.22345 7.72152C6.35761 7.96748 6.58865 8.28796 6.9166 8.67553C7.25199 9.0631 7.60974 9.45812 7.99731 9.85314C8.39978 10.2482 8.78735 10.6134 9.18237 10.9488C9.56994 11.2767 9.89043 11.5003 10.1438 11.6345C10.1811 11.6494 10.2258 11.6717 10.278 11.6941C10.3376 11.7164 10.3972 11.7239 10.4643 11.7239C10.591 11.7239 10.6879 11.6792 10.7699 11.5972L11.3363 11.0382C11.5227 10.8519 11.7016 10.7103 11.873 10.6208C12.0444 10.5165 12.2158 10.4643 12.4022 10.4643C12.5438 10.4643 12.6928 10.4941 12.8568 10.5612C13.0208 10.6283 13.1922 10.7252 13.3785 10.8519L15.8455 12.6034C16.0393 12.7375 16.1735 12.894 16.2555 13.0804C16.33 13.2667 16.3747 13.453 16.3747 13.6617Z" stroke="#4C5AB6" stroke-width="1.19127" stroke-miterlimit="10"/>
</svg>
