<svg width="219" height="37" viewBox="0 0 219 37" fill="none" xmlns="http://www.w3.org/2000/svg">
<g clip-path="url(#clip0_2_2)">
<path d="M187.756 30.4941C187.582 30.4941 187.375 30.4832 187.156 30.4614C186.938 30.4395 186.709 30.4177 186.491 30.3959C186.273 30.3632 186.065 30.3305 185.869 30.2977C185.684 30.265 185.531 30.2214 185.422 30.1886C185.335 30.1559 185.247 30.1232 185.171 30.0795C185.138 30.0686 185.138 30.0577 185.138 30.025V28.4759C185.138 28.4323 185.16 28.3886 185.193 28.3559C185.236 28.3123 185.291 28.3014 185.345 28.3014H185.389C185.542 28.3123 185.727 28.3232 185.945 28.345C186.164 28.3559 186.382 28.3777 186.611 28.3995C186.84 28.4214 187.069 28.4432 187.287 28.4541C187.505 28.465 187.702 28.4759 187.865 28.4759C188.258 28.4759 188.575 28.3886 188.804 28.225C189.044 28.0505 189.218 27.7559 189.349 27.3086L189.6 26.4577H189.055C188.88 26.4577 188.716 26.4359 188.564 26.4032C188.422 26.3705 188.291 26.305 188.149 26.2068C188.007 26.1086 187.876 25.945 187.756 25.7159C187.625 25.4868 187.495 25.1486 187.385 24.7232L184.778 15.7559C184.767 15.7341 184.767 15.7123 184.767 15.6577C184.767 15.5923 184.767 15.5159 184.985 15.5159H187.615C187.669 15.5159 187.702 15.5377 187.724 15.5595C187.767 15.6141 187.8 15.6795 187.822 15.7559L189.611 23.2505C189.633 23.3705 189.72 23.7741 190.025 23.7741H190.353L192.218 15.7559C192.24 15.6905 192.273 15.625 192.316 15.5705C192.36 15.5268 192.404 15.5159 192.447 15.5159H195.076C195.196 15.5159 195.251 15.5377 195.273 15.5595C195.284 15.5814 195.295 15.6359 195.262 15.745L191.935 27.4068C191.782 27.9305 191.596 28.3995 191.411 28.7923C191.225 29.1741 190.985 29.4905 190.691 29.7305C190.396 29.9814 190.015 30.1668 189.545 30.2977C189.044 30.4286 188.455 30.4941 187.756 30.4941ZM174.349 30.3523C174.295 30.3523 174.24 30.3305 174.185 30.2868C174.142 30.2432 174.12 30.1995 174.12 30.145V16.2686C174.12 16.1595 174.142 16.0723 174.175 16.0395C174.185 16.0286 174.262 15.9632 174.589 15.865C175.145 15.7232 175.8 15.5923 176.531 15.505C177.262 15.4068 178.015 15.3632 178.767 15.3632C180.316 15.3632 181.516 15.7886 182.324 16.6395C183.142 17.4905 183.545 18.7014 183.545 20.2505V21.7886C183.545 23.2941 183.153 24.4941 182.367 25.3668C181.593 26.2286 180.371 26.665 178.767 26.665C178.571 26.665 178.331 26.6541 178.036 26.6323C177.742 26.6105 177.447 26.5777 177.164 26.5341L176.956 26.5014V30.1341C176.956 30.1886 176.935 30.2323 176.891 30.2759C176.825 30.3305 176.782 30.3414 176.749 30.3414H174.349V30.3523ZM178.767 17.665C178.44 17.665 178.124 17.6759 177.829 17.6977C177.545 17.7195 177.305 17.7414 177.12 17.7632L176.967 17.785V24.2759L177.131 24.2977C177.371 24.3195 177.644 24.3523 177.949 24.3741C178.255 24.3959 178.538 24.4177 178.778 24.4177C179.16 24.4177 179.487 24.3414 179.738 24.2105C179.989 24.0686 180.196 23.8723 180.338 23.6323C180.48 23.4032 180.578 23.1195 180.633 22.8032C180.687 22.4977 180.72 22.1595 180.72 21.8105V20.2614C180.72 19.9014 180.687 19.5632 180.633 19.2577C180.578 18.9523 180.469 18.6686 180.338 18.4395C180.196 18.1886 179.989 18.0032 179.738 17.8723C179.465 17.7305 179.149 17.665 178.767 17.665ZM161.782 26.665C161.204 26.665 160.625 26.5777 160.058 26.4141C159.491 26.2505 158.978 25.9777 158.52 25.5959C158.062 25.2141 157.702 24.7123 157.418 24.0905C157.145 23.4686 157.004 22.6832 157.004 21.7559V20.3705C157.004 19.6068 157.113 18.8977 157.331 18.2759C157.549 17.6541 157.865 17.1305 158.269 16.6941C158.673 16.2686 159.185 15.9305 159.775 15.7014C160.364 15.4614 161.062 15.3523 161.825 15.3523C162.6 15.3523 163.298 15.4832 163.887 15.7341C164.476 15.985 164.967 16.3341 165.36 16.7705C165.753 17.2068 166.047 17.7414 166.244 18.3523C166.44 18.9632 166.538 19.6505 166.538 20.3814V21.5268C166.538 21.7995 166.429 21.8214 166.309 21.8214H159.807V22.0395C159.807 22.3341 159.84 22.6177 159.905 22.9014C159.971 23.1959 160.102 23.4468 160.276 23.665C160.451 23.8832 160.68 24.0577 160.964 24.1995C161.247 24.3305 161.607 24.3959 162.022 24.3959C162.349 24.3959 162.687 24.385 163.036 24.3741L164.095 24.3305C164.444 24.3195 164.771 24.2977 165.076 24.2759C165.371 24.2541 165.633 24.2323 165.829 24.1995H165.873C166.069 24.1995 166.069 24.265 166.069 24.3305V25.8359C166.069 25.9995 166.036 26.065 166.025 26.0868C166.025 26.0868 165.982 26.1414 165.796 26.185C165.164 26.3486 164.553 26.4686 163.953 26.545C163.364 26.6323 162.633 26.665 161.782 26.665ZM161.804 17.6214C161.204 17.6214 160.713 17.8286 160.342 18.2214C159.982 18.6141 159.796 19.1923 159.796 19.945V20.2068H163.767V19.945C163.767 19.1814 163.593 18.5923 163.244 18.2105C162.895 17.8177 162.415 17.6214 161.804 17.6214ZM91.1018 26.665C90.3164 26.665 89.6291 26.545 89.04 26.3159C88.4509 26.0868 87.9491 25.7486 87.5455 25.3341C87.1418 24.9086 86.8364 24.385 86.6182 23.785C86.4109 23.1741 86.3018 22.4759 86.3018 21.7123V20.3268C86.3018 19.5632 86.4109 18.8541 86.6182 18.2432C86.8255 17.6323 87.1418 17.1195 87.5455 16.6941C87.9491 16.2686 88.4509 15.9414 89.04 15.7123C89.6291 15.4723 90.3273 15.3632 91.1018 15.3632C91.8873 15.3632 92.5746 15.4832 93.1746 15.7123C93.7636 15.9414 94.2655 16.2795 94.6582 16.6941C95.0509 17.1195 95.3564 17.6323 95.5636 18.2432C95.7709 18.8541 95.88 19.5523 95.88 20.3268V21.7123C95.88 22.4759 95.7709 23.185 95.5636 23.785C95.3564 24.385 95.0509 24.9086 94.6582 25.3341C94.2655 25.7595 93.7636 26.0868 93.1746 26.3159C92.5746 26.545 91.8764 26.665 91.1018 26.665ZM91.1018 17.6977C90.4691 17.6977 89.9673 17.9268 89.64 18.3741C89.3127 18.8105 89.1491 19.4541 89.1491 20.305V21.6905C89.1491 22.5305 89.3127 23.185 89.64 23.6323C89.9782 24.0905 90.4691 24.3195 91.1127 24.3195C92.4 24.3195 93.0546 23.4359 93.0546 21.6905V20.305C93.0327 18.5814 92.3891 17.6977 91.1018 17.6977ZM79.6255 26.665C78.84 26.665 78.1527 26.545 77.5637 26.3159C76.9746 26.0868 76.4727 25.7486 76.0691 25.3341C75.6655 24.9086 75.36 24.385 75.1418 23.785C74.9346 23.1741 74.8255 22.4759 74.8255 21.7123V21.0577C74.8255 20.1305 74.8473 19.2359 74.88 18.3959C74.9127 17.5777 75.0655 16.825 75.3164 16.1595C75.5673 15.505 75.96 14.9377 76.4836 14.4686C77.0073 13.9995 77.7818 13.6505 78.7637 13.4323L79.7782 13.2141H79.7891C80.1055 13.105 80.3673 13.0286 80.5855 12.9741C80.8255 12.9195 81.0109 12.8432 81.1418 12.7559C81.2946 12.6577 81.3927 12.5595 81.4582 12.4395C81.5127 12.3414 81.5564 12.2214 81.5891 12.0905V12.0795V12.0686C81.5891 12.0141 81.6 11.9814 81.7091 11.9814H84.0982C84.1309 11.9814 84.1527 11.9923 84.1637 11.9923C84.1637 11.9923 84.1637 12.0141 84.1637 12.0468C84.1418 12.4505 84.0655 12.8214 83.9564 13.1377C83.8473 13.4432 83.6727 13.7268 83.4437 13.9777C83.2146 14.2286 82.9091 14.4468 82.5382 14.6323C82.1673 14.8177 81.6873 14.9705 81.1418 15.0795L79.7891 15.3523H79.7782C79.4727 15.4614 79.1673 15.5486 78.8727 15.6141C78.5455 15.6905 78.2727 15.8323 78.0873 16.0286L78.2727 16.3341C78.5237 16.2468 78.7746 16.1923 79.0364 16.1705C79.2982 16.1486 79.5055 16.1377 79.6364 16.1377C80.4218 16.1377 81.1091 16.2577 81.7091 16.4868C82.2982 16.7159 82.8 17.0541 83.1927 17.4686C83.5855 17.8832 83.8909 18.4068 84.0982 19.0068C84.3055 19.6177 84.4146 20.3159 84.4146 21.0795V21.7341C84.4146 22.4977 84.3055 23.1959 84.0982 23.8068C83.8909 24.4068 83.5855 24.9305 83.1927 25.3559C82.8 25.7814 82.2982 26.1086 81.7091 26.3377C81.1091 26.5559 80.4109 26.665 79.6255 26.665ZM79.6255 18.4614C78.9927 18.4614 78.5018 18.6686 78.1637 19.0723C77.8255 19.4759 77.6727 20.1195 77.6727 21.0577V21.7123C77.6727 22.6286 77.8364 23.2832 78.1637 23.6977C78.5018 24.1232 78.9927 24.3305 79.6255 24.3305C80.2582 24.3305 80.7491 24.1123 81.0764 23.6977C81.4037 23.2832 81.5564 22.6395 81.5564 21.7123V21.0577C81.5564 20.1195 81.3927 19.4759 81.0764 19.0723C80.7491 18.6686 80.2582 18.4614 79.6255 18.4614ZM67.0473 26.665C66.6327 26.665 66.2182 26.6105 65.8364 26.5123C65.4655 26.4141 65.1273 26.2286 64.8218 25.9886C64.5273 25.7486 64.2873 25.4105 64.1127 25.0068C63.9382 24.5923 63.84 24.0686 63.84 23.4468V23.2723C63.84 22.1705 64.1891 21.385 64.92 20.8832C65.6618 20.3705 66.8727 20.1086 68.5309 20.1086H69.7746V19.2032C69.7746 18.5595 69.6218 18.145 69.2946 17.9377C69 17.7414 68.6073 17.6541 68.1164 17.6541C67.8 17.6541 67.4727 17.6541 67.1564 17.665C66.8291 17.6759 66.5127 17.6759 66.2182 17.6977C65.9237 17.7086 65.6509 17.7305 65.4109 17.7414L64.8218 17.785H64.7455C64.68 17.785 64.6364 17.7741 64.6037 17.7414C64.5927 17.7305 64.5709 17.6977 64.5709 17.6105V16.0068C64.5709 15.9086 64.6036 15.7995 64.8109 15.745C65.1709 15.6577 65.6618 15.5705 66.2836 15.4832C66.8946 15.3959 67.5382 15.3523 68.1927 15.3523C68.88 15.3523 69.5127 15.4286 70.0691 15.5705C70.6146 15.7123 71.0727 15.9414 71.4437 16.2468C71.8146 16.5523 72.1091 16.945 72.3055 17.425C72.5127 17.905 72.6109 18.505 72.6109 19.2032V26.2723C72.6109 26.3268 72.5891 26.3705 72.5455 26.425C72.5018 26.4686 72.4582 26.4905 72.4037 26.4905H70.2C70.1455 26.4905 70.1018 26.4686 70.0582 26.425C70.0146 26.3814 69.9927 26.3377 69.9927 26.2832V25.6068L69.6982 25.8141C69.3382 26.0759 68.9346 26.2941 68.5309 26.4468C68.1055 26.5886 67.6146 26.665 67.0473 26.665ZM68.5309 21.6468C68.1709 21.6468 67.8764 21.6795 67.6364 21.745C67.3855 21.8105 67.1782 21.9195 67.0255 22.0614C66.8727 22.2032 66.7527 22.3886 66.6982 22.6068C66.6437 22.8032 66.6109 23.0323 66.6109 23.2941V23.4686C66.6109 23.9595 66.7418 24.2868 67.0037 24.4505C67.2327 24.5923 67.5709 24.6577 68.04 24.6577C68.3564 24.6577 68.6727 24.6141 68.9564 24.5159C69.24 24.4286 69.5018 24.3195 69.7309 24.1995L69.8291 24.145V21.6577H68.5309V21.6468ZM56.7055 26.665C55.9418 26.665 55.1891 26.6105 54.48 26.5123C53.7709 26.4141 53.16 26.2832 52.6582 26.1195C52.5709 26.0977 52.5055 26.065 52.4509 26.0214C52.44 26.0105 52.4073 25.9886 52.4073 25.9123V24.3305C52.4073 24.2541 52.4291 24.2214 52.4509 24.1995C52.4727 24.1777 52.5055 24.1559 52.5818 24.1559H52.6146C53.3127 24.2323 54.0218 24.2759 54.6982 24.3086C55.3855 24.3414 56.0073 24.3523 56.5527 24.3523C57.3273 24.3523 57.8618 24.1995 58.2 23.8723C58.5273 23.5559 58.7018 23.0868 58.7018 22.4759V22.1159C58.7018 21.8759 58.68 21.6468 58.6255 21.4286C58.5709 21.1995 58.4837 20.9923 58.3418 20.8177C58.2 20.6323 58.0146 20.4905 57.7746 20.3814C57.5346 20.2723 57.2509 20.2286 56.9127 20.2286H53.4327C53.3782 20.2286 53.3346 20.2068 53.3018 20.1632C53.2582 20.1195 53.2364 20.0759 53.2364 20.0214V18.3741C53.2364 18.2323 53.28 18.1886 53.4327 18.1886H56.8364C57.1746 18.1886 57.4691 18.1341 57.72 18.0141C57.96 17.905 58.1673 17.7523 58.3091 17.5668C58.4618 17.3814 58.56 17.1741 58.6255 16.945C58.68 16.7268 58.7127 16.4868 58.7127 16.2468V15.9632C58.7127 15.4505 58.56 15.0359 58.2546 14.7305C57.9491 14.4141 57.3927 14.2614 56.5637 14.2614C56.2255 14.2614 55.8873 14.2723 55.5818 14.2832C55.2764 14.305 54.96 14.3159 54.6546 14.3377C54.3491 14.3595 54.0218 14.3814 53.6946 14.4141C53.3673 14.4468 53.0291 14.4795 52.6582 14.5123H52.6255C52.5491 14.5123 52.5164 14.4905 52.4946 14.4686C52.4727 14.4468 52.4509 14.4141 52.4509 14.3377V12.7559C52.4509 12.7123 52.4618 12.6795 52.4946 12.6577C52.5491 12.6141 52.6146 12.5814 52.7018 12.5595C53.2255 12.3959 53.8255 12.2541 54.5127 12.1341C55.2 12.0141 55.9309 11.9486 56.6946 11.9486C57.48 11.9486 58.2 12.025 58.8218 12.1668C59.4327 12.3086 59.9564 12.5377 60.3709 12.8432C60.7855 13.1486 61.1127 13.5523 61.3309 14.0323C61.56 14.5232 61.6691 15.1341 61.6691 15.8432V16.1159C61.6691 16.6614 61.5164 17.2177 61.2109 17.7632C60.9055 18.3086 60.5018 18.7232 60 19.0068L59.7164 19.1705L60.0109 19.3232C60.5346 19.5959 60.9382 19.9777 61.2327 20.4686C61.5273 20.9595 61.6691 21.5159 61.6691 22.1159V22.4759C61.6691 23.1959 61.5491 23.8286 61.3091 24.3523C61.0691 24.8759 60.7309 25.3123 60.3055 25.6395C59.8691 25.9777 59.3455 26.2286 58.7346 26.3923C58.1346 26.5886 57.4473 26.665 56.7055 26.665ZM145.145 26.6323C144.611 26.6323 144.033 26.6105 143.433 26.5777C142.833 26.545 142.233 26.4686 141.655 26.3705C141.491 26.3377 141.393 26.2941 141.36 26.2286C141.327 26.1632 141.295 26.0214 141.295 25.7377V15.7668C141.295 15.7123 141.305 15.6141 141.349 15.5814C141.404 15.5377 141.469 15.5268 141.535 15.5268H143.924C143.989 15.5268 144.044 15.5486 144.087 15.5814C144.12 15.6032 144.131 15.6686 144.131 15.7668V19.225L144.327 19.2032C144.469 19.1923 144.6 19.1814 144.731 19.1814H145.145C145.855 19.1814 146.52 19.2359 147.142 19.3341C147.753 19.4323 148.287 19.6177 148.745 19.8905C149.193 20.1523 149.553 20.5232 149.815 20.9923C150.076 21.4614 150.207 22.0832 150.207 22.8359V22.9886C150.207 23.7523 150.076 24.3741 149.815 24.8432C149.553 25.3123 149.193 25.6832 148.756 25.945C148.298 26.2068 147.764 26.3923 147.153 26.4795C146.52 26.5777 145.844 26.6323 145.145 26.6323ZM144.131 24.5814H144.316C144.382 24.5814 144.458 24.5814 144.545 24.5923C144.655 24.6032 144.84 24.6032 145.145 24.6032C146.007 24.6032 146.585 24.4832 146.924 24.2323C147.262 23.9814 147.436 23.5668 147.436 23.0214V22.8686C147.436 22.3341 147.273 21.9086 146.935 21.625C146.607 21.3414 146.018 21.2105 145.135 21.2105C145.025 21.2105 144.884 21.2105 144.687 21.2214C144.502 21.2323 144.371 21.2323 144.305 21.2323H144.12V24.5814H144.131ZM133.985 26.6323C133.451 26.6323 132.884 26.6105 132.284 26.5777C131.695 26.545 131.095 26.4686 130.516 26.3705C130.353 26.3486 130.255 26.2941 130.222 26.2395C130.189 26.1741 130.156 26.0432 130.156 25.7486V16.0068C130.156 15.8541 130.189 15.7559 130.255 15.7123C130.353 15.6468 130.484 15.6032 130.636 15.5814C131.095 15.5159 131.629 15.4614 132.251 15.4177C132.862 15.3741 133.484 15.3414 134.095 15.3414C134.815 15.3414 135.491 15.3959 136.102 15.4832C136.702 15.5814 137.215 15.745 137.64 15.9959C138.055 16.2359 138.382 16.5632 138.622 16.9668C138.862 17.3705 138.982 17.8941 138.982 18.5159V18.7123C138.982 19.6286 138.589 20.2832 137.782 20.7086L137.4 20.905L137.815 21.0359C138.229 21.1668 138.535 21.4068 138.742 21.7559C138.949 22.1159 139.058 22.5632 139.058 23.1086V23.2505C139.058 23.9159 138.927 24.4614 138.665 24.8868C138.404 25.3123 138.044 25.6505 137.596 25.9014C137.138 26.1523 136.593 26.3377 135.982 26.4468C135.36 26.5777 134.684 26.6323 133.985 26.6323ZM132.927 24.5814H133.113C133.178 24.5814 133.265 24.5814 133.396 24.5923C133.527 24.6032 133.789 24.6032 134.171 24.6032C134.956 24.6032 135.491 24.4941 135.807 24.265C136.124 24.025 136.287 23.6868 136.287 23.2505V23.0868C136.287 22.6941 136.167 22.3559 135.927 22.105C135.687 21.8432 135.262 21.7123 134.651 21.7123H132.927V24.5814ZM133.582 17.3705C133.364 17.3705 133.211 17.3814 133.091 17.3923L132.927 17.4141V20.0105H134.651C135.262 20.0105 135.676 19.8905 135.905 19.6505C136.124 19.4105 136.233 19.1159 136.233 18.7668V18.6032C136.233 18.1559 136.058 17.8286 135.709 17.6323C135.393 17.4577 134.858 17.3705 134.084 17.3705H133.582ZM215.607 26.4905C215.575 26.4905 215.52 26.4795 215.455 26.4141C215.389 26.3486 215.378 26.2941 215.378 26.2505V21.1668C215.378 20.9595 215.258 20.8723 215.138 20.8614H215.127H215.116C214.996 20.8614 214.898 20.9377 214.811 21.0795L211.647 26.1086C211.516 26.3268 211.407 26.4032 211.342 26.4359C211.233 26.4795 211.102 26.5014 210.949 26.5014H208.745C208.669 26.5014 208.615 26.4795 208.549 26.4468C208.505 26.4141 208.495 26.3268 208.495 26.2723V15.7668C208.495 15.6795 208.516 15.6141 208.549 15.5814C208.593 15.5377 208.647 15.5268 208.724 15.5268H210.938C211.004 15.5268 211.069 15.5486 211.124 15.5923C211.135 15.6032 211.189 15.6359 211.189 15.7668V21.1014C211.189 21.3741 211.375 21.4177 211.429 21.4286H211.44H211.451C211.582 21.4286 211.68 21.3195 211.745 21.2432L215.051 15.9195C215.138 15.7777 215.225 15.6686 215.313 15.6032C215.378 15.5486 215.465 15.5268 215.585 15.5268H217.865C217.92 15.5268 217.975 15.5486 218.018 15.5923C218.073 15.6577 218.084 15.7014 218.084 15.7341V26.2614C218.084 26.2941 218.073 26.3486 218.007 26.4141C217.953 26.4686 217.898 26.4905 217.833 26.4905H215.607ZM203.465 26.4905C203.389 26.4905 203.324 26.4795 203.269 26.4577C203.258 26.4468 203.204 26.425 203.127 26.2941L199.942 21.0905V26.2614C199.942 26.2941 199.931 26.3486 199.865 26.425C199.811 26.4905 199.756 26.5014 199.724 26.5014H197.324C197.291 26.5014 197.236 26.4905 197.171 26.425C197.105 26.3595 197.095 26.305 197.095 26.2723V15.7341C197.095 15.7014 197.105 15.6577 197.171 15.5923C197.236 15.5268 197.291 15.5159 197.335 15.5159H199.735C199.767 15.5159 199.822 15.5268 199.876 15.5814C199.942 15.6468 199.942 15.6905 199.942 15.7232V20.7632L203.28 15.7232C203.335 15.6359 203.4 15.5814 203.455 15.5486C203.52 15.5159 203.585 15.505 203.64 15.505H206.476C206.564 15.505 206.585 15.5159 206.596 15.5268C206.596 15.5268 206.596 15.5377 206.596 15.5486C206.596 15.5705 206.585 15.6032 206.553 15.6468L202.8 20.7523L206.542 26.3705C206.542 26.3814 206.542 26.3923 206.542 26.4141C206.542 26.4905 206.542 26.4905 206.465 26.4905H203.465ZM152.182 26.4905C152.127 26.4905 152.084 26.4686 152.04 26.425C151.996 26.3814 151.975 26.3377 151.975 26.2832V15.7341C151.975 15.6795 151.996 15.6359 152.04 15.5814C152.084 15.5377 152.127 15.5159 152.193 15.5159H154.571C154.604 15.5159 154.658 15.5268 154.713 15.5814C154.778 15.6468 154.778 15.6905 154.778 15.7232V26.2723C154.778 26.3268 154.756 26.3705 154.713 26.425C154.669 26.4686 154.625 26.4905 154.56 26.4905H152.182ZM125.215 26.4905C125.171 26.4905 125.127 26.4795 125.062 26.4141C124.996 26.3486 124.985 26.2941 124.985 26.2505V21.1668C124.985 20.9595 124.865 20.8723 124.745 20.8614H124.735H124.724C124.604 20.8614 124.495 20.9377 124.418 21.0795L121.255 26.1086C121.124 26.3268 121.015 26.4032 120.949 26.4359C120.84 26.4795 120.709 26.5014 120.556 26.5014H118.353C118.276 26.5014 118.222 26.4795 118.156 26.4468C118.113 26.4141 118.102 26.3268 118.102 26.2723V15.7668C118.102 15.6795 118.124 15.6141 118.156 15.5814C118.2 15.5377 118.255 15.5268 118.331 15.5268H120.545C120.611 15.5268 120.676 15.5486 120.731 15.5923C120.742 15.6032 120.796 15.6359 120.796 15.7668V21.1014C120.796 21.3741 120.982 21.4177 121.036 21.4286H121.047H121.058C121.189 21.4286 121.287 21.3195 121.353 21.2432L124.658 15.9195C124.745 15.7777 124.833 15.6686 124.92 15.6032C124.985 15.5486 125.073 15.5268 125.193 15.5268H127.473C127.527 15.5268 127.582 15.5486 127.625 15.5923C127.68 15.6577 127.691 15.7014 127.691 15.7341V26.2614C127.691 26.2941 127.68 26.3486 127.615 26.4141C127.56 26.4686 127.505 26.4905 127.44 26.4905H125.215ZM113.607 26.4905C113.509 26.4905 113.433 26.4686 113.378 26.4141C113.313 26.3486 113.269 26.2832 113.258 26.1959L111.338 17.905C111.316 17.8286 111.251 17.6432 111.087 17.6432C110.913 17.6432 110.858 17.8286 110.836 17.8832L108.949 26.1305C108.927 26.2395 108.884 26.3159 108.818 26.3923C108.764 26.4577 108.698 26.4795 108.622 26.4795H106.571C106.451 26.4795 106.407 26.4359 106.375 26.4032C106.32 26.3486 106.298 26.2832 106.298 26.2068V26.1959C106.309 26.1632 106.309 26.1305 106.309 26.0977L108.665 16.9668C108.742 16.6177 108.862 16.345 109.036 16.1268C109.211 15.9086 109.407 15.7341 109.625 15.6032C109.844 15.4723 110.084 15.3959 110.335 15.3523C110.596 15.3086 110.858 15.2868 111.109 15.2868C111.393 15.2868 111.676 15.3086 111.96 15.3523C112.233 15.3959 112.495 15.4723 112.735 15.5923C112.964 15.7014 113.171 15.8759 113.356 16.0941C113.531 16.3123 113.673 16.6068 113.782 16.9777L116.16 26.1414V26.2177C116.16 26.2941 116.138 26.3486 116.073 26.4032C116.007 26.4577 115.931 26.4905 115.833 26.4905H113.607ZM100.451 26.4905C100.385 26.4905 100.342 26.4686 100.287 26.4359C100.244 26.4032 100.233 26.3268 100.233 26.2614V17.7741H97.5709C97.4837 17.7741 97.4291 17.7523 97.3964 17.7195C97.3527 17.665 97.3418 17.6105 97.3418 17.545V15.7668C97.3418 15.7014 97.3637 15.6359 97.4073 15.5705C97.4182 15.5486 97.4509 15.505 97.5709 15.505H105.709C105.84 15.505 105.873 15.5486 105.884 15.5595C105.927 15.6141 105.949 15.6795 105.949 15.7559V17.5341C105.949 17.5995 105.927 17.6541 105.884 17.7086C105.873 17.7195 105.84 17.7632 105.709 17.7632H103.069V26.2614C103.069 26.3923 103.025 26.425 103.015 26.425C102.96 26.4686 102.905 26.4905 102.84 26.4905H100.451Z" fill="#1D2864"/>
<path d="M25.9964 13.6941C25.6473 13.945 25.4182 14.3268 25.3636 14.7523C25.2982 15.2105 25.1782 15.8759 24.9273 16.5959C24.7091 17.2286 23.3455 19.225 22.2982 21.3414C21.0873 23.7741 20.1818 26.3159 20.1818 26.3159C20.1818 26.3159 19.1564 29.5995 19.8218 32.4032C20.3455 34.5959 21.7091 35.8723 22.2764 36.3305C22.4291 36.4505 22.6364 36.4723 22.8 36.385C24.8509 35.2941 38.1055 27.9305 40.8764 17.9595C43.3855 8.92681 39.4146 3.94136 38.0291 2.545C37.6036 2.11954 36.9491 1.98863 36.4255 2.28318C36.3382 2.33773 36.24 2.40318 36.1527 2.47954C35.9346 2.68682 35.8473 2.94863 35.8255 3.18863C35.7927 3.60318 35.9455 3.99591 36.1855 4.32318C36.9709 5.37045 39.4473 9.21045 38.0727 14.7305C36.4582 21.2432 31.1346 24.1886 31.1346 24.1886C31.1346 24.1886 29.1818 25.3559 27.8618 24.1014C26.5418 22.8468 27.4255 19.4868 27.4255 19.4868C27.4255 19.4868 27.5455 19.0505 27.7418 18.5705C28.0473 17.8286 28.4509 16.8032 28.1782 15.6141C27.8946 14.4032 27.2509 13.8577 26.7927 13.6177C26.5636 13.4868 26.2364 13.5195 25.9964 13.6941Z" fill="#5A6CCE"/>
<path d="M37.0364 12.8541C36.3818 18.5268 32.1491 21.9086 31.0364 22.705C31.2109 20.8395 31.1564 18.385 30.1527 16.225C28.5818 12.8323 25.7346 10.4323 24.7418 9.65773C24.3709 9.36318 24.1527 8.88318 24.2509 8.41409C24.2836 8.27227 24.3382 8.14136 24.4364 7.99954C24.5891 7.78136 24.8291 7.66136 25.0691 7.61772C25.5164 7.53045 25.9746 7.66136 26.3564 7.92318C26.8691 8.29409 27.8182 9.03591 28.8982 10.2359C30.1091 11.5668 30.9709 13.2795 31.4946 13.9232C31.68 14.1632 31.9091 14.1741 32.0073 14.0541C32.04 14.0214 32.0509 13.9123 32.0618 13.7705C32.0836 13.1814 31.9527 12.5923 31.7018 12.0577C31.3527 11.305 30.7091 10.1159 29.6291 8.74136C27.8073 6.42863 25.56 4.50863 25.56 4.50863C25.56 4.50863 24.9382 3.81045 25.4182 3.15591C25.6582 2.83954 26.0618 2.76318 26.4 2.785C26.7491 2.79591 27.0873 2.905 27.3927 3.07954C28.0146 3.43954 29.3564 4.35591 30.9055 6.19954C32.5418 8.15227 33.3382 9.90863 33.6218 10.6286C33.7418 10.9341 34.0582 11.1632 34.3855 11.1195C34.4618 11.1086 34.5382 11.0868 34.6146 11.0432C34.9746 10.8141 34.8873 10.105 34.8873 10.105C34.8873 10.105 34.6036 8.64318 33.2727 6.385C32.3018 4.73772 30.9164 3.33045 30.24 2.69772C29.8255 2.305 29.76 1.66136 30.12 1.225L30.1309 1.21409C30.2727 1.06136 30.4582 0.974089 30.6546 0.919543C31.0691 0.821361 31.5164 0.930452 31.8764 1.17045C32.5418 1.62863 33.8618 2.68682 34.9746 4.39954C36.3382 6.53772 37.3964 9.77773 37.0364 12.8541Z" fill="#424F97"/>
<path d="M20.1382 36.5159C20.1382 36.5159 6.27274 29.8832 1.87637 20.9595C1.75637 20.7086 1.63637 20.4577 1.52728 20.2068C1.50546 20.0105 1.23274 17.4905 3.29455 13.9668C5.44365 10.2905 10.2327 9.82136 10.2327 9.82136C10.2327 9.82136 7.22183 12.6468 9.37092 17.6105C11.52 22.5741 18.4255 26.7959 18.4255 26.7959C18.4255 26.7959 17.9455 30.145 18.2509 32.1632C18.5673 34.1923 20.1382 36.5159 20.1382 36.5159Z" fill="#99426B"/>
<path d="M21.12 17.8395C21.12 17.8395 20.4873 14.1632 17.0291 11.6541C13.5818 9.145 10.2327 9.83227 10.2327 9.83227C10.2327 9.83227 5.44365 10.2905 3.29455 13.9777C1.24365 17.5014 1.50546 20.0214 1.52728 20.2177C0.272736 17.3814 -0.0109004 14.7523 0.152736 12.505C0.567281 6.94136 4.44001 2.26136 9.88365 1.03954C12.3055 0.48318 15.1418 0.592271 18.0873 2.26136C26.1927 6.85409 21.12 17.8395 21.12 17.8395Z" fill="#D85D97"/>
</g>
<defs>
<clipPath id="clip0_2_2">
<rect width="218.182" height="36" fill="white" transform="translate(0 0.625)"/>
</clipPath>
</defs>
</svg>
